<svg xmlns:xlink="http://www.w3.org/1999/xlink" viewBox="0 0 421.963359 285.253313" xmlns="http://www.w3.org/2000/svg" version="1.1">
 <metadata>
  <rdf:RDF xmlns:dc="http://purl.org/dc/elements/1.1/" xmlns:cc="http://creativecommons.org/ns#" xmlns:rdf="http://www.w3.org/1999/02/22-rdf-syntax-ns#">
   <cc:Work>
    <dc:type rdf:resource="http://purl.org/dc/dcmitype/StillImage"/>
    <dc:date>2026-07-15T16:12:22.435174</dc:date>
    <dc:format>image/svg+xml</dc:format>
    <dc:creator>
     <cc:Agent>
      <dc:title>Matplotlib v3.10.8, https://matplotlib.org/</dc:title>
     </cc:Agent>
    </dc:creator>
   </cc:Work>
  </rdf:RDF>
 </metadata>
 <defs>
  <style type="text/css">*{stroke-linejoin: round; stroke-linecap: butt}</style>
 </defs>
 <g id="figure_1">
  <g id="patch_1">
   <path d="M 0 285.253313 
L 421.963359 285.253313 
L 421.963359 -0 
L 0 -0 
L 0 285.253313 
z
" style="fill: none"/>
  </g>
  <g id="axes_1">
   <g id="patch_2">
    <path d="M 45.043359 245.236828 
L 413.323359 245.236828 
L 413.323359 12.388828 
L 45.043359 12.388828 
L 45.043359 245.236828 
z
" style="fill: none"/>
   </g>
   <g id="matplotlib.axis_1">
    <g id="xtick_1">
     <g id="line2d_1">
      <path d="M 68.060859 245.236828 
L 68.060859 12.388828 
" clip-path="url(#p3cca46b432)" style="fill: none; stroke: #808080; stroke-width: 0.9; stroke-linecap: square"/>
     </g>
     <g id="line2d_2">
      <defs>
       <path id="mcadd998ac5" d="M 0 0 
L 0 3.5 
" style="stroke: currentColor; stroke-width: 0.8"/>
      </defs>
      <g>
       <use xlink:href="#mcadd998ac5" x="68.060859" y="245.236828" style="fill: currentColor; stroke: currentColor; stroke-width: 0.8"/>
      </g>
     </g>
     <g id="text_1">
      <text style="font-size: 10.5px; font-family: 'Helvetica Neue', 'Helvetica', 'Arial', 'DejaVu Sans', sans-serif; text-anchor: middle; fill: currentColor" x="68.060859" y="259.734484" transform="rotate(-0 68.060859 259.734484)">0.2</text>
     </g>
    </g>
    <g id="xtick_2">
     <g id="line2d_3">
      <path d="M 114.095859 245.236828 
L 114.095859 12.388828 
" clip-path="url(#p3cca46b432)" style="fill: none; stroke: #808080; stroke-width: 0.9; stroke-linecap: square"/>
     </g>
     <g id="line2d_4">
      <g>
       <use xlink:href="#mcadd998ac5" x="114.095859" y="245.236828" style="fill: currentColor; stroke: currentColor; stroke-width: 0.8"/>
      </g>
     </g>
     <g id="text_2">
      <text style="font-size: 10.5px; font-family: 'Helvetica Neue', 'Helvetica', 'Arial', 'DejaVu Sans', sans-serif; text-anchor: middle; fill: currentColor" x="114.095859" y="259.734484" transform="rotate(-0 114.095859 259.734484)">0.3</text>
     </g>
    </g>
    <g id="xtick_3">
     <g id="line2d_5">
      <path d="M 160.130859 245.236828 
L 160.130859 12.388828 
" clip-path="url(#p3cca46b432)" style="fill: none; stroke: #808080; stroke-width: 0.9; stroke-linecap: square"/>
     </g>
     <g id="line2d_6">
      <g>
       <use xlink:href="#mcadd998ac5" x="160.130859" y="245.236828" style="fill: currentColor; stroke: currentColor; stroke-width: 0.8"/>
      </g>
     </g>
     <g id="text_3">
      <text style="font-size: 10.5px; font-family: 'Helvetica Neue', 'Helvetica', 'Arial', 'DejaVu Sans', sans-serif; text-anchor: middle; fill: currentColor" x="160.130859" y="259.734484" transform="rotate(-0 160.130859 259.734484)">0.4</text>
     </g>
    </g>
    <g id="xtick_4">
     <g id="line2d_7">
      <path d="M 206.165859 245.236828 
L 206.165859 12.388828 
" clip-path="url(#p3cca46b432)" style="fill: none; stroke: #808080; stroke-width: 0.9; stroke-linecap: square"/>
     </g>
     <g id="line2d_8">
      <g>
       <use xlink:href="#mcadd998ac5" x="206.165859" y="245.236828" style="fill: currentColor; stroke: currentColor; stroke-width: 0.8"/>
      </g>
     </g>
     <g id="text_4">
      <text style="font-size: 10.5px; font-family: 'Helvetica Neue', 'Helvetica', 'Arial', 'DejaVu Sans', sans-serif; text-anchor: middle; fill: currentColor" x="206.165859" y="259.734484" transform="rotate(-0 206.165859 259.734484)">0.5</text>
     </g>
    </g>
    <g id="xtick_5">
     <g id="line2d_9">
      <path d="M 252.200859 245.236828 
L 252.200859 12.388828 
" clip-path="url(#p3cca46b432)" style="fill: none; stroke: #808080; stroke-width: 0.9; stroke-linecap: square"/>
     </g>
     <g id="line2d_10">
      <g>
       <use xlink:href="#mcadd998ac5" x="252.200859" y="245.236828" style="fill: currentColor; stroke: currentColor; stroke-width: 0.8"/>
      </g>
     </g>
     <g id="text_5">
      <text style="font-size: 10.5px; font-family: 'Helvetica Neue', 'Helvetica', 'Arial', 'DejaVu Sans', sans-serif; text-anchor: middle; fill: currentColor" x="252.200859" y="259.734484" transform="rotate(-0 252.200859 259.734484)">0.6</text>
     </g>
    </g>
    <g id="xtick_6">
     <g id="line2d_11">
      <path d="M 298.235859 245.236828 
L 298.235859 12.388828 
" clip-path="url(#p3cca46b432)" style="fill: none; stroke: #808080; stroke-width: 0.9; stroke-linecap: square"/>
     </g>
     <g id="line2d_12">
      <g>
       <use xlink:href="#mcadd998ac5" x="298.235859" y="245.236828" style="fill: currentColor; stroke: currentColor; stroke-width: 0.8"/>
      </g>
     </g>
     <g id="text_6">
      <text style="font-size: 10.5px; font-family: 'Helvetica Neue', 'Helvetica', 'Arial', 'DejaVu Sans', sans-serif; text-anchor: middle; fill: currentColor" x="298.235859" y="259.734484" transform="rotate(-0 298.235859 259.734484)">0.7</text>
     </g>
    </g>
    <g id="xtick_7">
     <g id="line2d_13">
      <path d="M 344.270859 245.236828 
L 344.270859 12.388828 
" clip-path="url(#p3cca46b432)" style="fill: none; stroke: #808080; stroke-width: 0.9; stroke-linecap: square"/>
     </g>
     <g id="line2d_14">
      <g>
       <use xlink:href="#mcadd998ac5" x="344.270859" y="245.236828" style="fill: currentColor; stroke: currentColor; stroke-width: 0.8"/>
      </g>
     </g>
     <g id="text_7">
      <text style="font-size: 10.5px; font-family: 'Helvetica Neue', 'Helvetica', 'Arial', 'DejaVu Sans', sans-serif; text-anchor: middle; fill: currentColor" x="344.270859" y="259.734484" transform="rotate(-0 344.270859 259.734484)">0.8</text>
     </g>
    </g>
    <g id="xtick_8">
     <g id="line2d_15">
      <path d="M 390.305859 245.236828 
L 390.305859 12.388828 
" clip-path="url(#p3cca46b432)" style="fill: none; stroke: #808080; stroke-width: 0.9; stroke-linecap: square"/>
     </g>
     <g id="line2d_16">
      <g>
       <use xlink:href="#mcadd998ac5" x="390.305859" y="245.236828" style="fill: currentColor; stroke: currentColor; stroke-width: 0.8"/>
      </g>
     </g>
     <g id="text_8">
      <text style="font-size: 10.5px; font-family: 'Helvetica Neue', 'Helvetica', 'Arial', 'DejaVu Sans', sans-serif; text-anchor: middle; fill: currentColor" x="390.305859" y="259.734484" transform="rotate(-0 390.305859 259.734484)">0.9</text>
     </g>
    </g>
    <g id="text_9">
     <text style="font-size: 11.5px; font-family: 'Helvetica Neue', 'Helvetica', 'Arial', 'DejaVu Sans', sans-serif; text-anchor: middle; fill: currentColor" x="229.183359" y="274.209094" transform="rotate(-0 229.183359 274.209094)">Diversity  (pairwise LPIPS, higher better)</text>
    </g>
   </g>
   <g id="matplotlib.axis_2">
    <g id="ytick_1">
     <g id="line2d_17">
      <path d="M 45.043359 245.236828 
L 413.323359 245.236828 
" clip-path="url(#p3cca46b432)" style="fill: none; stroke: #808080; stroke-width: 0.9; stroke-linecap: square"/>
     </g>
     <g id="line2d_18">
      <defs>
       <path id="mdf50084519" d="M 0 0 
L -3.5 0 
" style="stroke: currentColor; stroke-width: 0.8"/>
      </defs>
      <g>
       <use xlink:href="#mdf50084519" x="45.043359" y="245.236828" style="fill: currentColor; stroke: currentColor; stroke-width: 0.8"/>
      </g>
     </g>
     <g id="text_10">
      <text style="font-size: 10.5px; font-family: 'Helvetica Neue', 'Helvetica', 'Arial', 'DejaVu Sans', sans-serif; text-anchor: end; fill: currentColor" x="38.043359" y="248.985656" transform="rotate(-0 38.043359 248.985656)">0.3</text>
     </g>
    </g>
    <g id="ytick_2">
     <g id="line2d_19">
      <path d="M 45.043359 211.972828 
L 413.323359 211.972828 
" clip-path="url(#p3cca46b432)" style="fill: none; stroke: #808080; stroke-width: 0.9; stroke-linecap: square"/>
     </g>
     <g id="line2d_20">
      <g>
       <use xlink:href="#mdf50084519" x="45.043359" y="211.972828" style="fill: currentColor; stroke: currentColor; stroke-width: 0.8"/>
      </g>
     </g>
     <g id="text_11">
      <text style="font-size: 10.5px; font-family: 'Helvetica Neue', 'Helvetica', 'Arial', 'DejaVu Sans', sans-serif; text-anchor: end; fill: currentColor" x="38.043359" y="215.721656" transform="rotate(-0 38.043359 215.721656)">0.4</text>
     </g>
    </g>
    <g id="ytick_3">
     <g id="line2d_21">
      <path d="M 45.043359 178.708828 
L 413.323359 178.708828 
" clip-path="url(#p3cca46b432)" style="fill: none; stroke: #808080; stroke-width: 0.9; stroke-linecap: square"/>
     </g>
     <g id="line2d_22">
      <g>
       <use xlink:href="#mdf50084519" x="45.043359" y="178.708828" style="fill: currentColor; stroke: currentColor; stroke-width: 0.8"/>
      </g>
     </g>
     <g id="text_12">
      <text style="font-size: 10.5px; font-family: 'Helvetica Neue', 'Helvetica', 'Arial', 'DejaVu Sans', sans-serif; text-anchor: end; fill: currentColor" x="38.043359" y="182.457656" transform="rotate(-0 38.043359 182.457656)">0.5</text>
     </g>
    </g>
    <g id="ytick_4">
     <g id="line2d_23">
      <path d="M 45.043359 145.444828 
L 413.323359 145.444828 
" clip-path="url(#p3cca46b432)" style="fill: none; stroke: #808080; stroke-width: 0.9; stroke-linecap: square"/>
     </g>
     <g id="line2d_24">
      <g>
       <use xlink:href="#mdf50084519" x="45.043359" y="145.444828" style="fill: currentColor; stroke: currentColor; stroke-width: 0.8"/>
      </g>
     </g>
     <g id="text_13">
      <text style="font-size: 10.5px; font-family: 'Helvetica Neue', 'Helvetica', 'Arial', 'DejaVu Sans', sans-serif; text-anchor: end; fill: currentColor" x="38.043359" y="149.193656" transform="rotate(-0 38.043359 149.193656)">0.6</text>
     </g>
    </g>
    <g id="ytick_5">
     <g id="line2d_25">
      <path d="M 45.043359 112.180828 
L 413.323359 112.180828 
" clip-path="url(#p3cca46b432)" style="fill: none; stroke: #808080; stroke-width: 0.9; stroke-linecap: square"/>
     </g>
     <g id="line2d_26">
      <g>
       <use xlink:href="#mdf50084519" x="45.043359" y="112.180828" style="fill: currentColor; stroke: currentColor; stroke-width: 0.8"/>
      </g>
     </g>
     <g id="text_14">
      <text style="font-size: 10.5px; font-family: 'Helvetica Neue', 'Helvetica', 'Arial', 'DejaVu Sans', sans-serif; text-anchor: end; fill: currentColor" x="38.043359" y="115.929656" transform="rotate(-0 38.043359 115.929656)">0.7</text>
     </g>
    </g>
    <g id="ytick_6">
     <g id="line2d_27">
      <path d="M 45.043359 78.916828 
L 413.323359 78.916828 
" clip-path="url(#p3cca46b432)" style="fill: none; stroke: #808080; stroke-width: 0.9; stroke-linecap: square"/>
     </g>
     <g id="line2d_28">
      <g>
       <use xlink:href="#mdf50084519" x="45.043359" y="78.916828" style="fill: currentColor; stroke: currentColor; stroke-width: 0.8"/>
      </g>
     </g>
     <g id="text_15">
      <text style="font-size: 10.5px; font-family: 'Helvetica Neue', 'Helvetica', 'Arial', 'DejaVu Sans', sans-serif; text-anchor: end; fill: currentColor" x="38.043359" y="82.665656" transform="rotate(-0 38.043359 82.665656)">0.8</text>
     </g>
    </g>
    <g id="ytick_7">
     <g id="line2d_29">
      <path d="M 45.043359 45.652828 
L 413.323359 45.652828 
" clip-path="url(#p3cca46b432)" style="fill: none; stroke: #808080; stroke-width: 0.9; stroke-linecap: square"/>
     </g>
     <g id="line2d_30">
      <g>
       <use xlink:href="#mdf50084519" x="45.043359" y="45.652828" style="fill: currentColor; stroke: currentColor; stroke-width: 0.8"/>
      </g>
     </g>
     <g id="text_16">
      <text style="font-size: 10.5px; font-family: 'Helvetica Neue', 'Helvetica', 'Arial', 'DejaVu Sans', sans-serif; text-anchor: end; fill: currentColor" x="38.043359" y="49.401656" transform="rotate(-0 38.043359 49.401656)">0.9</text>
     </g>
    </g>
    <g id="ytick_8">
     <g id="line2d_31">
      <path d="M 45.043359 12.388828 
L 413.323359 12.388828 
" clip-path="url(#p3cca46b432)" style="fill: none; stroke: #808080; stroke-width: 0.9; stroke-linecap: square"/>
     </g>
     <g id="line2d_32">
      <g>
       <use xlink:href="#mdf50084519" x="45.043359" y="12.388828" style="fill: currentColor; stroke: currentColor; stroke-width: 0.8"/>
      </g>
     </g>
     <g id="text_17">
      <text style="font-size: 10.5px; font-family: 'Helvetica Neue', 'Helvetica', 'Arial', 'DejaVu Sans', sans-serif; text-anchor: end; fill: currentColor" x="38.043359" y="16.137656" transform="rotate(-0 38.043359 16.137656)">1.0</text>
     </g>
    </g>
    <g id="text_18">
     <text style="font-size: 11.5px; font-family: 'Helvetica Neue', 'Helvetica', 'Arial', 'DejaVu Sans', sans-serif; text-anchor: middle; fill: currentColor" x="17.045781" y="128.812828" transform="rotate(-90 17.045781 128.812828)">Reward  (aesthetic + alignment)</text>
    </g>
   </g>
   <g id="patch_3">
    <path d="M 45.043359 245.236828 
L 45.043359 12.388828 
" style="fill: none; stroke: #808080; stroke-opacity: 0.4; stroke-linejoin: miter; stroke-linecap: square"/>
   </g>
   <g id="patch_4">
    <path d="M 45.043359 245.236828 
L 413.323359 245.236828 
" style="fill: none; stroke: #808080; stroke-opacity: 0.4; stroke-linejoin: miter; stroke-linecap: square"/>
   </g>
   <g id="line2d_33">
    <path d="M 58.853859 205.460051 
L 64.627741 201.02103 
L 70.401622 196.655156 
L 76.175503 192.362602 
L 81.949385 188.143544 
L 87.723266 183.99816 
L 93.497148 179.926633 
L 99.271029 175.929152 
L 105.04491 172.005905 
L 110.818792 168.15709 
L 116.592673 164.382906 
L 122.366554 160.683558 
L 128.140436 157.059254 
L 133.914317 153.510211 
L 139.688198 150.036646 
L 145.46208 146.638787 
L 151.235961 143.316863 
L 157.009842 140.071112 
L 162.783724 136.901778 
L 168.557605 133.80911 
L 174.331486 130.793367 
L 180.105368 127.854811 
L 185.879249 124.993715 
L 191.653131 122.21036 
L 197.427012 119.505033 
L 203.200893 116.878033 
L 208.974775 114.329668 
L 214.748656 111.860253 
L 220.522537 109.470117 
L 226.296419 107.159599 
L 232.0703 104.929051 
L 237.844181 102.778837 
L 243.618063 100.709333 
L 249.391944 98.720933 
L 255.165825 96.814043 
L 260.939707 94.989089 
L 266.713588 93.246513 
L 272.48747 91.586777 
L 278.261351 90.010363 
L 284.035232 88.517777 
L 289.809114 87.109549 
L 295.582995 85.786235 
L 301.356876 84.548423 
L 307.130758 83.396729 
L 312.904639 82.331807 
L 318.67852 81.354351 
L 324.452402 80.465096 
L 330.226283 79.664827 
L 336.000164 78.954384 
L 341.774046 78.334668 
L 347.547927 77.806649 
L 353.321809 77.37138 
L 359.09569 77.030005 
L 364.869571 76.783777 
L 370.643453 76.634078 
L 376.417334 76.582443 
L 382.191215 76.630596 
L 387.965097 76.780488 
L 393.738978 77.034367 
L 399.512859 77.394861 
" clip-path="url(#p3cca46b432)" style="fill: none; stroke: #cc3311; stroke-width: 1.9; stroke-linecap: square"/>
   </g>
   <g id="line2d_34">
    <path d="M 58.853859 161.294064 
L 64.627741 157.653186 
L 70.401622 154.076825 
L 76.175503 150.565112 
L 81.949385 147.11818 
L 87.723266 143.736167 
L 93.497148 140.419211 
L 99.271029 137.167457 
L 105.04491 133.98105 
L 110.818792 130.860139 
L 116.592673 127.804877 
L 122.366554 124.815419 
L 128.140436 121.891927 
L 133.914317 119.034564 
L 139.688198 116.243498 
L 145.46208 113.5189 
L 151.235961 110.860948 
L 157.009842 108.269822 
L 162.783724 105.745708 
L 168.557605 103.288798 
L 174.331486 100.899287 
L 180.105368 98.577378 
L 185.879249 96.323278 
L 191.653131 94.137201 
L 197.427012 92.019368 
L 203.200893 89.970006 
L 208.974775 87.98935 
L 214.748656 86.077641 
L 220.522537 84.235131 
L 226.296419 82.462078 
L 232.0703 80.75875 
L 237.844181 79.125426 
L 243.618063 77.562393 
L 249.391944 76.069952 
L 255.165825 74.648413 
L 260.939707 73.298102 
L 266.713588 72.019355 
L 272.48747 70.812525 
L 278.261351 69.677981 
L 284.035232 68.61611 
L 289.809114 67.627314 
L 295.582995 66.712021 
L 301.356876 65.870677 
L 307.130758 65.103754 
L 312.904639 64.411752 
L 318.67852 63.795199 
L 324.452402 63.254658 
L 330.226283 62.790728 
L 336.000164 62.40405 
L 341.774046 62.095313 
L 347.547927 61.865256 
L 353.321809 61.714685 
L 359.09569 61.644472 
L 364.869571 61.655575 
L 370.643453 61.749049 
L 376.417334 61.926067 
L 382.191215 62.187943 
L 387.965097 62.53617 
L 393.738978 62.972462 
L 399.512859 63.498827 
" clip-path="url(#p3cca46b432)" style="fill: none; stroke: #009988; stroke-width: 1.9; stroke-linecap: square"/>
   </g>
   <g id="patch_5">
    <path d="M 196.005154 118.831642 
Q 246.30779 82.823994 295.428568 47.662344 
" style="fill: none; stroke: #0077bb; stroke-width: 1.3; stroke-linecap: round"/>
    <path d="M 291.232704 48.329216 
L 295.428568 47.662344 
L 293.444547 51.419159 
z
" style="fill: #0077bb; stroke: #0077bb; stroke-width: 1.3; stroke-linecap: round"/>
   </g>
   <g id="text_19">
    <text style="font-size: 9.5px; font-family: 'Helvetica Neue', 'Helvetica', 'Arial', 'DejaVu Sans', sans-serif; fill: #0077bb" transform="translate(158.566656 128.779919)">dominant</text>
    <text style="font-size: 9.5px; font-family: 'Helvetica Neue', 'Helvetica', 'Arial', 'DejaVu Sans', sans-serif; fill: #0077bb" transform="translate(163.589781 138.792028)">frontier</text>
   </g>
   <g id="line2d_35">
    <path d="M 58.853859 104.533152 
L 64.627741 101.629023 
L 70.401622 98.781443 
L 76.175503 95.990505 
L 81.949385 93.256306 
L 87.723266 90.578942 
L 93.497148 87.958514 
L 99.271029 85.395124 
L 105.04491 82.888875 
L 110.818792 80.439876 
L 116.592673 78.048234 
L 122.366554 75.714061 
L 128.140436 73.437472 
L 133.914317 71.218583 
L 139.688198 69.057515 
L 145.46208 66.954389 
L 151.235961 64.909334 
L 157.009842 62.922477 
L 162.783724 60.993951 
L 168.557605 59.123894 
L 174.331486 57.312444 
L 180.105368 55.559748 
L 185.879249 53.865951 
L 191.653131 52.231209 
L 197.427012 50.655677 
L 203.200893 49.139519 
L 208.974775 47.682902 
L 214.748656 46.285999 
L 220.522537 44.948989 
L 226.296419 43.672057 
L 232.0703 42.455395 
L 237.844181 41.2992 
L 243.618063 40.20368 
L 249.391944 39.169047 
L 255.165825 38.195525 
L 260.939707 37.283344 
L 266.713588 36.432747 
L 272.48747 35.643985 
L 278.261351 34.917321 
L 284.035232 34.253032 
L 289.809114 33.651406 
L 295.582995 33.112746 
L 301.356876 32.637373 
L 307.130758 32.225624 
L 312.904639 31.877855 
L 318.67852 31.594444 
L 324.452402 31.375793 
L 330.226283 31.22233 
L 336.000164 31.134512 
L 341.774046 31.112831 
L 347.547927 31.157817 
L 353.321809 31.270043 
L 359.09569 31.450134 
L 364.869571 31.698774 
L 370.643453 32.016715 
L 376.417334 32.404796 
L 382.191215 32.863956 
L 387.965097 33.395261 
L 393.738978 33.999935 
L 399.512859 34.679412 
" clip-path="url(#p3cca46b432)" style="fill: none; stroke: #0077bb; stroke-width: 3; stroke-linecap: square"/>
   </g>
   <g id="legend_1">
    <g id="line2d_36">
     <path d="M 54.493359 200.232844 
L 64.993359 200.232844 
L 75.493359 200.232844 
" style="fill: none; stroke: #cc3311; stroke-width: 1.9; stroke-linecap: square"/>
    </g>
    <g id="text_20">
     <text style="font-size: 10.5px; font-family: 'Helvetica Neue', 'Helvetica', 'Arial', 'DejaVu Sans', sans-serif; text-anchor: start; fill: currentColor" x="83.893359" y="203.907844" transform="rotate(-0 83.893359 203.907844)">DPO</text>
    </g>
    <g id="line2d_37">
     <path d="M 54.493359 215.049328 
L 64.993359 215.049328 
L 75.493359 215.049328 
" style="fill: none; stroke: #009988; stroke-width: 1.9; stroke-linecap: square"/>
    </g>
    <g id="text_21">
     <text style="font-size: 10.5px; font-family: 'Helvetica Neue', 'Helvetica', 'Arial', 'DejaVu Sans', sans-serif; text-anchor: start; fill: currentColor" x="83.893359" y="218.724328" transform="rotate(-0 83.893359 218.724328)">ORW-CFM-W2</text>
    </g>
    <g id="line2d_38">
     <path d="M 54.493359 230.043 
L 64.993359 230.043 
L 75.493359 230.043 
" style="fill: none; stroke: #0077bb; stroke-width: 3; stroke-linecap: square"/>
    </g>
    <g id="text_22">
     <text style="font-size: 10.5px; font-family: 'Helvetica Neue', 'Helvetica', 'Arial', 'DejaVu Sans', sans-serif; text-anchor: start; fill: currentColor" x="83.893359" y="233.718" transform="rotate(-0 83.893359 233.718)">ADRPO (ours)</text>
    </g>
   </g>
   <g id="PathCollection_1">
    <defs>
     <path id="m46052d0ca1" d="M -0 3.605551 
L 3.605551 0 
L 0 -3.605551 
L -3.605551 -0 
z
" style="stroke: #cc3311"/>
    </defs>
    <g clip-path="url(#p3cca46b432)">
     <use xlink:href="#m46052d0ca1" x="81.949385" y="188.143544" style="fill: #cc3311; stroke: #cc3311"/>
     <use xlink:href="#m46052d0ca1" x="139.688198" y="150.036646" style="fill: #cc3311; stroke: #cc3311"/>
     <use xlink:href="#m46052d0ca1" x="197.427012" y="119.505033" style="fill: #cc3311; stroke: #cc3311"/>
     <use xlink:href="#m46052d0ca1" x="255.165825" y="96.814043" style="fill: #cc3311; stroke: #cc3311"/>
     <use xlink:href="#m46052d0ca1" x="312.904639" y="82.331807" style="fill: #cc3311; stroke: #cc3311"/>
     <use xlink:href="#m46052d0ca1" x="376.417334" y="76.582443" style="fill: #cc3311; stroke: #cc3311"/>
    </g>
   </g>
   <g id="PathCollection_2">
    <defs>
     <path id="m76bfaecc1d" d="M -2.54951 2.54951 
L 2.54951 2.54951 
L 2.54951 -2.54951 
L -2.54951 -2.54951 
z
" style="stroke: #009988"/>
    </defs>
    <g clip-path="url(#p3cca46b432)">
     <use xlink:href="#m76bfaecc1d" x="81.949385" y="147.11818" style="fill: #009988; stroke: #009988"/>
     <use xlink:href="#m76bfaecc1d" x="139.688198" y="116.243498" style="fill: #009988; stroke: #009988"/>
     <use xlink:href="#m76bfaecc1d" x="197.427012" y="92.019368" style="fill: #009988; stroke: #009988"/>
     <use xlink:href="#m76bfaecc1d" x="255.165825" y="74.648413" style="fill: #009988; stroke: #009988"/>
     <use xlink:href="#m76bfaecc1d" x="312.904639" y="64.411752" style="fill: #009988; stroke: #009988"/>
     <use xlink:href="#m76bfaecc1d" x="376.417334" y="61.926067" style="fill: #009988; stroke: #009988"/>
    </g>
   </g>
   <g id="PathCollection_3">
    <defs>
     <path id="mbfc0e7a414" d="M 0 2.54951 
C 0.676138 2.54951 1.324674 2.280877 1.802776 1.802776 
C 2.280877 1.324674 2.54951 0.676138 2.54951 0 
C 2.54951 -0.676138 2.280877 -1.324674 1.802776 -1.802776 
C 1.324674 -2.280877 0.676138 -2.54951 0 -2.54951 
C -0.676138 -2.54951 -1.324674 -2.280877 -1.802776 -1.802776 
C -2.280877 -1.324674 -2.54951 -0.676138 -2.54951 0 
C -2.54951 0.676138 -2.280877 1.324674 -1.802776 1.802776 
C -1.324674 2.280877 -0.676138 2.54951 0 2.54951 
z
" style="stroke: #0077bb"/>
    </defs>
    <g clip-path="url(#p3cca46b432)">
     <use xlink:href="#mbfc0e7a414" x="81.949385" y="93.256306" style="fill: #0077bb; stroke: #0077bb"/>
     <use xlink:href="#mbfc0e7a414" x="139.688198" y="69.057515" style="fill: #0077bb; stroke: #0077bb"/>
     <use xlink:href="#mbfc0e7a414" x="197.427012" y="50.655677" style="fill: #0077bb; stroke: #0077bb"/>
     <use xlink:href="#mbfc0e7a414" x="255.165825" y="38.195525" style="fill: #0077bb; stroke: #0077bb"/>
     <use xlink:href="#mbfc0e7a414" x="312.904639" y="31.877855" style="fill: #0077bb; stroke: #0077bb"/>
     <use xlink:href="#mbfc0e7a414" x="376.417334" y="32.404796" style="fill: #0077bb; stroke: #0077bb"/>
    </g>
   </g>
  </g>
 </g>
 <defs>
  <clipPath id="p3cca46b432">
   <rect x="45.043359" y="12.388828" width="368.28" height="232.848"/>
  </clipPath>
 </defs>
</svg>
