<svg xmlns:xlink="http://www.w3.org/1999/xlink" viewBox="0 0 452.964297 281.504484" xmlns="http://www.w3.org/2000/svg" version="1.1">
 <metadata>
  <rdf:RDF xmlns:dc="http://purl.org/dc/elements/1.1/" xmlns:cc="http://creativecommons.org/ns#" xmlns:rdf="http://www.w3.org/1999/02/22-rdf-syntax-ns#">
   <cc:Work>
    <dc:type rdf:resource="http://purl.org/dc/dcmitype/StillImage"/>
    <dc:date>2026-07-15T20:43:32.680576</dc:date>
    <dc:format>image/svg+xml</dc:format>
    <dc:creator>
     <cc:Agent>
      <dc:title>Matplotlib v3.10.8, https://matplotlib.org/</dc:title>
     </cc:Agent>
    </dc:creator>
   </cc:Work>
  </rdf:RDF>
 </metadata>
 <defs>
  <style type="text/css">*{stroke-linejoin: round; stroke-linecap: butt}</style>
 </defs>
 <g id="figure_1">
  <g id="patch_1">
   <path d="M 0 281.504484 
L 452.964297 281.504484 
L 452.964297 -0 
L 0 -0 
L 0 281.504484 
z
" style="fill: none"/>
  </g>
  <g id="axes_1">
   <g id="patch_2">
    <path d="M 50.548281 241.488 
L 435.568281 241.488 
L 435.568281 8.64 
L 50.548281 8.64 
L 50.548281 241.488 
z
" style="fill: none"/>
   </g>
   <g id="matplotlib.axis_1">
    <g id="xtick_1">
     <g id="line2d_1">
      <path d="M 50.548281 241.488 
L 50.548281 8.64 
" clip-path="url(#pfda1710976)" style="fill: none; stroke: #808080; stroke-width: 0.9; stroke-linecap: square"/>
     </g>
     <g id="line2d_2">
      <defs>
       <path id="m6bdc86214b" d="M 0 0 
L 0 3.5 
" style="stroke: currentColor; stroke-width: 0.8"/>
      </defs>
      <g>
       <use xlink:href="#m6bdc86214b" x="50.548281" y="241.488" style="fill: currentColor; stroke: currentColor; stroke-width: 0.8"/>
      </g>
     </g>
     <g id="text_1">
      <text style="font-size: 10.5px; font-family: 'Helvetica Neue', 'Helvetica', 'Arial', 'DejaVu Sans', sans-serif; text-anchor: middle; fill: currentColor" x="50.548281" y="255.985656" transform="rotate(-0 50.548281 255.985656)">0</text>
     </g>
    </g>
    <g id="xtick_2">
     <g id="line2d_3">
      <path d="M 127.552281 241.488 
L 127.552281 8.64 
" clip-path="url(#pfda1710976)" style="fill: none; stroke: #808080; stroke-width: 0.9; stroke-linecap: square"/>
     </g>
     <g id="line2d_4">
      <g>
       <use xlink:href="#m6bdc86214b" x="127.552281" y="241.488" style="fill: currentColor; stroke: currentColor; stroke-width: 0.8"/>
      </g>
     </g>
     <g id="text_2">
      <text style="font-size: 10.5px; font-family: 'Helvetica Neue', 'Helvetica', 'Arial', 'DejaVu Sans', sans-serif; text-anchor: middle; fill: currentColor" x="127.552281" y="255.985656" transform="rotate(-0 127.552281 255.985656)">20</text>
     </g>
    </g>
    <g id="xtick_3">
     <g id="line2d_5">
      <path d="M 204.556281 241.488 
L 204.556281 8.64 
" clip-path="url(#pfda1710976)" style="fill: none; stroke: #808080; stroke-width: 0.9; stroke-linecap: square"/>
     </g>
     <g id="line2d_6">
      <g>
       <use xlink:href="#m6bdc86214b" x="204.556281" y="241.488" style="fill: currentColor; stroke: currentColor; stroke-width: 0.8"/>
      </g>
     </g>
     <g id="text_3">
      <text style="font-size: 10.5px; font-family: 'Helvetica Neue', 'Helvetica', 'Arial', 'DejaVu Sans', sans-serif; text-anchor: middle; fill: currentColor" x="204.556281" y="255.985656" transform="rotate(-0 204.556281 255.985656)">40</text>
     </g>
    </g>
    <g id="xtick_4">
     <g id="line2d_7">
      <path d="M 281.560281 241.488 
L 281.560281 8.64 
" clip-path="url(#pfda1710976)" style="fill: none; stroke: #808080; stroke-width: 0.9; stroke-linecap: square"/>
     </g>
     <g id="line2d_8">
      <g>
       <use xlink:href="#m6bdc86214b" x="281.560281" y="241.488" style="fill: currentColor; stroke: currentColor; stroke-width: 0.8"/>
      </g>
     </g>
     <g id="text_4">
      <text style="font-size: 10.5px; font-family: 'Helvetica Neue', 'Helvetica', 'Arial', 'DejaVu Sans', sans-serif; text-anchor: middle; fill: currentColor" x="281.560281" y="255.985656" transform="rotate(-0 281.560281 255.985656)">60</text>
     </g>
    </g>
    <g id="xtick_5">
     <g id="line2d_9">
      <path d="M 358.564281 241.488 
L 358.564281 8.64 
" clip-path="url(#pfda1710976)" style="fill: none; stroke: #808080; stroke-width: 0.9; stroke-linecap: square"/>
     </g>
     <g id="line2d_10">
      <g>
       <use xlink:href="#m6bdc86214b" x="358.564281" y="241.488" style="fill: currentColor; stroke: currentColor; stroke-width: 0.8"/>
      </g>
     </g>
     <g id="text_5">
      <text style="font-size: 10.5px; font-family: 'Helvetica Neue', 'Helvetica', 'Arial', 'DejaVu Sans', sans-serif; text-anchor: middle; fill: currentColor" x="358.564281" y="255.985656" transform="rotate(-0 358.564281 255.985656)">80</text>
     </g>
    </g>
    <g id="xtick_6">
     <g id="line2d_11">
      <path d="M 435.568281 241.488 
L 435.568281 8.64 
" clip-path="url(#pfda1710976)" style="fill: none; stroke: #808080; stroke-width: 0.9; stroke-linecap: square"/>
     </g>
     <g id="line2d_12">
      <g>
       <use xlink:href="#m6bdc86214b" x="435.568281" y="241.488" style="fill: currentColor; stroke: currentColor; stroke-width: 0.8"/>
      </g>
     </g>
     <g id="text_6">
      <text style="font-size: 10.5px; font-family: 'Helvetica Neue', 'Helvetica', 'Arial', 'DejaVu Sans', sans-serif; text-anchor: middle; fill: currentColor" x="435.568281" y="255.985656" transform="rotate(-0 435.568281 255.985656)">100</text>
     </g>
    </g>
    <g id="text_7">
     <text style="font-size: 11.5px; font-family: 'Helvetica Neue', 'Helvetica', 'Arial', 'DejaVu Sans', sans-serif; text-anchor: middle; fill: currentColor" x="243.058281" y="270.460266" transform="rotate(-0 243.058281 270.460266)">Training progress (%)</text>
    </g>
   </g>
   <g id="matplotlib.axis_2">
    <g id="ytick_1">
     <g id="line2d_13">
      <path d="M 50.548281 241.488 
L 435.568281 241.488 
" clip-path="url(#pfda1710976)" style="fill: none; stroke: #808080; stroke-width: 0.9; stroke-linecap: square"/>
     </g>
     <g id="line2d_14">
      <defs>
       <path id="m4e9cf19e44" d="M 0 0 
L -3.5 0 
" style="stroke: currentColor; stroke-width: 0.8"/>
      </defs>
      <g>
       <use xlink:href="#m4e9cf19e44" x="50.548281" y="241.488" style="fill: currentColor; stroke: currentColor; stroke-width: 0.8"/>
      </g>
     </g>
     <g id="text_8">
      <text style="font-size: 10.5px; font-family: 'Helvetica Neue', 'Helvetica', 'Arial', 'DejaVu Sans', sans-serif; text-anchor: end; fill: currentColor" x="43.548281" y="245.236828" transform="rotate(-0 43.548281 245.236828)">0.00</text>
     </g>
    </g>
    <g id="ytick_2">
     <g id="line2d_15">
      <path d="M 50.548281 213.091902 
L 435.568281 213.091902 
" clip-path="url(#pfda1710976)" style="fill: none; stroke: #808080; stroke-width: 0.9; stroke-linecap: square"/>
     </g>
     <g id="line2d_16">
      <g>
       <use xlink:href="#m4e9cf19e44" x="50.548281" y="213.091902" style="fill: currentColor; stroke: currentColor; stroke-width: 0.8"/>
      </g>
     </g>
     <g id="text_9">
      <text style="font-size: 10.5px; font-family: 'Helvetica Neue', 'Helvetica', 'Arial', 'DejaVu Sans', sans-serif; text-anchor: end; fill: currentColor" x="43.548281" y="216.840731" transform="rotate(-0 43.548281 216.840731)">0.25</text>
     </g>
    </g>
    <g id="ytick_3">
     <g id="line2d_17">
      <path d="M 50.548281 184.695805 
L 435.568281 184.695805 
" clip-path="url(#pfda1710976)" style="fill: none; stroke: #808080; stroke-width: 0.9; stroke-linecap: square"/>
     </g>
     <g id="line2d_18">
      <g>
       <use xlink:href="#m4e9cf19e44" x="50.548281" y="184.695805" style="fill: currentColor; stroke: currentColor; stroke-width: 0.8"/>
      </g>
     </g>
     <g id="text_10">
      <text style="font-size: 10.5px; font-family: 'Helvetica Neue', 'Helvetica', 'Arial', 'DejaVu Sans', sans-serif; text-anchor: end; fill: currentColor" x="43.548281" y="188.444633" transform="rotate(-0 43.548281 188.444633)">0.50</text>
     </g>
    </g>
    <g id="ytick_4">
     <g id="line2d_19">
      <path d="M 50.548281 156.299707 
L 435.568281 156.299707 
" clip-path="url(#pfda1710976)" style="fill: none; stroke: #808080; stroke-width: 0.9; stroke-linecap: square"/>
     </g>
     <g id="line2d_20">
      <g>
       <use xlink:href="#m4e9cf19e44" x="50.548281" y="156.299707" style="fill: currentColor; stroke: currentColor; stroke-width: 0.8"/>
      </g>
     </g>
     <g id="text_11">
      <text style="font-size: 10.5px; font-family: 'Helvetica Neue', 'Helvetica', 'Arial', 'DejaVu Sans', sans-serif; text-anchor: end; fill: currentColor" x="43.548281" y="160.048535" transform="rotate(-0 43.548281 160.048535)">0.75</text>
     </g>
    </g>
    <g id="ytick_5">
     <g id="line2d_21">
      <path d="M 50.548281 127.90361 
L 435.568281 127.90361 
" clip-path="url(#pfda1710976)" style="fill: none; stroke: #808080; stroke-width: 0.9; stroke-linecap: square"/>
     </g>
     <g id="line2d_22">
      <g>
       <use xlink:href="#m4e9cf19e44" x="50.548281" y="127.90361" style="fill: currentColor; stroke: currentColor; stroke-width: 0.8"/>
      </g>
     </g>
     <g id="text_12">
      <text style="font-size: 10.5px; font-family: 'Helvetica Neue', 'Helvetica', 'Arial', 'DejaVu Sans', sans-serif; text-anchor: end; fill: currentColor" x="43.548281" y="131.652438" transform="rotate(-0 43.548281 131.652438)">1.00</text>
     </g>
    </g>
    <g id="ytick_6">
     <g id="line2d_23">
      <path d="M 50.548281 99.507512 
L 435.568281 99.507512 
" clip-path="url(#pfda1710976)" style="fill: none; stroke: #808080; stroke-width: 0.9; stroke-linecap: square"/>
     </g>
     <g id="line2d_24">
      <g>
       <use xlink:href="#m4e9cf19e44" x="50.548281" y="99.507512" style="fill: currentColor; stroke: currentColor; stroke-width: 0.8"/>
      </g>
     </g>
     <g id="text_13">
      <text style="font-size: 10.5px; font-family: 'Helvetica Neue', 'Helvetica', 'Arial', 'DejaVu Sans', sans-serif; text-anchor: end; fill: currentColor" x="43.548281" y="103.25634" transform="rotate(-0 43.548281 103.25634)">1.25</text>
     </g>
    </g>
    <g id="ytick_7">
     <g id="line2d_25">
      <path d="M 50.548281 71.111415 
L 435.568281 71.111415 
" clip-path="url(#pfda1710976)" style="fill: none; stroke: #808080; stroke-width: 0.9; stroke-linecap: square"/>
     </g>
     <g id="line2d_26">
      <g>
       <use xlink:href="#m4e9cf19e44" x="50.548281" y="71.111415" style="fill: currentColor; stroke: currentColor; stroke-width: 0.8"/>
      </g>
     </g>
     <g id="text_14">
      <text style="font-size: 10.5px; font-family: 'Helvetica Neue', 'Helvetica', 'Arial', 'DejaVu Sans', sans-serif; text-anchor: end; fill: currentColor" x="43.548281" y="74.860243" transform="rotate(-0 43.548281 74.860243)">1.50</text>
     </g>
    </g>
    <g id="ytick_8">
     <g id="line2d_27">
      <path d="M 50.548281 42.715317 
L 435.568281 42.715317 
" clip-path="url(#pfda1710976)" style="fill: none; stroke: #808080; stroke-width: 0.9; stroke-linecap: square"/>
     </g>
     <g id="line2d_28">
      <g>
       <use xlink:href="#m4e9cf19e44" x="50.548281" y="42.715317" style="fill: currentColor; stroke: currentColor; stroke-width: 0.8"/>
      </g>
     </g>
     <g id="text_15">
      <text style="font-size: 10.5px; font-family: 'Helvetica Neue', 'Helvetica', 'Arial', 'DejaVu Sans', sans-serif; text-anchor: end; fill: currentColor" x="43.548281" y="46.464145" transform="rotate(-0 43.548281 46.464145)">1.75</text>
     </g>
    </g>
    <g id="ytick_9">
     <g id="line2d_29">
      <path d="M 50.548281 14.31922 
L 435.568281 14.31922 
" clip-path="url(#pfda1710976)" style="fill: none; stroke: #808080; stroke-width: 0.9; stroke-linecap: square"/>
     </g>
     <g id="line2d_30">
      <g>
       <use xlink:href="#m4e9cf19e44" x="50.548281" y="14.31922" style="fill: currentColor; stroke: currentColor; stroke-width: 0.8"/>
      </g>
     </g>
     <g id="text_16">
      <text style="font-size: 10.5px; font-family: 'Helvetica Neue', 'Helvetica', 'Arial', 'DejaVu Sans', sans-serif; text-anchor: end; fill: currentColor" x="43.548281" y="18.068048" transform="rotate(-0 43.548281 18.068048)">2.00</text>
     </g>
    </g>
    <g id="text_17">
     <text style="font-size: 11.5px; font-family: 'Helvetica Neue', 'Helvetica', 'Arial', 'DejaVu Sans', sans-serif; text-anchor: middle; fill: currentColor" x="16.851719" y="125.064" transform="rotate(-90 16.851719 125.064)">Reward</text>
    </g>
   </g>
   <g id="line2d_31">
    <path d="M 50.548281 184.695805 
L 435.568281 184.695805 
" clip-path="url(#pfda1710976)" style="fill: none; stroke-dasharray: 5.2,3.9; stroke-dashoffset: 0; stroke: #aa3377; stroke-opacity: 0.8; stroke-width: 1.3"/>
   </g>
   <g id="line2d_32">
    <path d="M 50.548281 179.089754 
L 54.874349 178.434027 
L 59.200416 165.987641 
L 63.526483 164.446612 
L 67.852551 164.801256 
L 72.178618 153.608756 
L 76.504686 147.39116 
L 80.830753 153.66167 
L 85.156821 160.95116 
L 89.482888 163.898393 
L 93.808955 160.495382 
L 98.135023 166.751651 
L 102.46109 168.862712 
L 106.787158 169.465257 
L 111.113225 167.9011 
L 115.439292 162.754451 
L 119.76536 160.247706 
L 124.091427 157.795459 
L 128.417495 158.926102 
L 132.743562 151.562915 
L 137.06963 155.186552 
L 141.395697 150.627922 
L 145.721764 162.220662 
L 150.047832 163.747111 
L 154.373899 170.122728 
L 158.699967 182.247895 
L 163.026034 179.595568 
L 167.352101 187.569034 
L 171.678169 199.902891 
L 176.004236 199.677892 
L 180.330304 202.950476 
L 184.656371 213.033996 
L 188.982439 201.379733 
L 193.308506 199.245446 
L 197.634573 194.884502 
L 201.960641 194.98538 
L 206.286708 189.046743 
L 210.612776 186.733377 
L 214.938843 181.574284 
L 219.26491 185.54865 
L 223.590978 189.15417 
L 227.917045 187.337657 
L 232.243113 198.231672 
L 236.56918 201.165961 
L 240.895248 208.573567 
L 245.221315 198.066499 
L 249.547382 199.271201 
L 253.87345 196.558535 
L 258.199517 192.641948 
L 262.525585 188.278216 
L 266.851652 180.727283 
L 271.177719 174.910891 
L 275.503787 167.857513 
L 279.829854 161.283201 
L 284.155922 152.330809 
L 288.481989 153.606699 
L 292.808057 155.755165 
L 297.134124 159.397327 
L 301.460191 162.812283 
L 305.786259 159.157394 
L 310.112326 166.919786 
L 314.438394 171.837816 
L 318.764461 175.516614 
L 323.090528 178.879238 
L 327.416596 174.47459 
L 331.742663 168.947005 
L 336.068731 169.853 
L 340.394798 165.360747 
L 344.720866 161.557419 
L 349.046933 157.469712 
L 353.373 161.716584 
L 357.699068 157.35391 
L 362.025135 161.723208 
L 366.351203 159.970724 
L 370.67727 171.359528 
L 375.003337 173.543027 
L 379.329405 177.429736 
L 383.655472 190.412017 
L 387.98154 197.031864 
L 392.307607 198.344517 
L 396.633675 201.065089 
L 400.959742 204.477612 
L 405.285809 197.715838 
L 409.611877 189.196545 
L 413.937944 192.900844 
L 418.264012 188.531881 
L 422.590079 187.758378 
L 426.916146 180.578035 
L 431.242214 184.881941 
L 435.568281 185.024235 
" clip-path="url(#pfda1710976)" style="fill: none; stroke: #cc3311; stroke-width: 2; stroke-linecap: square"/>
   </g>
   <g id="line2d_33">
    <path d="M 50.548281 208.588072 
L 54.874349 205.769316 
L 59.200416 198.610291 
L 63.526483 202.284895 
L 67.852551 201.514113 
L 72.178618 196.682511 
L 76.504686 192.549423 
L 80.830753 197.309101 
L 85.156821 192.691002 
L 89.482888 191.80078 
L 93.808955 192.42977 
L 98.135023 184.717025 
L 102.46109 184.262763 
L 106.787158 181.705915 
L 111.113225 181.040045 
L 115.439292 175.532762 
L 119.76536 174.766816 
L 124.091427 170.554567 
L 128.417495 169.123935 
L 132.743562 165.415083 
L 137.06963 155.323673 
L 141.395697 154.871644 
L 145.721764 148.084002 
L 150.047832 143.533508 
L 154.373899 138.880922 
L 158.699967 133.205075 
L 163.026034 124.589445 
L 167.352101 120.527137 
L 171.678169 113.915166 
L 176.004236 107.219924 
L 180.330304 98.326672 
L 184.656371 93.269673 
L 188.982439 87.903329 
L 193.308506 84.197826 
L 197.634573 80.431099 
L 201.960641 69.771537 
L 206.286708 64.659287 
L 210.612776 62.40964 
L 214.938843 56.416836 
L 219.26491 51.761078 
L 223.590978 47.870413 
L 227.917045 44.220998 
L 232.243113 44.233697 
L 236.56918 36.963976 
L 240.895248 40.757375 
L 245.221315 33.789995 
L 249.547382 32.7369 
L 253.87345 30.260921 
L 258.199517 26.623193 
L 262.525585 26.444135 
L 266.851652 32.241202 
L 271.177719 33.505719 
L 275.503787 28.03066 
L 279.829854 32.575652 
L 284.155922 30.827478 
L 288.481989 29.546043 
L 292.808057 35.945975 
L 297.134124 37.845987 
L 301.460191 33.367056 
L 305.786259 34.801147 
L 310.112326 36.42996 
L 314.438394 36.759764 
L 318.764461 39.767899 
L 323.090528 42.192695 
L 327.416596 40.03771 
L 331.742663 42.723925 
L 336.068731 45.051904 
L 340.394798 40.910158 
L 344.720866 42.873723 
L 349.046933 42.419486 
L 353.373 46.133256 
L 357.699068 45.860634 
L 362.025135 47.056744 
L 366.351203 47.170973 
L 370.67727 45.038416 
L 375.003337 47.55156 
L 379.329405 45.229638 
L 383.655472 45.518011 
L 387.98154 41.937274 
L 392.307607 49.957393 
L 396.633675 45.050294 
L 400.959742 47.572973 
L 405.285809 47.741636 
L 409.611877 51.389439 
L 413.937944 49.58018 
L 418.264012 47.343881 
L 422.590079 49.779451 
L 426.916146 50.03268 
L 431.242214 51.567487 
L 435.568281 49.039091 
" clip-path="url(#pfda1710976)" style="fill: none; stroke: #0077bb; stroke-width: 3; stroke-linecap: square"/>
   </g>
   <g id="patch_3">
    <path d="M 50.548281 241.488 
L 50.548281 8.64 
" style="fill: none; stroke: #808080; stroke-opacity: 0.4; stroke-linejoin: miter; stroke-linecap: square"/>
   </g>
   <g id="patch_4">
    <path d="M 50.548281 241.488 
L 435.568281 241.488 
" style="fill: none; stroke: #808080; stroke-opacity: 0.4; stroke-linejoin: miter; stroke-linecap: square"/>
   </g>
   <g id="text_18">
    <text style="font-size: 8.5px; font-family: 'Helvetica Neue', 'Helvetica', 'Arial', 'DejaVu Sans', sans-serif; text-anchor: end; fill: #aa3377; opacity: 0.9" x="431.718081" y="179.613508" transform="rotate(-0 431.718081 179.613508)">pre-trained Qwen2</text>
   </g>
   <g id="patch_5">
    <path d="M 292.388538 91.367993 
Q 268.435483 67.743948 245.437648 45.062002 
" style="fill: none; stroke: #0077bb; stroke-width: 1.2; stroke-linecap: round"/>
    <path d="M 246.736815 48.871486 
L 245.437648 45.062002 
L 249.264735 46.308359 
z
" style="fill: #0077bb; stroke: #0077bb; stroke-width: 1.2; stroke-linecap: round"/>
   </g>
   <g id="text_19">
    <text style="font-size: 9px; font-family: 'Helvetica Neue', 'Helvetica', 'Arial', 'DejaVu Sans', sans-serif; fill: #0077bb" transform="translate(250.758681 101.198545)">escapes the local optimum</text>
    <text style="font-size: 9px; font-family: 'Helvetica Neue', 'Helvetica', 'Arial', 'DejaVu Sans', sans-serif; fill: #0077bb" transform="translate(250.758681 110.865951)">GRPO stays trapped in</text>
   </g>
   <g id="legend_1">
    <g id="line2d_34">
     <path d="M 334.668281 117.009312 
L 344.668281 117.009312 
L 354.668281 117.009312 
" style="fill: none; stroke: #cc3311; stroke-width: 2; stroke-linecap: square"/>
    </g>
    <g id="text_20">
     <text style="font-size: 10px; font-family: 'Helvetica Neue', 'Helvetica', 'Arial', 'DejaVu Sans', sans-serif; text-anchor: start; fill: currentColor" x="362.668281" y="120.509312" transform="rotate(-0 362.668281 120.509312)">GRPO</text>
    </g>
    <g id="line2d_35">
     <path d="M 334.668281 131.289 
L 344.668281 131.289 
L 354.668281 131.289 
" style="fill: none; stroke: #0077bb; stroke-width: 3; stroke-linecap: square"/>
    </g>
    <g id="text_21">
     <text style="font-size: 10px; font-family: 'Helvetica Neue', 'Helvetica', 'Arial', 'DejaVu Sans', sans-serif; text-anchor: start; fill: currentColor" x="362.668281" y="134.789" transform="rotate(-0 362.668281 134.789)">ADRPO (Ours)</text>
    </g>
   </g>
  </g>
 </g>
 <defs>
  <clipPath id="pfda1710976">
   <rect x="50.548281" y="8.64" width="385.02" height="232.848"/>
  </clipPath>
 </defs>
</svg>
