<svg xmlns:xlink="http://www.w3.org/1999/xlink" viewBox="0 0 474.750938 285.05925" xmlns="http://www.w3.org/2000/svg" version="1.1">
 <metadata>
  <rdf:RDF xmlns:dc="http://purl.org/dc/elements/1.1/" xmlns:cc="http://creativecommons.org/ns#" xmlns:rdf="http://www.w3.org/1999/02/22-rdf-syntax-ns#">
   <cc:Work>
    <dc:type rdf:resource="http://purl.org/dc/dcmitype/StillImage"/>
    <dc:date>2026-07-15T16:12:22.556240</dc:date>
    <dc:format>image/svg+xml</dc:format>
    <dc:creator>
     <cc:Agent>
      <dc:title>Matplotlib v3.10.8, https://matplotlib.org/</dc:title>
     </cc:Agent>
    </dc:creator>
   </cc:Work>
  </rdf:RDF>
 </metadata>
 <defs>
  <style type="text/css">*{stroke-linejoin: round; stroke-linecap: butt}</style>
 </defs>
 <g id="figure_1">
  <g id="patch_1">
   <path d="M 0 285.05925 
L 474.750938 285.05925 
L 474.750938 0 
L 0 0 
L 0 285.05925 
z
" style="fill: none"/>
  </g>
  <g id="axes_1">
   <g id="patch_2">
    <path d="M 44.710938 245.236828 
L 429.730937 245.236828 
L 429.730937 12.388828 
L 44.710938 12.388828 
L 44.710938 245.236828 
z
" style="fill: none"/>
   </g>
   <g id="matplotlib.axis_1">
    <g id="xtick_1">
     <g id="line2d_1">
      <path d="M 44.710938 245.236828 
L 44.710938 12.388828 
" clip-path="url(#p94568dfb5b)" style="fill: none; stroke: #808080; stroke-width: 0.9; stroke-linecap: square"/>
     </g>
     <g id="line2d_2">
      <defs>
       <path id="m71beb215b1" d="M 0 0 
L 0 3.5 
" style="stroke: currentColor; stroke-width: 0.8"/>
      </defs>
      <g>
       <use xlink:href="#m71beb215b1" x="44.710938" y="245.236828" style="fill: currentColor; stroke: currentColor; stroke-width: 0.8"/>
      </g>
     </g>
     <g id="text_1">
      <text style="font-size: 10.5px; font-family: 'Helvetica Neue', 'Helvetica', 'Arial', 'DejaVu Sans', sans-serif; text-anchor: middle; fill: currentColor" x="44.710938" y="259.734484" transform="rotate(-0 44.710938 259.734484)">0.0</text>
     </g>
    </g>
    <g id="xtick_2">
     <g id="line2d_3">
      <path d="M 121.714938 245.236828 
L 121.714938 12.388828 
" clip-path="url(#p94568dfb5b)" style="fill: none; stroke: #808080; stroke-width: 0.9; stroke-linecap: square"/>
     </g>
     <g id="line2d_4">
      <g>
       <use xlink:href="#m71beb215b1" x="121.714938" y="245.236828" style="fill: currentColor; stroke: currentColor; stroke-width: 0.8"/>
      </g>
     </g>
     <g id="text_2">
      <text style="font-size: 10.5px; font-family: 'Helvetica Neue', 'Helvetica', 'Arial', 'DejaVu Sans', sans-serif; text-anchor: middle; fill: currentColor" x="121.714938" y="259.734484" transform="rotate(-0 121.714938 259.734484)">0.2</text>
     </g>
    </g>
    <g id="xtick_3">
     <g id="line2d_5">
      <path d="M 198.718938 245.236828 
L 198.718938 12.388828 
" clip-path="url(#p94568dfb5b)" style="fill: none; stroke: #808080; stroke-width: 0.9; stroke-linecap: square"/>
     </g>
     <g id="line2d_6">
      <g>
       <use xlink:href="#m71beb215b1" x="198.718938" y="245.236828" style="fill: currentColor; stroke: currentColor; stroke-width: 0.8"/>
      </g>
     </g>
     <g id="text_3">
      <text style="font-size: 10.5px; font-family: 'Helvetica Neue', 'Helvetica', 'Arial', 'DejaVu Sans', sans-serif; text-anchor: middle; fill: currentColor" x="198.718938" y="259.734484" transform="rotate(-0 198.718938 259.734484)">0.4</text>
     </g>
    </g>
    <g id="xtick_4">
     <g id="line2d_7">
      <path d="M 275.722938 245.236828 
L 275.722938 12.388828 
" clip-path="url(#p94568dfb5b)" style="fill: none; stroke: #808080; stroke-width: 0.9; stroke-linecap: square"/>
     </g>
     <g id="line2d_8">
      <g>
       <use xlink:href="#m71beb215b1" x="275.722938" y="245.236828" style="fill: currentColor; stroke: currentColor; stroke-width: 0.8"/>
      </g>
     </g>
     <g id="text_4">
      <text style="font-size: 10.5px; font-family: 'Helvetica Neue', 'Helvetica', 'Arial', 'DejaVu Sans', sans-serif; text-anchor: middle; fill: currentColor" x="275.722938" y="259.734484" transform="rotate(-0 275.722938 259.734484)">0.6</text>
     </g>
    </g>
    <g id="xtick_5">
     <g id="line2d_9">
      <path d="M 352.726938 245.236828 
L 352.726938 12.388828 
" clip-path="url(#p94568dfb5b)" style="fill: none; stroke: #808080; stroke-width: 0.9; stroke-linecap: square"/>
     </g>
     <g id="line2d_10">
      <g>
       <use xlink:href="#m71beb215b1" x="352.726938" y="245.236828" style="fill: currentColor; stroke: currentColor; stroke-width: 0.8"/>
      </g>
     </g>
     <g id="text_5">
      <text style="font-size: 10.5px; font-family: 'Helvetica Neue', 'Helvetica', 'Arial', 'DejaVu Sans', sans-serif; text-anchor: middle; fill: currentColor" x="352.726938" y="259.734484" transform="rotate(-0 352.726938 259.734484)">0.8</text>
     </g>
    </g>
    <g id="xtick_6">
     <g id="line2d_11">
      <path d="M 429.730937 245.236828 
L 429.730937 12.388828 
" clip-path="url(#p94568dfb5b)" style="fill: none; stroke: #808080; stroke-width: 0.9; stroke-linecap: square"/>
     </g>
     <g id="line2d_12">
      <g>
       <use xlink:href="#m71beb215b1" x="429.730937" y="245.236828" style="fill: currentColor; stroke: currentColor; stroke-width: 0.8"/>
      </g>
     </g>
     <g id="text_6">
      <text style="font-size: 10.5px; font-family: 'Helvetica Neue', 'Helvetica', 'Arial', 'DejaVu Sans', sans-serif; text-anchor: middle; fill: currentColor" x="429.730937" y="259.734484" transform="rotate(-0 429.730937 259.734484)">1.0</text>
     </g>
    </g>
    <g id="text_7">
     <text style="font-size: 11.5px; font-family: 'Helvetica Neue', 'Helvetica', 'Arial', 'DejaVu Sans', sans-serif; text-anchor: middle; fill: currentColor" x="237.220937" y="274.015031" transform="rotate(-0 237.220937 274.015031)">Training progress</text>
    </g>
   </g>
   <g id="matplotlib.axis_2">
    <g id="ytick_1">
     <g id="line2d_13">
      <path d="M 44.710938 245.236828 
L 429.730937 245.236828 
" clip-path="url(#p94568dfb5b)" style="fill: none; stroke: #808080; stroke-width: 0.9; stroke-linecap: square"/>
     </g>
     <g id="line2d_14">
      <defs>
       <path id="m87a05899a8" d="M 0 0 
L -3.5 0 
" style="stroke: currentColor; stroke-width: 0.8"/>
      </defs>
      <g>
       <use xlink:href="#m87a05899a8" x="44.710938" y="245.236828" style="fill: currentColor; stroke: currentColor; stroke-width: 0.8"/>
      </g>
     </g>
     <g id="text_8">
      <text style="font-size: 10.5px; font-family: 'Helvetica Neue', 'Helvetica', 'Arial', 'DejaVu Sans', sans-serif; text-anchor: end; fill: currentColor" x="37.710938" y="248.985656" transform="rotate(-0 37.710938 248.985656)">0.5</text>
     </g>
    </g>
    <g id="ytick_2">
     <g id="line2d_15">
      <path d="M 44.710938 198.667228 
L 429.730937 198.667228 
" clip-path="url(#p94568dfb5b)" style="fill: none; stroke: #808080; stroke-width: 0.9; stroke-linecap: square"/>
     </g>
     <g id="line2d_16">
      <g>
       <use xlink:href="#m87a05899a8" x="44.710938" y="198.667228" style="fill: currentColor; stroke: currentColor; stroke-width: 0.8"/>
      </g>
     </g>
     <g id="text_9">
      <text style="font-size: 10.5px; font-family: 'Helvetica Neue', 'Helvetica', 'Arial', 'DejaVu Sans', sans-serif; text-anchor: end; fill: currentColor" x="37.710938" y="202.416056" transform="rotate(-0 37.710938 202.416056)">0.6</text>
     </g>
    </g>
    <g id="ytick_3">
     <g id="line2d_17">
      <path d="M 44.710938 152.097628 
L 429.730937 152.097628 
" clip-path="url(#p94568dfb5b)" style="fill: none; stroke: #808080; stroke-width: 0.9; stroke-linecap: square"/>
     </g>
     <g id="line2d_18">
      <g>
       <use xlink:href="#m87a05899a8" x="44.710938" y="152.097628" style="fill: currentColor; stroke: currentColor; stroke-width: 0.8"/>
      </g>
     </g>
     <g id="text_10">
      <text style="font-size: 10.5px; font-family: 'Helvetica Neue', 'Helvetica', 'Arial', 'DejaVu Sans', sans-serif; text-anchor: end; fill: currentColor" x="37.710938" y="155.846456" transform="rotate(-0 37.710938 155.846456)">0.7</text>
     </g>
    </g>
    <g id="ytick_4">
     <g id="line2d_19">
      <path d="M 44.710938 105.528028 
L 429.730937 105.528028 
" clip-path="url(#p94568dfb5b)" style="fill: none; stroke: #808080; stroke-width: 0.9; stroke-linecap: square"/>
     </g>
     <g id="line2d_20">
      <g>
       <use xlink:href="#m87a05899a8" x="44.710938" y="105.528028" style="fill: currentColor; stroke: currentColor; stroke-width: 0.8"/>
      </g>
     </g>
     <g id="text_11">
      <text style="font-size: 10.5px; font-family: 'Helvetica Neue', 'Helvetica', 'Arial', 'DejaVu Sans', sans-serif; text-anchor: end; fill: currentColor" x="37.710938" y="109.276856" transform="rotate(-0 37.710938 109.276856)">0.8</text>
     </g>
    </g>
    <g id="ytick_5">
     <g id="line2d_21">
      <path d="M 44.710938 58.958428 
L 429.730937 58.958428 
" clip-path="url(#p94568dfb5b)" style="fill: none; stroke: #808080; stroke-width: 0.9; stroke-linecap: square"/>
     </g>
     <g id="line2d_22">
      <g>
       <use xlink:href="#m87a05899a8" x="44.710938" y="58.958428" style="fill: currentColor; stroke: currentColor; stroke-width: 0.8"/>
      </g>
     </g>
     <g id="text_12">
      <text style="font-size: 10.5px; font-family: 'Helvetica Neue', 'Helvetica', 'Arial', 'DejaVu Sans', sans-serif; text-anchor: end; fill: currentColor" x="37.710938" y="62.707256" transform="rotate(-0 37.710938 62.707256)">0.9</text>
     </g>
    </g>
    <g id="ytick_6">
     <g id="line2d_23">
      <path d="M 44.710938 12.388828 
L 429.730937 12.388828 
" clip-path="url(#p94568dfb5b)" style="fill: none; stroke: #808080; stroke-width: 0.9; stroke-linecap: square"/>
     </g>
     <g id="line2d_24">
      <g>
       <use xlink:href="#m87a05899a8" x="44.710938" y="12.388828" style="fill: currentColor; stroke: currentColor; stroke-width: 0.8"/>
      </g>
     </g>
     <g id="text_13">
      <text style="font-size: 10.5px; font-family: 'Helvetica Neue', 'Helvetica', 'Arial', 'DejaVu Sans', sans-serif; text-anchor: end; fill: currentColor" x="37.710938" y="16.137656" transform="rotate(-0 37.710938 16.137656)">1.0</text>
     </g>
    </g>
    <g id="text_14">
     <text style="font-size: 11.5px; font-family: 'Helvetica Neue', 'Helvetica', 'Arial', 'DejaVu Sans', sans-serif; text-anchor: middle; fill: currentColor" x="16.851719" y="128.812828" transform="rotate(-90 16.851719 128.812828)">Reward</text>
    </g>
   </g>
   <g id="line2d_25">
    <path d="M 44.710938 221.952028 
L 49.584608 215.493872 
L 54.458279 209.315592 
L 59.33195 203.405058 
L 64.205621 197.750667 
L 69.079292 192.341319 
L 73.952963 187.166394 
L 78.826634 182.215734 
L 83.700305 177.479619 
L 88.573975 172.948751 
L 93.447646 168.614237 
L 98.321317 164.467566 
L 103.194988 160.500598 
L 108.068659 156.705546 
L 112.94233 153.074959 
L 117.816001 149.601709 
L 122.689672 146.278979 
L 127.563343 143.100245 
L 132.437013 140.059267 
L 137.310684 137.150075 
L 142.184355 134.366957 
L 147.058026 131.704451 
L 151.931697 129.157329 
L 156.805368 126.720592 
L 161.679039 124.389454 
L 166.55271 122.15934 
L 171.426381 120.025872 
L 176.300051 117.984861 
L 181.173722 116.032302 
L 186.047393 114.164359 
L 190.921064 112.377367 
L 195.794735 110.667818 
L 200.668406 109.032355 
L 205.542077 107.467767 
L 210.415748 105.970984 
L 215.289419 104.539066 
L 220.163089 103.169203 
L 225.03676 101.858705 
L 229.910431 100.605 
L 234.784102 99.405626 
L 239.657773 98.258229 
L 244.531444 97.160557 
L 249.405115 96.110454 
L 254.278786 95.10586 
L 259.152456 94.144801 
L 264.026127 93.225391 
L 268.899798 92.345825 
L 273.773469 91.504377 
L 278.64714 90.699394 
L 283.520811 89.929297 
L 288.394482 89.192573 
L 293.268153 88.487777 
L 298.141824 87.813524 
L 303.015494 87.168491 
L 307.889165 86.551411 
L 312.762836 85.961074 
L 317.636507 85.39632 
L 322.510178 84.856041 
L 327.383849 84.339175 
L 332.25752 83.844709 
L 337.131191 83.371671 
L 342.004862 82.919134 
L 346.878532 82.486207 
L 351.752203 82.072043 
L 356.625874 81.675827 
L 361.499545 81.296781 
L 366.373216 80.934162 
L 371.246887 80.587258 
L 376.120558 80.255388 
L 380.994229 79.9379 
L 385.8679 79.63417 
L 390.74157 79.343604 
L 395.615241 79.065629 
L 400.488912 78.799701 
L 405.362583 78.545297 
L 410.236254 78.301919 
L 415.109925 78.069088 
L 419.983596 77.846346 
L 424.857267 77.633258 
L 429.730937 77.429404 
" clip-path="url(#p94568dfb5b)" style="fill: none; stroke: #ee7733; stroke-width: 2; stroke-linecap: square"/>
   </g>
   <g id="line2d_26">
    <path d="M 44.710938 221.952028 
L 49.584608 213.978477 
L 54.458279 206.328237 
L 59.33195 199.001315 
L 64.205621 191.996612 
L 69.079292 185.311881 
L 73.952963 178.943692 
L 78.826634 172.887429 
L 83.700305 167.137304 
L 88.573975 161.686389 
L 93.447646 156.526667 
L 98.321317 151.649095 
L 103.194988 147.043687 
L 108.068659 142.699603 
L 112.94233 138.60525 
L 117.816001 134.748396 
L 122.689672 131.11628 
L 127.563343 127.695737 
L 132.437013 124.473315 
L 137.310684 121.435403 
L 142.184355 118.56835 
L 147.058026 115.858582 
L 151.931697 113.292719 
L 156.805368 110.85768 
L 161.679039 108.540786 
L 166.55271 106.329851 
L 171.426381 104.21327 
L 176.300051 102.180086 
L 181.173722 100.22006 
L 186.047393 98.323721 
L 190.921064 96.482407 
L 195.794735 94.688298 
L 200.668406 92.934432 
L 205.542077 91.214718 
L 210.415748 89.523934 
L 215.289419 87.85771 
L 220.163089 86.212515 
L 225.03676 84.585621 
L 229.910431 82.975069 
L 234.784102 81.379624 
L 239.657773 79.798723 
L 244.531444 78.23242 
L 249.405115 76.681325 
L 254.278786 75.14654 
L 259.152456 73.629597 
L 264.026127 72.132383 
L 268.899798 70.65708 
L 273.773469 69.206092 
L 278.64714 67.781983 
L 283.520811 66.387411 
L 288.394482 65.025063 
L 293.268153 63.697604 
L 298.141824 62.407619 
L 303.015494 61.157564 
L 307.889165 59.949719 
L 312.762836 58.786154 
L 317.636507 57.668689 
L 322.510178 56.598871 
L 327.383849 55.577947 
L 332.25752 54.606849 
L 337.131191 53.686181 
L 342.004862 52.816216 
L 346.878532 51.996891 
L 351.752203 51.227815 
L 356.625874 50.508275 
L 361.499545 49.83725 
L 366.373216 49.213431 
L 371.246887 48.635236 
L 376.120558 48.100838 
L 380.994229 47.608187 
L 385.8679 47.155042 
L 390.74157 46.739 
L 395.615241 46.357523 
L 400.488912 46.007973 
L 405.362583 45.687641 
L 410.236254 45.39378 
L 415.109925 45.123634 
L 419.983596 44.874469 
L 424.857267 44.643597 
L 429.730937 44.428407 
" clip-path="url(#p94568dfb5b)" style="fill: none; stroke: #0077bb; stroke-width: 3; stroke-linecap: square"/>
   </g>
   <g id="patch_3">
    <path d="M 44.710938 245.236828 
L 44.710938 12.388828 
" style="fill: none; stroke: #808080; stroke-opacity: 0.4; stroke-linejoin: miter; stroke-linecap: square"/>
   </g>
   <g id="patch_4">
    <path d="M 44.710938 245.236828 
L 429.730937 245.236828 
" style="fill: none; stroke: #808080; stroke-opacity: 0.4; stroke-linejoin: miter; stroke-linecap: square"/>
   </g>
   <g id="legend_1">
    <g id="line2d_27">
     <path d="M 324.362578 107.656031 
L 333.862578 107.656031 
L 343.362578 107.656031 
" style="fill: none; stroke: #ee7733; stroke-width: 2; stroke-linecap: square"/>
    </g>
    <g id="text_15">
     <text style="font-size: 9.5px; font-family: 'Helvetica Neue', 'Helvetica', 'Arial', 'DejaVu Sans', sans-serif; text-anchor: start; fill: currentColor" x="350.962578" y="110.981031" transform="rotate(-0 350.962578 110.981031)">Fixed-β  reward</text>
    </g>
    <g id="line2d_28">
     <path d="M 324.362578 121.070328 
L 333.862578 121.070328 
L 343.362578 121.070328 
" style="fill: none; stroke: #0077bb; stroke-width: 3; stroke-linecap: square"/>
    </g>
    <g id="text_16">
     <text style="font-size: 9.5px; font-family: 'Helvetica Neue', 'Helvetica', 'Arial', 'DejaVu Sans', sans-serif; text-anchor: start; fill: currentColor" x="350.962578" y="124.395328" transform="rotate(-0 350.962578 124.395328)">ADRPO  reward</text>
    </g>
    <g id="line2d_29">
     <path d="M 324.362578 134.636031 
L 333.862578 134.636031 
L 343.362578 134.636031 
" style="fill: none; stroke-dasharray: 8,4; stroke-dashoffset: 0; stroke: #ee7733; stroke-width: 2"/>
    </g>
    <g id="text_17">
     <text style="font-size: 9.5px; font-family: 'Helvetica Neue', 'Helvetica', 'Arial', 'DejaVu Sans', sans-serif; text-anchor: start; fill: currentColor" x="350.962578" y="137.961031" transform="rotate(-0 350.962578 137.961031)">Fixed-β  entropy</text>
    </g>
    <g id="line2d_30">
     <path d="M 324.362578 148.296734 
L 333.862578 148.296734 
L 343.362578 148.296734 
" style="fill: none; stroke-dasharray: 9.6,4.8; stroke-dashoffset: 0; stroke: #0077bb; stroke-width: 2.4"/>
    </g>
    <g id="text_18">
     <text style="font-size: 9.5px; font-family: 'Helvetica Neue', 'Helvetica', 'Arial', 'DejaVu Sans', sans-serif; text-anchor: start; fill: currentColor" x="350.962578" y="151.621734" transform="rotate(-0 350.962578 151.621734)">ADRPO  entropy</text>
    </g>
   </g>
  </g>
  <g id="axes_2">
   <g id="matplotlib.axis_3">
    <g id="ytick_7">
     <g id="line2d_31">
      <defs>
       <path id="m8ff0c102c8" d="M 0 0 
L 3.5 0 
" style="stroke: currentColor; stroke-width: 0.8"/>
      </defs>
      <g>
       <use xlink:href="#m8ff0c102c8" x="429.730937" y="245.236828" style="fill: currentColor; stroke: currentColor; stroke-width: 0.8"/>
      </g>
     </g>
     <g id="text_19">
      <text style="font-size: 10.5px; font-family: 'Helvetica Neue', 'Helvetica', 'Arial', 'DejaVu Sans', sans-serif; text-anchor: start; fill: currentColor" x="436.730937" y="248.985656" transform="rotate(-0 436.730937 248.985656)">0.0</text>
     </g>
    </g>
    <g id="ytick_8">
     <g id="line2d_32">
      <g>
       <use xlink:href="#m8ff0c102c8" x="429.730937" y="219.364828" style="fill: currentColor; stroke: currentColor; stroke-width: 0.8"/>
      </g>
     </g>
     <g id="text_20">
      <text style="font-size: 10.5px; font-family: 'Helvetica Neue', 'Helvetica', 'Arial', 'DejaVu Sans', sans-serif; text-anchor: start; fill: currentColor" x="436.730937" y="223.113656" transform="rotate(-0 436.730937 223.113656)">0.1</text>
     </g>
    </g>
    <g id="ytick_9">
     <g id="line2d_33">
      <g>
       <use xlink:href="#m8ff0c102c8" x="429.730937" y="193.492828" style="fill: currentColor; stroke: currentColor; stroke-width: 0.8"/>
      </g>
     </g>
     <g id="text_21">
      <text style="font-size: 10.5px; font-family: 'Helvetica Neue', 'Helvetica', 'Arial', 'DejaVu Sans', sans-serif; text-anchor: start; fill: currentColor" x="436.730937" y="197.241656" transform="rotate(-0 436.730937 197.241656)">0.2</text>
     </g>
    </g>
    <g id="ytick_10">
     <g id="line2d_34">
      <g>
       <use xlink:href="#m8ff0c102c8" x="429.730937" y="167.620828" style="fill: currentColor; stroke: currentColor; stroke-width: 0.8"/>
      </g>
     </g>
     <g id="text_22">
      <text style="font-size: 10.5px; font-family: 'Helvetica Neue', 'Helvetica', 'Arial', 'DejaVu Sans', sans-serif; text-anchor: start; fill: currentColor" x="436.730937" y="171.369656" transform="rotate(-0 436.730937 171.369656)">0.3</text>
     </g>
    </g>
    <g id="ytick_11">
     <g id="line2d_35">
      <g>
       <use xlink:href="#m8ff0c102c8" x="429.730937" y="141.748828" style="fill: currentColor; stroke: currentColor; stroke-width: 0.8"/>
      </g>
     </g>
     <g id="text_23">
      <text style="font-size: 10.5px; font-family: 'Helvetica Neue', 'Helvetica', 'Arial', 'DejaVu Sans', sans-serif; text-anchor: start; fill: currentColor" x="436.730937" y="145.497656" transform="rotate(-0 436.730937 145.497656)">0.4</text>
     </g>
    </g>
    <g id="ytick_12">
     <g id="line2d_36">
      <g>
       <use xlink:href="#m8ff0c102c8" x="429.730937" y="115.876828" style="fill: currentColor; stroke: currentColor; stroke-width: 0.8"/>
      </g>
     </g>
     <g id="text_24">
      <text style="font-size: 10.5px; font-family: 'Helvetica Neue', 'Helvetica', 'Arial', 'DejaVu Sans', sans-serif; text-anchor: start; fill: currentColor" x="436.730937" y="119.625656" transform="rotate(-0 436.730937 119.625656)">0.5</text>
     </g>
    </g>
    <g id="ytick_13">
     <g id="line2d_37">
      <g>
       <use xlink:href="#m8ff0c102c8" x="429.730937" y="90.004828" style="fill: currentColor; stroke: currentColor; stroke-width: 0.8"/>
      </g>
     </g>
     <g id="text_25">
      <text style="font-size: 10.5px; font-family: 'Helvetica Neue', 'Helvetica', 'Arial', 'DejaVu Sans', sans-serif; text-anchor: start; fill: currentColor" x="436.730937" y="93.753656" transform="rotate(-0 436.730937 93.753656)">0.6</text>
     </g>
    </g>
    <g id="ytick_14">
     <g id="line2d_38">
      <g>
       <use xlink:href="#m8ff0c102c8" x="429.730937" y="64.132828" style="fill: currentColor; stroke: currentColor; stroke-width: 0.8"/>
      </g>
     </g>
     <g id="text_26">
      <text style="font-size: 10.5px; font-family: 'Helvetica Neue', 'Helvetica', 'Arial', 'DejaVu Sans', sans-serif; text-anchor: start; fill: currentColor" x="436.730937" y="67.881656" transform="rotate(-0 436.730937 67.881656)">0.7</text>
     </g>
    </g>
    <g id="ytick_15">
     <g id="line2d_39">
      <g>
       <use xlink:href="#m8ff0c102c8" x="429.730937" y="38.260828" style="fill: currentColor; stroke: currentColor; stroke-width: 0.8"/>
      </g>
     </g>
     <g id="text_27">
      <text style="font-size: 10.5px; font-family: 'Helvetica Neue', 'Helvetica', 'Arial', 'DejaVu Sans', sans-serif; text-anchor: start; fill: currentColor" x="436.730937" y="42.009656" transform="rotate(-0 436.730937 42.009656)">0.8</text>
     </g>
    </g>
    <g id="ytick_16">
     <g id="line2d_40">
      <g>
       <use xlink:href="#m8ff0c102c8" x="429.730937" y="12.388828" style="fill: currentColor; stroke: currentColor; stroke-width: 0.8"/>
      </g>
     </g>
     <g id="text_28">
      <text style="font-size: 10.5px; font-family: 'Helvetica Neue', 'Helvetica', 'Arial', 'DejaVu Sans', sans-serif; text-anchor: start; fill: currentColor" x="436.730937" y="16.137656" transform="rotate(-0 436.730937 16.137656)">0.9</text>
     </g>
    </g>
    <g id="text_29">
     <text style="font-size: 11.5px; font-family: 'Helvetica Neue', 'Helvetica', 'Arial', 'DejaVu Sans', sans-serif; text-anchor: middle; fill: currentColor" x="463.730078" y="128.812828" transform="rotate(-90 463.730078 128.812828)">Policy entropy  (diversity)</text>
    </g>
   </g>
   <g id="line2d_41">
    <path d="M 44.710938 17.563228 
L 49.584608 24.431747 
L 54.458279 31.077893 
L 59.33195 37.508865 
L 64.205621 43.731629 
L 69.079292 49.752928 
L 73.952963 55.579282 
L 78.826634 61.217005 
L 83.700305 66.672202 
L 88.573975 71.950783 
L 93.447646 77.058466 
L 98.321317 82.000785 
L 103.194988 86.783092 
L 108.068659 91.410569 
L 112.94233 95.888228 
L 117.816001 100.22092 
L 122.689672 104.413338 
L 127.563343 108.470023 
L 132.437013 112.39537 
L 137.310684 116.193632 
L 142.184355 119.868922 
L 147.058026 123.425222 
L 151.931697 126.866384 
L 156.805368 130.196136 
L 161.679039 133.418085 
L 166.55271 136.535721 
L 171.426381 139.552421 
L 176.300051 142.471454 
L 181.173722 145.295981 
L 186.047393 148.029062 
L 190.921064 150.673657 
L 195.794735 153.232632 
L 200.668406 155.708758 
L 205.542077 158.104718 
L 210.415748 160.423107 
L 215.289419 162.666437 
L 220.163089 164.837137 
L 225.03676 166.937559 
L 229.910431 168.969978 
L 234.784102 170.936597 
L 239.657773 172.839545 
L 244.531444 174.680883 
L 249.405115 176.462607 
L 254.278786 178.186647 
L 259.152456 179.854869 
L 264.026127 181.469081 
L 268.899798 183.031033 
L 273.773469 184.542415 
L 278.64714 186.004865 
L 283.520811 187.419967 
L 288.394482 188.789254 
L 293.268153 190.114209 
L 298.141824 191.396268 
L 303.015494 192.63682 
L 307.889165 193.837208 
L 312.762836 194.998732 
L 317.636507 196.122651 
L 322.510178 197.210183 
L 327.383849 198.262505 
L 332.25752 199.280757 
L 337.131191 200.266043 
L 342.004862 201.219429 
L 346.878532 202.141949 
L 351.752203 203.034602 
L 356.625874 203.898354 
L 361.499545 204.734142 
L 366.373216 205.54287 
L 371.246887 206.325415 
L 376.120558 207.082625 
L 380.994229 207.81532 
L 385.8679 208.524293 
L 390.74157 209.210313 
L 395.615241 209.874122 
L 400.488912 210.51644 
L 405.362583 211.137963 
L 410.236254 211.739363 
L 415.109925 212.321292 
L 419.983596 212.884382 
L 424.857267 213.42924 
L 429.730937 213.956459 
" clip-path="url(#p94568dfb5b)" style="fill: none; stroke-dasharray: 8,4; stroke-dashoffset: 0; stroke: #ee7733; stroke-width: 2"/>
   </g>
   <g id="line2d_42">
    <path d="M 44.710938 25.324828 
L 49.584608 26.580109 
L 54.458279 27.824317 
L 59.33195 29.057548 
L 64.205621 30.279901 
L 69.079292 31.49147 
L 73.952963 32.692351 
L 78.826634 33.882639 
L 83.700305 35.062426 
L 88.573975 36.231806 
L 93.447646 37.39087 
L 98.321317 38.539709 
L 103.194988 39.678413 
L 108.068659 40.807072 
L 112.94233 41.925775 
L 117.816001 43.034609 
L 122.689672 44.133661 
L 127.563343 45.223017 
L 132.437013 46.302764 
L 137.310684 47.372986 
L 142.184355 48.433767 
L 147.058026 49.485189 
L 151.931697 50.527337 
L 156.805368 51.560291 
L 161.679039 52.584133 
L 166.55271 53.598943 
L 171.426381 54.6048 
L 176.300051 55.601785 
L 181.173722 56.589974 
L 186.047393 57.569446 
L 190.921064 58.540277 
L 195.794735 59.502544 
L 200.668406 60.456322 
L 205.542077 61.401687 
L 210.415748 62.338711 
L 215.289419 63.26747 
L 220.163089 64.188036 
L 225.03676 65.10048 
L 229.910431 66.004876 
L 234.784102 66.901293 
L 239.657773 67.789802 
L 244.531444 68.670474 
L 249.405115 69.543376 
L 254.278786 70.408578 
L 259.152456 71.266147 
L 264.026127 72.116151 
L 268.899798 72.958657 
L 273.773469 73.793731 
L 278.64714 74.621438 
L 283.520811 75.441843 
L 288.394482 76.255011 
L 293.268153 77.061005 
L 298.141824 77.859889 
L 303.015494 78.651726 
L 307.889165 79.436578 
L 312.762836 80.214505 
L 317.636507 80.985571 
L 322.510178 81.749834 
L 327.383849 82.507355 
L 332.25752 83.258194 
L 337.131191 84.002409 
L 342.004862 84.740058 
L 346.878532 85.471201 
L 351.752203 86.195894 
L 356.625874 86.914193 
L 361.499545 87.626156 
L 366.373216 88.331839 
L 371.246887 89.031296 
L 376.120558 89.724583 
L 380.994229 90.411754 
L 385.8679 91.092863 
L 390.74157 91.767964 
L 395.615241 92.437109 
L 400.488912 93.100351 
L 405.362583 93.757742 
L 410.236254 94.409334 
L 415.109925 95.055178 
L 419.983596 95.695324 
L 424.857267 96.329824 
L 429.730937 96.958726 
" clip-path="url(#p94568dfb5b)" style="fill: none; stroke-dasharray: 9.6,4.8; stroke-dashoffset: 0; stroke: #0077bb; stroke-width: 2.4"/>
   </g>
   <g id="patch_5">
    <path d="M 44.710938 245.236828 
L 44.710938 12.388828 
" style="fill: none; stroke: #808080; stroke-opacity: 0.4; stroke-linejoin: miter; stroke-linecap: square"/>
   </g>
   <g id="patch_6">
    <path d="M 44.710938 245.236828 
L 429.730937 245.236828 
" style="fill: none; stroke: #808080; stroke-opacity: 0.4; stroke-linejoin: miter; stroke-linecap: square"/>
   </g>
  </g>
 </g>
 <defs>
  <clipPath id="p94568dfb5b">
   <rect x="44.710938" y="12.388828" width="385.02" height="232.848"/>
  </clipPath>
 </defs>
</svg>
