<svg xmlns:xlink="http://www.w3.org/1999/xlink" viewBox="0 0 427.468281 281.402063" xmlns="http://www.w3.org/2000/svg" version="1.1">
 <metadata>
  <rdf:RDF xmlns:dc="http://purl.org/dc/elements/1.1/" xmlns:cc="http://creativecommons.org/ns#" xmlns:rdf="http://www.w3.org/1999/02/22-rdf-syntax-ns#">
   <cc:Work>
    <dc:type rdf:resource="http://purl.org/dc/dcmitype/StillImage"/>
    <dc:date>2026-07-15T16:12:22.491638</dc:date>
    <dc:format>image/svg+xml</dc:format>
    <dc:creator>
     <cc:Agent>
      <dc:title>Matplotlib v3.10.8, https://matplotlib.org/</dc:title>
     </cc:Agent>
    </dc:creator>
   </cc:Work>
  </rdf:RDF>
 </metadata>
 <defs>
  <style type="text/css">*{stroke-linejoin: round; stroke-linecap: butt}</style>
 </defs>
 <g id="figure_1">
  <g id="patch_1">
   <path d="M 0 281.402063 
L 427.468281 281.402063 
L 427.468281 0 
L 0 0 
L 0 281.402063 
z
" style="fill: none"/>
  </g>
  <g id="axes_1">
   <g id="patch_2">
    <path d="M 44.710938 241.488 
L 412.990938 241.488 
L 412.990938 8.64 
L 44.710938 8.64 
L 44.710938 241.488 
z
" style="fill: none"/>
   </g>
   <g id="matplotlib.axis_1">
    <g id="xtick_1">
     <g id="line2d_1">
      <path d="M 44.710938 241.488 
L 44.710938 8.64 
" clip-path="url(#pf3261bb740)" style="fill: none; stroke: #808080; stroke-width: 0.9; stroke-linecap: square"/>
     </g>
     <g id="line2d_2">
      <defs>
       <path id="me008437607" d="M 0 0 
L 0 3.5 
" style="stroke: currentColor; stroke-width: 0.8"/>
      </defs>
      <g>
       <use xlink:href="#me008437607" x="44.710938" y="241.488" style="fill: currentColor; stroke: currentColor; stroke-width: 0.8"/>
      </g>
     </g>
     <g id="text_1">
      <text style="font-size: 10.5px; font-family: 'Helvetica Neue', 'Helvetica', 'Arial', 'DejaVu Sans', sans-serif; text-anchor: middle; fill: currentColor" x="44.710938" y="255.985656" transform="rotate(-0 44.710938 255.985656)">0</text>
     </g>
    </g>
    <g id="xtick_2">
     <g id="line2d_3">
      <path d="M 106.090938 241.488 
L 106.090938 8.64 
" clip-path="url(#pf3261bb740)" style="fill: none; stroke: #808080; stroke-width: 0.9; stroke-linecap: square"/>
     </g>
     <g id="line2d_4">
      <g>
       <use xlink:href="#me008437607" x="106.090938" y="241.488" style="fill: currentColor; stroke: currentColor; stroke-width: 0.8"/>
      </g>
     </g>
     <g id="text_2">
      <text style="font-size: 10.5px; font-family: 'Helvetica Neue', 'Helvetica', 'Arial', 'DejaVu Sans', sans-serif; text-anchor: middle; fill: currentColor" x="106.090938" y="255.985656" transform="rotate(-0 106.090938 255.985656)">5</text>
     </g>
    </g>
    <g id="xtick_3">
     <g id="line2d_5">
      <path d="M 167.470938 241.488 
L 167.470938 8.64 
" clip-path="url(#pf3261bb740)" style="fill: none; stroke: #808080; stroke-width: 0.9; stroke-linecap: square"/>
     </g>
     <g id="line2d_6">
      <g>
       <use xlink:href="#me008437607" x="167.470938" y="241.488" style="fill: currentColor; stroke: currentColor; stroke-width: 0.8"/>
      </g>
     </g>
     <g id="text_3">
      <text style="font-size: 10.5px; font-family: 'Helvetica Neue', 'Helvetica', 'Arial', 'DejaVu Sans', sans-serif; text-anchor: middle; fill: currentColor" x="167.470938" y="255.985656" transform="rotate(-0 167.470938 255.985656)">10</text>
     </g>
    </g>
    <g id="xtick_4">
     <g id="line2d_7">
      <path d="M 228.850938 241.488 
L 228.850938 8.64 
" clip-path="url(#pf3261bb740)" style="fill: none; stroke: #808080; stroke-width: 0.9; stroke-linecap: square"/>
     </g>
     <g id="line2d_8">
      <g>
       <use xlink:href="#me008437607" x="228.850938" y="241.488" style="fill: currentColor; stroke: currentColor; stroke-width: 0.8"/>
      </g>
     </g>
     <g id="text_4">
      <text style="font-size: 10.5px; font-family: 'Helvetica Neue', 'Helvetica', 'Arial', 'DejaVu Sans', sans-serif; text-anchor: middle; fill: currentColor" x="228.850938" y="255.985656" transform="rotate(-0 228.850938 255.985656)">15</text>
     </g>
    </g>
    <g id="xtick_5">
     <g id="line2d_9">
      <path d="M 290.230938 241.488 
L 290.230938 8.64 
" clip-path="url(#pf3261bb740)" style="fill: none; stroke: #808080; stroke-width: 0.9; stroke-linecap: square"/>
     </g>
     <g id="line2d_10">
      <g>
       <use xlink:href="#me008437607" x="290.230938" y="241.488" style="fill: currentColor; stroke: currentColor; stroke-width: 0.8"/>
      </g>
     </g>
     <g id="text_5">
      <text style="font-size: 10.5px; font-family: 'Helvetica Neue', 'Helvetica', 'Arial', 'DejaVu Sans', sans-serif; text-anchor: middle; fill: currentColor" x="290.230938" y="255.985656" transform="rotate(-0 290.230938 255.985656)">20</text>
     </g>
    </g>
    <g id="xtick_6">
     <g id="line2d_11">
      <path d="M 351.610938 241.488 
L 351.610938 8.64 
" clip-path="url(#pf3261bb740)" style="fill: none; stroke: #808080; stroke-width: 0.9; stroke-linecap: square"/>
     </g>
     <g id="line2d_12">
      <g>
       <use xlink:href="#me008437607" x="351.610938" y="241.488" style="fill: currentColor; stroke: currentColor; stroke-width: 0.8"/>
      </g>
     </g>
     <g id="text_6">
      <text style="font-size: 10.5px; font-family: 'Helvetica Neue', 'Helvetica', 'Arial', 'DejaVu Sans', sans-serif; text-anchor: middle; fill: currentColor" x="351.610938" y="255.985656" transform="rotate(-0 351.610938 255.985656)">25</text>
     </g>
    </g>
    <g id="xtick_7">
     <g id="line2d_13">
      <path d="M 412.990938 241.488 
L 412.990938 8.64 
" clip-path="url(#pf3261bb740)" style="fill: none; stroke: #808080; stroke-width: 0.9; stroke-linecap: square"/>
     </g>
     <g id="line2d_14">
      <g>
       <use xlink:href="#me008437607" x="412.990938" y="241.488" style="fill: currentColor; stroke: currentColor; stroke-width: 0.8"/>
      </g>
     </g>
     <g id="text_7">
      <text style="font-size: 10.5px; font-family: 'Helvetica Neue', 'Helvetica', 'Arial', 'DejaVu Sans', sans-serif; text-anchor: middle; fill: currentColor" x="412.990938" y="255.985656" transform="rotate(-0 412.990938 255.985656)">30</text>
     </g>
    </g>
    <g id="text_8">
     <text style="font-size: 11.5px; font-family: 'Helvetica Neue', 'Helvetica', 'Arial', 'DejaVu Sans', sans-serif; text-anchor: middle; fill: currentColor" x="228.850938" y="270.357844" transform="rotate(-0 228.850938 270.357844)">KL divergence from reference</text>
    </g>
   </g>
   <g id="matplotlib.axis_2">
    <g id="ytick_1">
     <g id="line2d_15">
      <path d="M 44.710938 241.488 
L 412.990938 241.488 
" clip-path="url(#pf3261bb740)" style="fill: none; stroke: #808080; stroke-width: 0.9; stroke-linecap: square"/>
     </g>
     <g id="line2d_16">
      <defs>
       <path id="mae44ea73e9" d="M 0 0 
L -3.5 0 
" style="stroke: currentColor; stroke-width: 0.8"/>
      </defs>
      <g>
       <use xlink:href="#mae44ea73e9" x="44.710938" y="241.488" style="fill: currentColor; stroke: currentColor; stroke-width: 0.8"/>
      </g>
     </g>
     <g id="text_9">
      <text style="font-size: 10.5px; font-family: 'Helvetica Neue', 'Helvetica', 'Arial', 'DejaVu Sans', sans-serif; text-anchor: end; fill: currentColor" x="37.710938" y="245.236828" transform="rotate(-0 37.710938 245.236828)">0.0</text>
     </g>
    </g>
    <g id="ytick_2">
     <g id="line2d_17">
      <path d="M 44.710938 195.831529 
L 412.990938 195.831529 
" clip-path="url(#pf3261bb740)" style="fill: none; stroke: #808080; stroke-width: 0.9; stroke-linecap: square"/>
     </g>
     <g id="line2d_18">
      <g>
       <use xlink:href="#mae44ea73e9" x="44.710938" y="195.831529" style="fill: currentColor; stroke: currentColor; stroke-width: 0.8"/>
      </g>
     </g>
     <g id="text_10">
      <text style="font-size: 10.5px; font-family: 'Helvetica Neue', 'Helvetica', 'Arial', 'DejaVu Sans', sans-serif; text-anchor: end; fill: currentColor" x="37.710938" y="199.580358" transform="rotate(-0 37.710938 199.580358)">0.2</text>
     </g>
    </g>
    <g id="ytick_3">
     <g id="line2d_19">
      <path d="M 44.710938 150.175059 
L 412.990938 150.175059 
" clip-path="url(#pf3261bb740)" style="fill: none; stroke: #808080; stroke-width: 0.9; stroke-linecap: square"/>
     </g>
     <g id="line2d_20">
      <g>
       <use xlink:href="#mae44ea73e9" x="44.710938" y="150.175059" style="fill: currentColor; stroke: currentColor; stroke-width: 0.8"/>
      </g>
     </g>
     <g id="text_11">
      <text style="font-size: 10.5px; font-family: 'Helvetica Neue', 'Helvetica', 'Arial', 'DejaVu Sans', sans-serif; text-anchor: end; fill: currentColor" x="37.710938" y="153.923887" transform="rotate(-0 37.710938 153.923887)">0.4</text>
     </g>
    </g>
    <g id="ytick_4">
     <g id="line2d_21">
      <path d="M 44.710938 104.518588 
L 412.990938 104.518588 
" clip-path="url(#pf3261bb740)" style="fill: none; stroke: #808080; stroke-width: 0.9; stroke-linecap: square"/>
     </g>
     <g id="line2d_22">
      <g>
       <use xlink:href="#mae44ea73e9" x="44.710938" y="104.518588" style="fill: currentColor; stroke: currentColor; stroke-width: 0.8"/>
      </g>
     </g>
     <g id="text_12">
      <text style="font-size: 10.5px; font-family: 'Helvetica Neue', 'Helvetica', 'Arial', 'DejaVu Sans', sans-serif; text-anchor: end; fill: currentColor" x="37.710938" y="108.267416" transform="rotate(-0 37.710938 108.267416)">0.6</text>
     </g>
    </g>
    <g id="ytick_5">
     <g id="line2d_23">
      <path d="M 44.710938 58.862118 
L 412.990938 58.862118 
" clip-path="url(#pf3261bb740)" style="fill: none; stroke: #808080; stroke-width: 0.9; stroke-linecap: square"/>
     </g>
     <g id="line2d_24">
      <g>
       <use xlink:href="#mae44ea73e9" x="44.710938" y="58.862118" style="fill: currentColor; stroke: currentColor; stroke-width: 0.8"/>
      </g>
     </g>
     <g id="text_13">
      <text style="font-size: 10.5px; font-family: 'Helvetica Neue', 'Helvetica', 'Arial', 'DejaVu Sans', sans-serif; text-anchor: end; fill: currentColor" x="37.710938" y="62.610946" transform="rotate(-0 37.710938 62.610946)">0.8</text>
     </g>
    </g>
    <g id="ytick_6">
     <g id="line2d_25">
      <path d="M 44.710938 13.205647 
L 412.990938 13.205647 
" clip-path="url(#pf3261bb740)" style="fill: none; stroke: #808080; stroke-width: 0.9; stroke-linecap: square"/>
     </g>
     <g id="line2d_26">
      <g>
       <use xlink:href="#mae44ea73e9" x="44.710938" y="13.205647" style="fill: currentColor; stroke: currentColor; stroke-width: 0.8"/>
      </g>
     </g>
     <g id="text_14">
      <text style="font-size: 10.5px; font-family: 'Helvetica Neue', 'Helvetica', 'Arial', 'DejaVu Sans', sans-serif; text-anchor: end; fill: currentColor" x="37.710938" y="16.954475" transform="rotate(-0 37.710938 16.954475)">1.0</text>
     </g>
    </g>
    <g id="text_15">
     <text style="font-size: 11.5px; font-family: 'Helvetica Neue', 'Helvetica', 'Arial', 'DejaVu Sans', sans-serif; text-anchor: middle; fill: currentColor" x="16.851719" y="125.064" transform="rotate(-90 16.851719 125.064)">Reward</text>
    </g>
   </g>
   <g id="line2d_27">
    <path d="M 44.710938 36.033882 
L 412.990938 36.033882 
" clip-path="url(#pf3261bb740)" style="fill: none; stroke-dasharray: 4.4,3.3; stroke-dashoffset: 0; stroke: #808080; stroke-opacity: 0.4; stroke-width: 1.1"/>
   </g>
   <g id="patch_3">
    <path d="M 44.710938 241.488 
L 44.710938 8.64 
" style="fill: none; stroke: #808080; stroke-opacity: 0.4; stroke-linejoin: miter; stroke-linecap: square"/>
   </g>
   <g id="patch_4">
    <path d="M 44.710938 241.488 
L 412.990938 241.488 
" style="fill: none; stroke: #808080; stroke-opacity: 0.4; stroke-linejoin: miter; stroke-linecap: square"/>
   </g>
   <g id="line2d_28">
    <path d="M 44.710938 241.488 
L 49.37271 234.206401 
L 54.034482 227.17189 
L 58.696254 220.376084 
L 63.358026 213.810882 
L 68.019798 207.46846 
L 72.68157 201.341257 
L 77.343343 195.421971 
L 82.005115 189.703545 
L 86.666887 184.179165 
L 91.328659 178.842246 
L 95.990431 173.686426 
L 100.652203 168.70556 
L 105.313975 163.893712 
L 109.975748 159.245146 
L 114.63752 154.754321 
L 119.299292 150.415885 
L 123.961064 146.224666 
L 128.622836 142.17567 
L 133.284608 138.264069 
L 137.946381 134.485203 
L 142.608153 130.834565 
L 147.269925 127.307806 
L 151.931697 123.900722 
L 156.593469 120.609251 
L 161.255241 117.429472 
L 165.917013 114.357592 
L 170.578786 111.389952 
L 175.240558 108.523014 
L 179.90233 105.75336 
L 184.564102 103.07769 
L 189.225874 100.492815 
L 193.887646 97.995652 
L 198.549419 95.583227 
L 203.211191 93.252664 
L 207.872963 91.001184 
L 212.534735 88.826105 
L 217.196507 86.724833 
L 221.858279 84.694865 
L 226.520051 82.73378 
L 231.181824 80.839241 
L 235.843596 79.008991 
L 240.505368 77.240846 
L 245.16714 75.532701 
L 249.828912 73.882519 
L 254.490684 72.288333 
L 259.152456 70.748243 
L 263.814229 69.260414 
L 268.476001 67.823071 
L 273.137773 66.434503 
L 277.799545 65.093053 
L 282.461317 63.797123 
L 287.123089 62.545168 
L 291.784862 61.335697 
L 296.446634 60.167266 
L 301.108406 59.038485 
L 305.770178 57.948006 
L 310.43195 56.894532 
L 315.093722 55.876805 
L 319.755494 54.893613 
L 324.417267 53.943784 
L 329.079039 53.026186 
L 333.740811 52.139725 
L 338.402583 51.283345 
L 343.064355 50.456024 
L 347.726127 49.656778 
L 352.3879 48.884652 
L 357.049672 48.138727 
L 361.711444 47.418114 
L 366.373216 46.721954 
L 371.034988 46.049417 
L 375.69676 45.399701 
L 380.358532 44.772032 
L 385.020305 44.165662 
L 389.682077 43.579868 
L 394.343849 43.013953 
L 399.005621 42.46724 
L 403.667393 41.93908 
L 408.329165 41.428841 
L 412.990938 40.935917 
" clip-path="url(#pf3261bb740)" style="fill: none; stroke: #cc3311; stroke-width: 1.9; stroke-linecap: square"/>
   </g>
   <g id="line2d_29">
    <path d="M 44.710938 241.488 
L 49.37271 230.735568 
L 54.034482 220.593323 
L 58.696254 211.026638 
L 63.358026 202.00285 
L 68.019798 193.491151 
L 72.68157 185.462481 
L 77.343343 177.889427 
L 82.005115 170.746134 
L 86.666887 164.008214 
L 91.328659 157.652663 
L 95.990431 151.657782 
L 100.652203 146.003102 
L 105.313975 140.669318 
L 109.975748 135.63822 
L 114.63752 130.892631 
L 119.299292 126.416347 
L 123.961064 122.194087 
L 128.622836 118.211435 
L 133.284608 114.454794 
L 137.946381 110.911337 
L 142.608153 107.568967 
L 147.269925 104.416272 
L 151.931697 101.442489 
L 156.593469 98.637464 
L 161.255241 95.991621 
L 165.917013 93.495926 
L 170.578786 91.141859 
L 175.240558 88.921382 
L 179.90233 86.826915 
L 184.564102 84.851305 
L 189.225874 82.987809 
L 193.887646 81.230065 
L 198.549419 79.572069 
L 203.211191 78.008164 
L 207.872963 76.533007 
L 212.534735 75.141564 
L 217.196507 73.829084 
L 221.858279 72.591085 
L 226.520051 71.423342 
L 231.181824 70.321866 
L 235.843596 69.282897 
L 240.505368 68.302889 
L 245.16714 67.378495 
L 249.828912 66.506559 
L 254.490684 65.684105 
L 259.152456 64.908323 
L 263.814229 64.176567 
L 268.476001 63.486336 
L 273.137773 62.835275 
L 277.799545 62.221162 
L 282.461317 61.641898 
L 287.123089 61.095507 
L 291.784862 60.580123 
L 296.446634 60.093986 
L 301.108406 59.635437 
L 305.770178 59.20291 
L 310.43195 58.794928 
L 315.093722 58.410099 
L 319.755494 58.047108 
L 324.417267 57.704717 
L 329.079039 57.381756 
L 333.740811 57.077122 
L 338.402583 56.789777 
L 343.064355 56.518737 
L 347.726127 56.263079 
L 352.3879 56.021929 
L 357.049672 55.794464 
L 361.711444 55.579907 
L 366.373216 55.377527 
L 371.034988 55.186631 
L 375.69676 55.006568 
L 380.358532 54.836723 
L 385.020305 54.676517 
L 389.682077 54.525403 
L 394.343849 54.382864 
L 399.005621 54.248414 
L 403.667393 54.121594 
L 408.329165 54.00197 
L 412.990938 53.889135 
" clip-path="url(#pf3261bb740)" style="fill: none; stroke: #009988; stroke-width: 1.9; stroke-linecap: square"/>
   </g>
   <g id="text_16">
    <text style="font-size: 9px; font-family: 'Helvetica Neue', 'Helvetica', 'Arial', 'DejaVu Sans', sans-serif; text-anchor: end; fill: currentColor; opacity: 0.7" x="400.714938" y="33.010908" transform="rotate(-0 400.714938 33.010908)">target reward</text>
   </g>
   <g id="line2d_30">
    <path d="M 44.710938 241.488 
L 49.37271 218.087141 
L 54.034482 197.159255 
L 58.696254 178.443003 
L 63.358026 161.704661 
L 68.019798 146.735206 
L 72.68157 133.347705 
L 77.343343 121.374979 
L 82.005115 110.667515 
L 86.666887 101.091603 
L 91.328659 92.527662 
L 95.990431 84.868747 
L 100.652203 78.019217 
L 105.313975 71.893537 
L 109.975748 66.415211 
L 114.63752 61.515828 
L 119.299292 57.134206 
L 123.961064 53.215628 
L 128.622836 49.71116 
L 133.284608 46.577041 
L 137.946381 43.774131 
L 142.608153 41.267429 
L 147.269925 39.025633 
L 151.931697 37.020746 
L 156.593469 35.227734 
L 161.255241 33.624205 
L 165.917013 32.190135 
L 170.578786 30.907616 
L 175.240558 29.760631 
L 179.90233 28.734859 
L 184.564102 27.817489 
L 189.225874 26.997065 
L 193.887646 26.263343 
L 198.549419 25.60716 
L 203.211191 25.020321 
L 207.872963 24.495499 
L 212.534735 24.026139 
L 217.196507 23.606381 
L 221.858279 23.230982 
L 226.520051 22.895255 
L 231.181824 22.595007 
L 235.843596 22.326489 
L 240.505368 22.086348 
L 245.16714 21.871584 
L 249.828912 21.679517 
L 254.490684 21.507746 
L 259.152456 21.354129 
L 263.814229 21.216745 
L 268.476001 21.09388 
L 273.137773 20.983999 
L 277.799545 20.885731 
L 282.461317 20.797847 
L 287.123089 20.71925 
L 291.784862 20.64896 
L 296.446634 20.586098 
L 301.108406 20.529879 
L 305.770178 20.479601 
L 310.43195 20.434636 
L 315.093722 20.394424 
L 319.755494 20.35846 
L 324.417267 20.326298 
L 329.079039 20.297534 
L 333.740811 20.27181 
L 338.402583 20.248805 
L 343.064355 20.22823 
L 347.726127 20.20983 
L 352.3879 20.193375 
L 357.049672 20.178658 
L 361.711444 20.165497 
L 366.373216 20.153727 
L 371.034988 20.1432 
L 375.69676 20.133786 
L 380.358532 20.125367 
L 385.020305 20.117837 
L 389.682077 20.111103 
L 394.343849 20.105081 
L 399.005621 20.099695 
L 403.667393 20.094879 
L 408.329165 20.090571 
L 412.990938 20.086719 
" clip-path="url(#pf3261bb740)" style="fill: none; stroke: #0077bb; stroke-width: 3; stroke-linecap: square"/>
   </g>
   <g id="legend_1">
    <g id="line2d_31">
     <path d="M 308.998281 196.170656 
L 319.498281 196.170656 
L 329.998281 196.170656 
" style="fill: none; stroke: #cc3311; stroke-width: 1.9; stroke-linecap: square"/>
    </g>
    <g id="text_17">
     <text style="font-size: 10.5px; font-family: 'Helvetica Neue', 'Helvetica', 'Arial', 'DejaVu Sans', sans-serif; text-anchor: start; fill: currentColor" x="338.398281" y="199.845656" transform="rotate(-0 338.398281 199.845656)">Fixed-β (high)</text>
    </g>
    <g id="line2d_32">
     <path d="M 308.998281 211.290656 
L 319.498281 211.290656 
L 329.998281 211.290656 
" style="fill: none; stroke: #009988; stroke-width: 1.9; stroke-linecap: square"/>
    </g>
    <g id="text_18">
     <text style="font-size: 10.5px; font-family: 'Helvetica Neue', 'Helvetica', 'Arial', 'DejaVu Sans', sans-serif; text-anchor: start; fill: currentColor" x="338.398281" y="214.965656" transform="rotate(-0 338.398281 214.965656)">Fixed-β (low)</text>
    </g>
    <g id="line2d_33">
     <path d="M 308.998281 226.294172 
L 319.498281 226.294172 
L 329.998281 226.294172 
" style="fill: none; stroke: #0077bb; stroke-width: 3; stroke-linecap: square"/>
    </g>
    <g id="text_19">
     <text style="font-size: 10.5px; font-family: 'Helvetica Neue', 'Helvetica', 'Arial', 'DejaVu Sans', sans-serif; text-anchor: start; fill: currentColor" x="338.398281" y="229.969172" transform="rotate(-0 338.398281 229.969172)">ADRPO (ours)</text>
    </g>
   </g>
  </g>
 </g>
 <defs>
  <clipPath id="pf3261bb740">
   <rect x="44.710938" y="8.64" width="368.28" height="232.848"/>
  </clipPath>
 </defs>
</svg>
