<svg xmlns:xlink="http://www.w3.org/1999/xlink" viewBox="0 0 427.468281 287.048484" xmlns="http://www.w3.org/2000/svg" version="1.1">
 <metadata>
  <rdf:RDF xmlns:dc="http://purl.org/dc/elements/1.1/" xmlns:cc="http://creativecommons.org/ns#" xmlns:rdf="http://www.w3.org/1999/02/22-rdf-syntax-ns#">
   <cc:Work>
    <dc:type rdf:resource="http://purl.org/dc/dcmitype/StillImage"/>
    <dc:date>2026-07-15T21:57:59.704478</dc:date>
    <dc:format>image/svg+xml</dc:format>
    <dc:creator>
     <cc:Agent>
      <dc:title>Matplotlib v3.10.8, https://matplotlib.org/</dc:title>
     </cc:Agent>
    </dc:creator>
   </cc:Work>
  </rdf:RDF>
 </metadata>
 <defs>
  <style type="text/css">*{stroke-linejoin: round; stroke-linecap: butt}</style>
 </defs>
 <g id="figure_1">
  <g id="patch_1">
   <path d="M 0 287.048484 
L 427.468281 287.048484 
L 427.468281 0 
L 0 0 
L 0 287.048484 
z
" style="fill: none"/>
  </g>
  <g id="axes_1">
   <g id="patch_2">
    <path d="M 50.548281 247.032 
L 418.828281 247.032 
L 418.828281 8.64 
L 50.548281 8.64 
L 50.548281 247.032 
z
" style="fill: none"/>
   </g>
   <g id="PathCollection_1"/>
   <g id="PathCollection_2"/>
   <g id="PathCollection_3"/>
   <g id="matplotlib.axis_1">
    <g id="xtick_1">
     <g id="line2d_1">
      <path d="M 65.893281 247.032 
L 65.893281 8.64 
" clip-path="url(#p8d22ba4fa9)" style="fill: none; stroke: #808080; stroke-width: 0.9; stroke-linecap: square"/>
     </g>
     <g id="line2d_2">
      <defs>
       <path id="m04da9bb197" d="M 0 0 
L 0 3.5 
" style="stroke: currentColor; stroke-width: 0.8"/>
      </defs>
      <g>
       <use xlink:href="#m04da9bb197" x="65.893281" y="247.032" style="fill: currentColor; stroke: currentColor; stroke-width: 0.8"/>
      </g>
     </g>
     <g id="text_1">
      <text style="font-size: 10.5px; font-family: 'Helvetica Neue', 'Helvetica', 'Arial', 'DejaVu Sans', sans-serif; text-anchor: middle; fill: currentColor" x="65.893281" y="261.529656" transform="rotate(-0 65.893281 261.529656)">0.000</text>
     </g>
    </g>
    <g id="xtick_2">
     <g id="line2d_3">
      <path d="M 142.618281 247.032 
L 142.618281 8.64 
" clip-path="url(#p8d22ba4fa9)" style="fill: none; stroke: #808080; stroke-width: 0.9; stroke-linecap: square"/>
     </g>
     <g id="line2d_4">
      <g>
       <use xlink:href="#m04da9bb197" x="142.618281" y="247.032" style="fill: currentColor; stroke: currentColor; stroke-width: 0.8"/>
      </g>
     </g>
     <g id="text_2">
      <text style="font-size: 10.5px; font-family: 'Helvetica Neue', 'Helvetica', 'Arial', 'DejaVu Sans', sans-serif; text-anchor: middle; fill: currentColor" x="142.618281" y="261.529656" transform="rotate(-0 142.618281 261.529656)">0.005</text>
     </g>
    </g>
    <g id="xtick_3">
     <g id="line2d_5">
      <path d="M 219.343281 247.032 
L 219.343281 8.64 
" clip-path="url(#p8d22ba4fa9)" style="fill: none; stroke: #808080; stroke-width: 0.9; stroke-linecap: square"/>
     </g>
     <g id="line2d_6">
      <g>
       <use xlink:href="#m04da9bb197" x="219.343281" y="247.032" style="fill: currentColor; stroke: currentColor; stroke-width: 0.8"/>
      </g>
     </g>
     <g id="text_3">
      <text style="font-size: 10.5px; font-family: 'Helvetica Neue', 'Helvetica', 'Arial', 'DejaVu Sans', sans-serif; text-anchor: middle; fill: currentColor" x="219.343281" y="261.529656" transform="rotate(-0 219.343281 261.529656)">0.010</text>
     </g>
    </g>
    <g id="xtick_4">
     <g id="line2d_7">
      <path d="M 296.068281 247.032 
L 296.068281 8.64 
" clip-path="url(#p8d22ba4fa9)" style="fill: none; stroke: #808080; stroke-width: 0.9; stroke-linecap: square"/>
     </g>
     <g id="line2d_8">
      <g>
       <use xlink:href="#m04da9bb197" x="296.068281" y="247.032" style="fill: currentColor; stroke: currentColor; stroke-width: 0.8"/>
      </g>
     </g>
     <g id="text_4">
      <text style="font-size: 10.5px; font-family: 'Helvetica Neue', 'Helvetica', 'Arial', 'DejaVu Sans', sans-serif; text-anchor: middle; fill: currentColor" x="296.068281" y="261.529656" transform="rotate(-0 296.068281 261.529656)">0.015</text>
     </g>
    </g>
    <g id="xtick_5">
     <g id="line2d_9">
      <path d="M 372.793281 247.032 
L 372.793281 8.64 
" clip-path="url(#p8d22ba4fa9)" style="fill: none; stroke: #808080; stroke-width: 0.9; stroke-linecap: square"/>
     </g>
     <g id="line2d_10">
      <g>
       <use xlink:href="#m04da9bb197" x="372.793281" y="247.032" style="fill: currentColor; stroke: currentColor; stroke-width: 0.8"/>
      </g>
     </g>
     <g id="text_5">
      <text style="font-size: 10.5px; font-family: 'Helvetica Neue', 'Helvetica', 'Arial', 'DejaVu Sans', sans-serif; text-anchor: middle; fill: currentColor" x="372.793281" y="261.529656" transform="rotate(-0 372.793281 261.529656)">0.020</text>
     </g>
    </g>
    <g id="text_6">
     <text style="font-size: 11.5px; font-family: 'Helvetica Neue', 'Helvetica', 'Arial', 'DejaVu Sans', sans-serif; text-anchor: middle; fill: currentColor" x="234.688281" y="276.004266" transform="rotate(-0 234.688281 276.004266)">W2 divergence from pre-trained  (lower = closer)</text>
    </g>
   </g>
   <g id="matplotlib.axis_2">
    <g id="ytick_1">
     <g id="line2d_11">
      <path d="M 50.548281 235.944 
L 418.828281 235.944 
" clip-path="url(#p8d22ba4fa9)" style="fill: none; stroke: #808080; stroke-width: 0.9; stroke-linecap: square"/>
     </g>
     <g id="line2d_12">
      <defs>
       <path id="m1b05bb9f40" d="M 0 0 
L -3.5 0 
" style="stroke: currentColor; stroke-width: 0.8"/>
      </defs>
      <g>
       <use xlink:href="#m1b05bb9f40" x="50.548281" y="235.944" style="fill: currentColor; stroke: currentColor; stroke-width: 0.8"/>
      </g>
     </g>
     <g id="text_7">
      <text style="font-size: 10.5px; font-family: 'Helvetica Neue', 'Helvetica', 'Arial', 'DejaVu Sans', sans-serif; text-anchor: end; fill: currentColor" x="43.548281" y="239.692828" transform="rotate(-0 43.548281 239.692828)">29.0</text>
     </g>
    </g>
    <g id="ytick_2">
     <g id="line2d_13">
      <path d="M 50.548281 208.224 
L 418.828281 208.224 
" clip-path="url(#p8d22ba4fa9)" style="fill: none; stroke: #808080; stroke-width: 0.9; stroke-linecap: square"/>
     </g>
     <g id="line2d_14">
      <g>
       <use xlink:href="#m1b05bb9f40" x="50.548281" y="208.224" style="fill: currentColor; stroke: currentColor; stroke-width: 0.8"/>
      </g>
     </g>
     <g id="text_8">
      <text style="font-size: 10.5px; font-family: 'Helvetica Neue', 'Helvetica', 'Arial', 'DejaVu Sans', sans-serif; text-anchor: end; fill: currentColor" x="43.548281" y="211.972828" transform="rotate(-0 43.548281 211.972828)">29.5</text>
     </g>
    </g>
    <g id="ytick_3">
     <g id="line2d_15">
      <path d="M 50.548281 180.504 
L 418.828281 180.504 
" clip-path="url(#p8d22ba4fa9)" style="fill: none; stroke: #808080; stroke-width: 0.9; stroke-linecap: square"/>
     </g>
     <g id="line2d_16">
      <g>
       <use xlink:href="#m1b05bb9f40" x="50.548281" y="180.504" style="fill: currentColor; stroke: currentColor; stroke-width: 0.8"/>
      </g>
     </g>
     <g id="text_9">
      <text style="font-size: 10.5px; font-family: 'Helvetica Neue', 'Helvetica', 'Arial', 'DejaVu Sans', sans-serif; text-anchor: end; fill: currentColor" x="43.548281" y="184.252828" transform="rotate(-0 43.548281 184.252828)">30.0</text>
     </g>
    </g>
    <g id="ytick_4">
     <g id="line2d_17">
      <path d="M 50.548281 152.784 
L 418.828281 152.784 
" clip-path="url(#p8d22ba4fa9)" style="fill: none; stroke: #808080; stroke-width: 0.9; stroke-linecap: square"/>
     </g>
     <g id="line2d_18">
      <g>
       <use xlink:href="#m1b05bb9f40" x="50.548281" y="152.784" style="fill: currentColor; stroke: currentColor; stroke-width: 0.8"/>
      </g>
     </g>
     <g id="text_10">
      <text style="font-size: 10.5px; font-family: 'Helvetica Neue', 'Helvetica', 'Arial', 'DejaVu Sans', sans-serif; text-anchor: end; fill: currentColor" x="43.548281" y="156.532828" transform="rotate(-0 43.548281 156.532828)">30.5</text>
     </g>
    </g>
    <g id="ytick_5">
     <g id="line2d_19">
      <path d="M 50.548281 125.064 
L 418.828281 125.064 
" clip-path="url(#p8d22ba4fa9)" style="fill: none; stroke: #808080; stroke-width: 0.9; stroke-linecap: square"/>
     </g>
     <g id="line2d_20">
      <g>
       <use xlink:href="#m1b05bb9f40" x="50.548281" y="125.064" style="fill: currentColor; stroke: currentColor; stroke-width: 0.8"/>
      </g>
     </g>
     <g id="text_11">
      <text style="font-size: 10.5px; font-family: 'Helvetica Neue', 'Helvetica', 'Arial', 'DejaVu Sans', sans-serif; text-anchor: end; fill: currentColor" x="43.548281" y="128.812828" transform="rotate(-0 43.548281 128.812828)">31.0</text>
     </g>
    </g>
    <g id="ytick_6">
     <g id="line2d_21">
      <path d="M 50.548281 97.344 
L 418.828281 97.344 
" clip-path="url(#p8d22ba4fa9)" style="fill: none; stroke: #808080; stroke-width: 0.9; stroke-linecap: square"/>
     </g>
     <g id="line2d_22">
      <g>
       <use xlink:href="#m1b05bb9f40" x="50.548281" y="97.344" style="fill: currentColor; stroke: currentColor; stroke-width: 0.8"/>
      </g>
     </g>
     <g id="text_12">
      <text style="font-size: 10.5px; font-family: 'Helvetica Neue', 'Helvetica', 'Arial', 'DejaVu Sans', sans-serif; text-anchor: end; fill: currentColor" x="43.548281" y="101.092828" transform="rotate(-0 43.548281 101.092828)">31.5</text>
     </g>
    </g>
    <g id="ytick_7">
     <g id="line2d_23">
      <path d="M 50.548281 69.624 
L 418.828281 69.624 
" clip-path="url(#p8d22ba4fa9)" style="fill: none; stroke: #808080; stroke-width: 0.9; stroke-linecap: square"/>
     </g>
     <g id="line2d_24">
      <g>
       <use xlink:href="#m1b05bb9f40" x="50.548281" y="69.624" style="fill: currentColor; stroke: currentColor; stroke-width: 0.8"/>
      </g>
     </g>
     <g id="text_13">
      <text style="font-size: 10.5px; font-family: 'Helvetica Neue', 'Helvetica', 'Arial', 'DejaVu Sans', sans-serif; text-anchor: end; fill: currentColor" x="43.548281" y="73.372828" transform="rotate(-0 43.548281 73.372828)">32.0</text>
     </g>
    </g>
    <g id="ytick_8">
     <g id="line2d_25">
      <path d="M 50.548281 41.904 
L 418.828281 41.904 
" clip-path="url(#p8d22ba4fa9)" style="fill: none; stroke: #808080; stroke-width: 0.9; stroke-linecap: square"/>
     </g>
     <g id="line2d_26">
      <g>
       <use xlink:href="#m1b05bb9f40" x="50.548281" y="41.904" style="fill: currentColor; stroke: currentColor; stroke-width: 0.8"/>
      </g>
     </g>
     <g id="text_14">
      <text style="font-size: 10.5px; font-family: 'Helvetica Neue', 'Helvetica', 'Arial', 'DejaVu Sans', sans-serif; text-anchor: end; fill: currentColor" x="43.548281" y="45.652828" transform="rotate(-0 43.548281 45.652828)">32.5</text>
     </g>
    </g>
    <g id="ytick_9">
     <g id="line2d_27">
      <path d="M 50.548281 14.184 
L 418.828281 14.184 
" clip-path="url(#p8d22ba4fa9)" style="fill: none; stroke: #808080; stroke-width: 0.9; stroke-linecap: square"/>
     </g>
     <g id="line2d_28">
      <g>
       <use xlink:href="#m1b05bb9f40" x="50.548281" y="14.184" style="fill: currentColor; stroke: currentColor; stroke-width: 0.8"/>
      </g>
     </g>
     <g id="text_15">
      <text style="font-size: 10.5px; font-family: 'Helvetica Neue', 'Helvetica', 'Arial', 'DejaVu Sans', sans-serif; text-anchor: end; fill: currentColor" x="43.548281" y="17.932828" transform="rotate(-0 43.548281 17.932828)">33.0</text>
     </g>
    </g>
    <g id="text_16">
     <text style="font-size: 11.5px; font-family: 'Helvetica Neue', 'Helvetica', 'Arial', 'DejaVu Sans', sans-serif; text-anchor: middle; fill: currentColor" x="16.851719" y="127.836" transform="rotate(-90 16.851719 127.836)">Reward</text>
    </g>
   </g>
   <g id="patch_3">
    <path d="M 50.548281 247.032 
L 50.548281 8.64 
" style="fill: none; stroke: #808080; stroke-opacity: 0.4; stroke-linejoin: miter; stroke-linecap: square"/>
   </g>
   <g id="patch_4">
    <path d="M 50.548281 247.032 
L 418.828281 247.032 
" style="fill: none; stroke: #808080; stroke-opacity: 0.4; stroke-linejoin: miter; stroke-linecap: square"/>
   </g>
   <g id="patch_5">
    <path d="M 194.316892 39.342206 
Q 137.24442 37.876813 81.513147 36.445857 
" style="fill: none; stroke: #0077bb; stroke-width: 1.2; stroke-linecap: round"/>
    <path d="M 85.06576 38.337667 
L 81.513147 36.445857 
L 85.158163 34.738853 
z
" style="fill: #0077bb; stroke: #0077bb; stroke-width: 1.2; stroke-linecap: round"/>
   </g>
   <g id="text_17">
    <text style="font-size: 9px; font-family: 'Helvetica Neue', 'Helvetica', 'Arial', 'DejaVu Sans', sans-serif; fill: #0077bb" transform="translate(199.930703 37.854563)">highest reward at</text>
    <text style="font-size: 9px; font-family: 'Helvetica Neue', 'Helvetica', 'Arial', 'DejaVu Sans', sans-serif; fill: #0077bb" transform="translate(198.316328 47.448)">lowest divergence</text>
   </g>
   <g id="PathCollection_4">
    <path d="M 89.594455 176.579802 
C 90.367649 176.579802 91.109278 176.272609 91.656008 175.725879 
C 92.202738 175.179148 92.509931 174.437519 92.509931 173.664326 
C 92.509931 172.891133 92.202738 172.149503 91.656008 171.602773 
C 91.109278 171.056043 90.367649 170.74885 89.594455 170.74885 
C 88.821262 170.74885 88.079633 171.056043 87.532903 171.602773 
C 86.986172 172.149503 86.678979 172.891133 86.678979 173.664326 
C 86.678979 174.437519 86.986172 175.179148 87.532903 175.725879 
C 88.079633 176.272609 88.821262 176.579802 89.594455 176.579802 
z
" clip-path="url(#p8d22ba4fa9)" style="fill: #0077bb; fill-opacity: 0.12"/>
   </g>
   <g id="PathCollection_5">
    <path d="M 86.65034 160.154528 
C 87.423533 160.154528 88.165162 159.847335 88.711892 159.300605 
C 89.258623 158.753874 89.565816 158.012245 89.565816 157.239052 
C 89.565816 156.465858 89.258623 155.724229 88.711892 155.177499 
C 88.165162 154.630769 87.423533 154.323576 86.65034 154.323576 
C 85.877146 154.323576 85.135517 154.630769 84.588787 155.177499 
C 84.042057 155.724229 83.734864 156.465858 83.734864 157.239052 
C 83.734864 158.012245 84.042057 158.753874 84.588787 159.300605 
C 85.135517 159.847335 85.877146 160.154528 86.65034 160.154528 
z
" clip-path="url(#p8d22ba4fa9)" style="fill: #0077bb; fill-opacity: 0.205714"/>
   </g>
   <g id="PathCollection_6">
    <path d="M 85.630028 134.625529 
C 86.403221 134.625529 87.144851 134.318336 87.691581 133.771606 
C 88.238311 133.224876 88.545504 132.483247 88.545504 131.710053 
C 88.545504 130.93686 88.238311 130.195231 87.691581 129.648501 
C 87.144851 129.10177 86.403221 128.794577 85.630028 128.794577 
C 84.856835 128.794577 84.115206 129.10177 83.568475 129.648501 
C 83.021745 130.195231 82.714552 130.93686 82.714552 131.710053 
C 82.714552 132.483247 83.021745 133.224876 83.568475 133.771606 
C 84.115206 134.318336 84.856835 134.625529 85.630028 134.625529 
z
" clip-path="url(#p8d22ba4fa9)" style="fill: #0077bb; fill-opacity: 0.291429"/>
   </g>
   <g id="PathCollection_7">
    <path d="M 83.509821 114.022953 
C 84.283014 114.022953 85.024644 113.71576 85.571374 113.16903 
C 86.118104 112.6223 86.425297 111.88067 86.425297 111.107477 
C 86.425297 110.334284 86.118104 109.592655 85.571374 109.045924 
C 85.024644 108.499194 84.283014 108.192001 83.509821 108.192001 
C 82.736628 108.192001 81.994998 108.499194 81.448268 109.045924 
C 80.901538 109.592655 80.594345 110.334284 80.594345 111.107477 
C 80.594345 111.88067 80.901538 112.6223 81.448268 113.16903 
C 81.994998 113.71576 82.736628 114.022953 83.509821 114.022953 
z
" clip-path="url(#p8d22ba4fa9)" style="fill: #0077bb; fill-opacity: 0.377143"/>
   </g>
   <g id="PathCollection_8">
    <path d="M 81.745045 76.697924 
C 82.518238 76.697924 83.259868 76.390731 83.806598 75.844001 
C 84.353328 75.297271 84.660521 74.555642 84.660521 73.782448 
C 84.660521 73.009255 84.353328 72.267626 83.806598 71.720896 
C 83.259868 71.174165 82.518238 70.866972 81.745045 70.866972 
C 80.971852 70.866972 80.230222 71.174165 79.683492 71.720896 
C 79.136762 72.267626 78.829569 73.009255 78.829569 73.782448 
C 78.829569 74.555642 79.136762 75.297271 79.683492 75.844001 
C 80.230222 76.390731 80.971852 76.697924 81.745045 76.697924 
z
" clip-path="url(#p8d22ba4fa9)" style="fill: #0077bb; fill-opacity: 0.462857"/>
   </g>
   <g id="PathCollection_9">
    <path d="M 79.470072 63.497089 
C 80.243265 63.497089 80.984894 63.189896 81.531625 62.643166 
C 82.078355 62.096436 82.385548 61.354806 82.385548 60.581613 
C 82.385548 59.80842 82.078355 59.06679 81.531625 58.52006 
C 80.984894 57.97333 80.243265 57.666137 79.470072 57.666137 
C 78.696878 57.666137 77.955249 57.97333 77.408519 58.52006 
C 76.861789 59.06679 76.554596 59.80842 76.554596 60.581613 
C 76.554596 61.354806 76.861789 62.096436 77.408519 62.643166 
C 77.955249 63.189896 78.696878 63.497089 79.470072 63.497089 
z
" clip-path="url(#p8d22ba4fa9)" style="fill: #0077bb; fill-opacity: 0.548571"/>
   </g>
   <g id="PathCollection_10">
    <path d="M 78.013924 59.525989 
C 78.787118 59.525989 79.528747 59.218796 80.075477 58.672066 
C 80.622207 58.125336 80.9294 57.383707 80.9294 56.610513 
C 80.9294 55.83732 80.622207 55.095691 80.075477 54.548961 
C 79.528747 54.00223 78.787118 53.695038 78.013924 53.695038 
C 77.240731 53.695038 76.499102 54.00223 75.952372 54.548961 
C 75.405641 55.095691 75.098448 55.83732 75.098448 56.610513 
C 75.098448 57.383707 75.405641 58.125336 75.952372 58.672066 
C 76.499102 59.218796 77.240731 59.525989 78.013924 59.525989 
z
" clip-path="url(#p8d22ba4fa9)" style="fill: #0077bb; fill-opacity: 0.634286"/>
   </g>
   <g id="PathCollection_11">
    <path d="M 154.623011 175.66923 
L 160.453963 175.66923 
L 160.453963 169.838278 
L 154.623011 169.838278 
z
" clip-path="url(#p8d22ba4fa9)" style="fill: #cc3311; fill-opacity: 0.12"/>
   </g>
   <g id="PathCollection_12">
    <path d="M 150.514608 160.003879 
L 156.34556 160.003879 
L 156.34556 154.172927 
L 150.514608 154.172927 
z
" clip-path="url(#p8d22ba4fa9)" style="fill: #cc3311; fill-opacity: 0.205714"/>
   </g>
   <g id="PathCollection_13">
    <path d="M 146.402572 155.140191 
L 152.233524 155.140191 
L 152.233524 149.30924 
L 146.402572 149.30924 
z
" clip-path="url(#p8d22ba4fa9)" style="fill: #cc3311; fill-opacity: 0.291429"/>
   </g>
   <g id="PathCollection_14">
    <path d="M 144.748171 147.213167 
L 150.579122 147.213167 
L 150.579122 141.382215 
L 144.748171 141.382215 
z
" clip-path="url(#p8d22ba4fa9)" style="fill: #cc3311; fill-opacity: 0.377143"/>
   </g>
   <g id="PathCollection_15">
    <path d="M 142.567344 139.257167 
L 148.398296 139.257167 
L 148.398296 133.426215 
L 142.567344 133.426215 
z
" clip-path="url(#p8d22ba4fa9)" style="fill: #cc3311; fill-opacity: 0.462857"/>
   </g>
   <g id="PathCollection_16">
    <path d="M 138.452978 130.615226 
L 144.283929 130.615226 
L 144.283929 124.784274 
L 138.452978 124.784274 
z
" clip-path="url(#p8d22ba4fa9)" style="fill: #cc3311; fill-opacity: 0.548571"/>
   </g>
   <g id="PathCollection_17">
    <path d="M 134.379597 119.577768 
L 140.210549 119.577768 
L 140.210549 113.746816 
L 134.379597 113.746816 
z
" clip-path="url(#p8d22ba4fa9)" style="fill: #cc3311; fill-opacity: 0.634286"/>
   </g>
   <g id="PathCollection_18">
    <path d="M 252.33113 178.259938 
L 249.415654 184.09089 
L 255.246606 184.09089 
z
" clip-path="url(#p8d22ba4fa9)" style="fill: #ee7733; fill-opacity: 0.12"/>
   </g>
   <g id="PathCollection_19">
    <path d="M 273.947788 165.612423 
L 271.032312 171.443375 
L 276.863264 171.443375 
z
" clip-path="url(#p8d22ba4fa9)" style="fill: #ee7733; fill-opacity: 0.205714"/>
   </g>
   <g id="PathCollection_20">
    <path d="M 291.731518 160.027099 
L 288.816042 165.858051 
L 294.646994 165.858051 
z
" clip-path="url(#p8d22ba4fa9)" style="fill: #ee7733; fill-opacity: 0.291429"/>
   </g>
   <g id="PathCollection_21">
    <path d="M 321.211224 133.151507 
L 318.295749 138.982458 
L 324.1267 138.982458 
z
" clip-path="url(#p8d22ba4fa9)" style="fill: #ee7733; fill-opacity: 0.377143"/>
   </g>
   <g id="PathCollection_22">
    <path d="M 339.257843 122.415608 
L 336.342367 128.24656 
L 342.173319 128.24656 
z
" clip-path="url(#p8d22ba4fa9)" style="fill: #ee7733; fill-opacity: 0.462857"/>
   </g>
   <g id="PathCollection_23">
    <path d="M 369.669533 119.790219 
L 366.754057 125.621171 
L 372.585009 125.621171 
z
" clip-path="url(#p8d22ba4fa9)" style="fill: #ee7733; fill-opacity: 0.548571"/>
   </g>
   <g id="PathCollection_24">
    <path d="M 382.852623 101.751513 
L 379.937147 107.582464 
L 385.768099 107.582464 
z
" clip-path="url(#p8d22ba4fa9)" style="fill: #ee7733; fill-opacity: 0.634286"/>
   </g>
   <g id="legend_1">
    <g id="PathCollection_25">
     <defs>
      <path id="m68fffb8dcd" d="M 0 3 
C 0.795609 3 1.55874 2.683901 2.12132 2.12132 
C 2.683901 1.55874 3 0.795609 3 0 
C 3 -0.795609 2.683901 -1.55874 2.12132 -2.12132 
C 1.55874 -2.683901 0.795609 -3 0 -3 
C -0.795609 -3 -1.55874 -2.683901 -2.12132 -2.12132 
C -2.683901 -1.55874 -3 -0.795609 -3 0 
C -3 0.795609 -2.683901 1.55874 -2.12132 2.12132 
C -1.55874 2.683901 -0.795609 3 0 3 
z
" style="stroke: #0077bb"/>
     </defs>
     <g>
      <use xlink:href="#m68fffb8dcd" x="327.051813" y="195.018844" style="fill: #0077bb; stroke: #0077bb"/>
     </g>
    </g>
    <g id="text_18">
     <text style="font-size: 9.3px; font-family: 'Helvetica Neue', 'Helvetica', 'Arial', 'DejaVu Sans', sans-serif; text-anchor: start; fill: currentColor" x="343.791813" y="197.460094" transform="rotate(-0 343.791813 197.460094)">ADRPO (Ours)</text>
    </g>
    <g id="PathCollection_26">
     <defs>
      <path id="m9567a9af9d" d="M -3 3 
L 3 3 
L 3 -3 
L -3 -3 
z
" style="stroke: #cc3311"/>
     </defs>
     <g>
      <use xlink:href="#m9567a9af9d" x="327.051813" y="208.142016" style="fill: #cc3311; stroke: #cc3311"/>
     </g>
    </g>
    <g id="text_19">
     <text style="font-size: 9.3px; font-family: 'Helvetica Neue', 'Helvetica', 'Arial', 'DejaVu Sans', sans-serif; text-anchor: start; fill: currentColor" x="343.791813" y="210.583266" transform="rotate(-0 343.791813 210.583266)">DPO</text>
    </g>
    <g id="PathCollection_27">
     <defs>
      <path id="m3713ac6aba" d="M 0 -3 
L -3 3 
L 3 3 
z
" style="stroke: #ee7733"/>
     </defs>
     <g>
      <use xlink:href="#m3713ac6aba" x="327.051813" y="221.265188" style="fill: #ee7733; stroke: #ee7733"/>
     </g>
    </g>
    <g id="text_20">
     <text style="font-size: 9.3px; font-family: 'Helvetica Neue', 'Helvetica', 'Arial', 'DejaVu Sans', sans-serif; text-anchor: start; fill: currentColor" x="343.791813" y="223.706438" transform="rotate(-0 343.791813 223.706438)">ORW-CFM-W2</text>
    </g>
    <g id="PathCollection_28">
     <defs>
      <path id="mfa76742337" d="M -0 6.708204 
L 6.708204 0 
L 0 -6.708204 
L -6.708204 -0 
z
" style="stroke: #ffffff"/>
     </defs>
     <g>
      <use xlink:href="#mfa76742337" x="327.051813" y="234.388359" style="fill: #aa3377; stroke: #ffffff"/>
     </g>
    </g>
    <g id="text_21">
     <text style="font-size: 9.3px; font-family: 'Helvetica Neue', 'Helvetica', 'Arial', 'DejaVu Sans', sans-serif; text-anchor: start; fill: currentColor" x="343.791813" y="236.829609" transform="rotate(-0 343.791813 236.829609)">Pre-trained SD3</text>
    </g>
   </g>
   <g id="PathCollection_29">
    <defs>
     <path id="ma676f35149" d="M 0 -6.892024 
L -1.547356 -2.129753 
L -6.554705 -2.129753 
L -2.503674 0.813493 
L -4.05103 5.575765 
L -0 2.632519 
L 4.05103 5.575765 
L 2.503674 0.813493 
L 6.554705 -2.129753 
L 1.547356 -2.129753 
z
" style="stroke: #ffffff; stroke-width: 1.1"/>
    </defs>
    <g clip-path="url(#p8d22ba4fa9)">
     <use xlink:href="#ma676f35149" x="78.169281" y="36.36" style="fill: #0077bb; stroke: #ffffff; stroke-width: 1.1"/>
    </g>
   </g>
   <g id="PathCollection_30">
    <defs>
     <path id="mc7c3af7ff7" d="M 0 -6.892024 
L -1.547356 -2.129753 
L -6.554705 -2.129753 
L -2.503674 0.813493 
L -4.05103 5.575765 
L -0 2.632519 
L 4.05103 5.575765 
L 2.503674 0.813493 
L 6.554705 -2.129753 
L 1.547356 -2.129753 
z
" style="stroke: #ffffff; stroke-width: 1.1"/>
    </defs>
    <g clip-path="url(#p8d22ba4fa9)">
     <use xlink:href="#mc7c3af7ff7" x="138.014781" y="119.52" style="fill: #cc3311; stroke: #ffffff; stroke-width: 1.1"/>
    </g>
   </g>
   <g id="PathCollection_31">
    <defs>
     <path id="mc13efc8660" d="M 0 -6.892024 
L -1.547356 -2.129753 
L -6.554705 -2.129753 
L -2.503674 0.813493 
L -4.05103 5.575765 
L -0 2.632519 
L 4.05103 5.575765 
L 2.503674 0.813493 
L 6.554705 -2.129753 
L 1.547356 -2.129753 
z
" style="stroke: #ffffff; stroke-width: 1.1"/>
    </defs>
    <g clip-path="url(#p8d22ba4fa9)">
     <use xlink:href="#mc13efc8660" x="388.138281" y="108.432" style="fill: #ee7733; stroke: #ffffff; stroke-width: 1.1"/>
    </g>
   </g>
   <g id="PathCollection_32">
    <g clip-path="url(#p8d22ba4fa9)">
     <use xlink:href="#mfa76742337" x="65.893281" y="224.856" style="fill: #aa3377; stroke: #ffffff"/>
    </g>
   </g>
  </g>
 </g>
 <defs>
  <clipPath id="p8d22ba4fa9">
   <rect x="50.548281" y="8.64" width="368.28" height="238.392"/>
  </clipPath>
 </defs>
</svg>
