<svg xmlns:xlink="http://www.w3.org/1999/xlink" viewBox="0 0 438.016055 287.048484" xmlns="http://www.w3.org/2000/svg" version="1.1">
 <metadata>
  <rdf:RDF xmlns:dc="http://purl.org/dc/elements/1.1/" xmlns:cc="http://creativecommons.org/ns#" xmlns:rdf="http://www.w3.org/1999/02/22-rdf-syntax-ns#">
   <cc:Work>
    <dc:type rdf:resource="http://purl.org/dc/dcmitype/StillImage"/>
    <dc:date>2026-07-15T21:57:59.615898</dc:date>
    <dc:format>image/svg+xml</dc:format>
    <dc:creator>
     <cc:Agent>
      <dc:title>Matplotlib v3.10.8, https://matplotlib.org/</dc:title>
     </cc:Agent>
    </dc:creator>
   </cc:Work>
  </rdf:RDF>
 </metadata>
 <defs>
  <style type="text/css">*{stroke-linejoin: round; stroke-linecap: butt}</style>
 </defs>
 <g id="figure_1">
  <g id="patch_1">
   <path d="M 0 287.048484 
L 438.016055 287.048484 
L 438.016055 0 
L 0 0 
L 0 287.048484 
z
" style="fill: none"/>
  </g>
  <g id="axes_1">
   <g id="patch_2">
    <path d="M 50.880703 247.032 
L 419.160703 247.032 
L 419.160703 8.64 
L 50.880703 8.64 
L 50.880703 247.032 
z
" style="fill: none"/>
   </g>
   <g id="PathCollection_1"/>
   <g id="PathCollection_2"/>
   <g id="PathCollection_3"/>
   <g id="matplotlib.axis_1">
    <g id="xtick_1">
     <g id="line2d_1">
      <path d="M 79.95544 247.032 
L 79.95544 8.64 
" clip-path="url(#pa1323f8d86)" style="fill: none; stroke: #808080; stroke-width: 0.9; stroke-linecap: square"/>
     </g>
     <g id="line2d_2">
      <defs>
       <path id="me08dcca9cd" d="M 0 0 
L 0 3.5 
" style="stroke: currentColor; stroke-width: 0.8"/>
      </defs>
      <g>
       <use xlink:href="#me08dcca9cd" x="79.95544" y="247.032" style="fill: currentColor; stroke: currentColor; stroke-width: 0.8"/>
      </g>
     </g>
     <g id="text_1">
      <text style="font-size: 10.5px; font-family: 'Helvetica Neue', 'Helvetica', 'Arial', 'DejaVu Sans', sans-serif; text-anchor: middle; fill: currentColor" x="79.95544" y="261.529656" transform="rotate(-0 79.95544 261.529656)">3.75</text>
     </g>
    </g>
    <g id="xtick_2">
     <g id="line2d_3">
      <path d="M 128.413335 247.032 
L 128.413335 8.64 
" clip-path="url(#pa1323f8d86)" style="fill: none; stroke: #808080; stroke-width: 0.9; stroke-linecap: square"/>
     </g>
     <g id="line2d_4">
      <g>
       <use xlink:href="#me08dcca9cd" x="128.413335" y="247.032" style="fill: currentColor; stroke: currentColor; stroke-width: 0.8"/>
      </g>
     </g>
     <g id="text_2">
      <text style="font-size: 10.5px; font-family: 'Helvetica Neue', 'Helvetica', 'Arial', 'DejaVu Sans', sans-serif; text-anchor: middle; fill: currentColor" x="128.413335" y="261.529656" transform="rotate(-0 128.413335 261.529656)">4.00</text>
     </g>
    </g>
    <g id="xtick_3">
     <g id="line2d_5">
      <path d="M 176.871229 247.032 
L 176.871229 8.64 
" clip-path="url(#pa1323f8d86)" style="fill: none; stroke: #808080; stroke-width: 0.9; stroke-linecap: square"/>
     </g>
     <g id="line2d_6">
      <g>
       <use xlink:href="#me08dcca9cd" x="176.871229" y="247.032" style="fill: currentColor; stroke: currentColor; stroke-width: 0.8"/>
      </g>
     </g>
     <g id="text_3">
      <text style="font-size: 10.5px; font-family: 'Helvetica Neue', 'Helvetica', 'Arial', 'DejaVu Sans', sans-serif; text-anchor: middle; fill: currentColor" x="176.871229" y="261.529656" transform="rotate(-0 176.871229 261.529656)">4.25</text>
     </g>
    </g>
    <g id="xtick_4">
     <g id="line2d_7">
      <path d="M 225.329124 247.032 
L 225.329124 8.64 
" clip-path="url(#pa1323f8d86)" style="fill: none; stroke: #808080; stroke-width: 0.9; stroke-linecap: square"/>
     </g>
     <g id="line2d_8">
      <g>
       <use xlink:href="#me08dcca9cd" x="225.329124" y="247.032" style="fill: currentColor; stroke: currentColor; stroke-width: 0.8"/>
      </g>
     </g>
     <g id="text_4">
      <text style="font-size: 10.5px; font-family: 'Helvetica Neue', 'Helvetica', 'Arial', 'DejaVu Sans', sans-serif; text-anchor: middle; fill: currentColor" x="225.329124" y="261.529656" transform="rotate(-0 225.329124 261.529656)">4.50</text>
     </g>
    </g>
    <g id="xtick_5">
     <g id="line2d_9">
      <path d="M 273.787019 247.032 
L 273.787019 8.64 
" clip-path="url(#pa1323f8d86)" style="fill: none; stroke: #808080; stroke-width: 0.9; stroke-linecap: square"/>
     </g>
     <g id="line2d_10">
      <g>
       <use xlink:href="#me08dcca9cd" x="273.787019" y="247.032" style="fill: currentColor; stroke: currentColor; stroke-width: 0.8"/>
      </g>
     </g>
     <g id="text_5">
      <text style="font-size: 10.5px; font-family: 'Helvetica Neue', 'Helvetica', 'Arial', 'DejaVu Sans', sans-serif; text-anchor: middle; fill: currentColor" x="273.787019" y="261.529656" transform="rotate(-0 273.787019 261.529656)">4.75</text>
     </g>
    </g>
    <g id="xtick_6">
     <g id="line2d_11">
      <path d="M 322.244914 247.032 
L 322.244914 8.64 
" clip-path="url(#pa1323f8d86)" style="fill: none; stroke: #808080; stroke-width: 0.9; stroke-linecap: square"/>
     </g>
     <g id="line2d_12">
      <g>
       <use xlink:href="#me08dcca9cd" x="322.244914" y="247.032" style="fill: currentColor; stroke: currentColor; stroke-width: 0.8"/>
      </g>
     </g>
     <g id="text_6">
      <text style="font-size: 10.5px; font-family: 'Helvetica Neue', 'Helvetica', 'Arial', 'DejaVu Sans', sans-serif; text-anchor: middle; fill: currentColor" x="322.244914" y="261.529656" transform="rotate(-0 322.244914 261.529656)">5.00</text>
     </g>
    </g>
    <g id="xtick_7">
     <g id="line2d_13">
      <path d="M 370.702808 247.032 
L 370.702808 8.64 
" clip-path="url(#pa1323f8d86)" style="fill: none; stroke: #808080; stroke-width: 0.9; stroke-linecap: square"/>
     </g>
     <g id="line2d_14">
      <g>
       <use xlink:href="#me08dcca9cd" x="370.702808" y="247.032" style="fill: currentColor; stroke: currentColor; stroke-width: 0.8"/>
      </g>
     </g>
     <g id="text_7">
      <text style="font-size: 10.5px; font-family: 'Helvetica Neue', 'Helvetica', 'Arial', 'DejaVu Sans', sans-serif; text-anchor: middle; fill: currentColor" x="370.702808" y="261.529656" transform="rotate(-0 370.702808 261.529656)">5.25</text>
     </g>
    </g>
    <g id="xtick_8">
     <g id="line2d_15">
      <path d="M 419.160703 247.032 
L 419.160703 8.64 
" clip-path="url(#pa1323f8d86)" style="fill: none; stroke: #808080; stroke-width: 0.9; stroke-linecap: square"/>
     </g>
     <g id="line2d_16">
      <g>
       <use xlink:href="#me08dcca9cd" x="419.160703" y="247.032" style="fill: currentColor; stroke: currentColor; stroke-width: 0.8"/>
      </g>
     </g>
     <g id="text_8">
      <text style="font-size: 10.5px; font-family: 'Helvetica Neue', 'Helvetica', 'Arial', 'DejaVu Sans', sans-serif; text-anchor: middle; fill: currentColor" x="419.160703" y="261.529656" transform="rotate(-0 419.160703 261.529656)">5.50</text>
     </g>
    </g>
    <g id="text_9">
     <text style="font-size: 11.5px; font-family: 'Helvetica Neue', 'Helvetica', 'Arial', 'DejaVu Sans', sans-serif; text-anchor: middle; fill: currentColor" x="235.020703" y="276.004266" transform="rotate(-0 235.020703 276.004266)">Diversity  (higher = more varied)</text>
    </g>
   </g>
   <g id="matplotlib.axis_2">
    <g id="ytick_1">
     <g id="line2d_17">
      <path d="M 50.880703 235.944 
L 419.160703 235.944 
" clip-path="url(#pa1323f8d86)" style="fill: none; stroke: #808080; stroke-width: 0.9; stroke-linecap: square"/>
     </g>
     <g id="line2d_18">
      <defs>
       <path id="mfdbbc7f4e2" d="M 0 0 
L -3.5 0 
" style="stroke: currentColor; stroke-width: 0.8"/>
      </defs>
      <g>
       <use xlink:href="#mfdbbc7f4e2" x="50.880703" y="235.944" style="fill: currentColor; stroke: currentColor; stroke-width: 0.8"/>
      </g>
     </g>
     <g id="text_10">
      <text style="font-size: 10.5px; font-family: 'Helvetica Neue', 'Helvetica', 'Arial', 'DejaVu Sans', sans-serif; text-anchor: end; fill: currentColor" x="43.880703" y="239.692828" transform="rotate(-0 43.880703 239.692828)">29.0</text>
     </g>
    </g>
    <g id="ytick_2">
     <g id="line2d_19">
      <path d="M 50.880703 208.224 
L 419.160703 208.224 
" clip-path="url(#pa1323f8d86)" style="fill: none; stroke: #808080; stroke-width: 0.9; stroke-linecap: square"/>
     </g>
     <g id="line2d_20">
      <g>
       <use xlink:href="#mfdbbc7f4e2" x="50.880703" y="208.224" style="fill: currentColor; stroke: currentColor; stroke-width: 0.8"/>
      </g>
     </g>
     <g id="text_11">
      <text style="font-size: 10.5px; font-family: 'Helvetica Neue', 'Helvetica', 'Arial', 'DejaVu Sans', sans-serif; text-anchor: end; fill: currentColor" x="43.880703" y="211.972828" transform="rotate(-0 43.880703 211.972828)">29.5</text>
     </g>
    </g>
    <g id="ytick_3">
     <g id="line2d_21">
      <path d="M 50.880703 180.504 
L 419.160703 180.504 
" clip-path="url(#pa1323f8d86)" style="fill: none; stroke: #808080; stroke-width: 0.9; stroke-linecap: square"/>
     </g>
     <g id="line2d_22">
      <g>
       <use xlink:href="#mfdbbc7f4e2" x="50.880703" y="180.504" style="fill: currentColor; stroke: currentColor; stroke-width: 0.8"/>
      </g>
     </g>
     <g id="text_12">
      <text style="font-size: 10.5px; font-family: 'Helvetica Neue', 'Helvetica', 'Arial', 'DejaVu Sans', sans-serif; text-anchor: end; fill: currentColor" x="43.880703" y="184.252828" transform="rotate(-0 43.880703 184.252828)">30.0</text>
     </g>
    </g>
    <g id="ytick_4">
     <g id="line2d_23">
      <path d="M 50.880703 152.784 
L 419.160703 152.784 
" clip-path="url(#pa1323f8d86)" style="fill: none; stroke: #808080; stroke-width: 0.9; stroke-linecap: square"/>
     </g>
     <g id="line2d_24">
      <g>
       <use xlink:href="#mfdbbc7f4e2" x="50.880703" y="152.784" style="fill: currentColor; stroke: currentColor; stroke-width: 0.8"/>
      </g>
     </g>
     <g id="text_13">
      <text style="font-size: 10.5px; font-family: 'Helvetica Neue', 'Helvetica', 'Arial', 'DejaVu Sans', sans-serif; text-anchor: end; fill: currentColor" x="43.880703" y="156.532828" transform="rotate(-0 43.880703 156.532828)">30.5</text>
     </g>
    </g>
    <g id="ytick_5">
     <g id="line2d_25">
      <path d="M 50.880703 125.064 
L 419.160703 125.064 
" clip-path="url(#pa1323f8d86)" style="fill: none; stroke: #808080; stroke-width: 0.9; stroke-linecap: square"/>
     </g>
     <g id="line2d_26">
      <g>
       <use xlink:href="#mfdbbc7f4e2" x="50.880703" y="125.064" style="fill: currentColor; stroke: currentColor; stroke-width: 0.8"/>
      </g>
     </g>
     <g id="text_14">
      <text style="font-size: 10.5px; font-family: 'Helvetica Neue', 'Helvetica', 'Arial', 'DejaVu Sans', sans-serif; text-anchor: end; fill: currentColor" x="43.880703" y="128.812828" transform="rotate(-0 43.880703 128.812828)">31.0</text>
     </g>
    </g>
    <g id="ytick_6">
     <g id="line2d_27">
      <path d="M 50.880703 97.344 
L 419.160703 97.344 
" clip-path="url(#pa1323f8d86)" style="fill: none; stroke: #808080; stroke-width: 0.9; stroke-linecap: square"/>
     </g>
     <g id="line2d_28">
      <g>
       <use xlink:href="#mfdbbc7f4e2" x="50.880703" y="97.344" style="fill: currentColor; stroke: currentColor; stroke-width: 0.8"/>
      </g>
     </g>
     <g id="text_15">
      <text style="font-size: 10.5px; font-family: 'Helvetica Neue', 'Helvetica', 'Arial', 'DejaVu Sans', sans-serif; text-anchor: end; fill: currentColor" x="43.880703" y="101.092828" transform="rotate(-0 43.880703 101.092828)">31.5</text>
     </g>
    </g>
    <g id="ytick_7">
     <g id="line2d_29">
      <path d="M 50.880703 69.624 
L 419.160703 69.624 
" clip-path="url(#pa1323f8d86)" style="fill: none; stroke: #808080; stroke-width: 0.9; stroke-linecap: square"/>
     </g>
     <g id="line2d_30">
      <g>
       <use xlink:href="#mfdbbc7f4e2" x="50.880703" y="69.624" style="fill: currentColor; stroke: currentColor; stroke-width: 0.8"/>
      </g>
     </g>
     <g id="text_16">
      <text style="font-size: 10.5px; font-family: 'Helvetica Neue', 'Helvetica', 'Arial', 'DejaVu Sans', sans-serif; text-anchor: end; fill: currentColor" x="43.880703" y="73.372828" transform="rotate(-0 43.880703 73.372828)">32.0</text>
     </g>
    </g>
    <g id="ytick_8">
     <g id="line2d_31">
      <path d="M 50.880703 41.904 
L 419.160703 41.904 
" clip-path="url(#pa1323f8d86)" style="fill: none; stroke: #808080; stroke-width: 0.9; stroke-linecap: square"/>
     </g>
     <g id="line2d_32">
      <g>
       <use xlink:href="#mfdbbc7f4e2" x="50.880703" y="41.904" style="fill: currentColor; stroke: currentColor; stroke-width: 0.8"/>
      </g>
     </g>
     <g id="text_17">
      <text style="font-size: 10.5px; font-family: 'Helvetica Neue', 'Helvetica', 'Arial', 'DejaVu Sans', sans-serif; text-anchor: end; fill: currentColor" x="43.880703" y="45.652828" transform="rotate(-0 43.880703 45.652828)">32.5</text>
     </g>
    </g>
    <g id="ytick_9">
     <g id="line2d_33">
      <path d="M 50.880703 14.184 
L 419.160703 14.184 
" clip-path="url(#pa1323f8d86)" style="fill: none; stroke: #808080; stroke-width: 0.9; stroke-linecap: square"/>
     </g>
     <g id="line2d_34">
      <g>
       <use xlink:href="#mfdbbc7f4e2" x="50.880703" y="14.184" style="fill: currentColor; stroke: currentColor; stroke-width: 0.8"/>
      </g>
     </g>
     <g id="text_18">
      <text style="font-size: 10.5px; font-family: 'Helvetica Neue', 'Helvetica', 'Arial', 'DejaVu Sans', sans-serif; text-anchor: end; fill: currentColor" x="43.880703" y="17.932828" transform="rotate(-0 43.880703 17.932828)">33.0</text>
     </g>
    </g>
    <g id="text_19">
     <text style="font-size: 11.5px; font-family: 'Helvetica Neue', 'Helvetica', 'Arial', 'DejaVu Sans', sans-serif; text-anchor: middle; fill: currentColor" x="17.045781" y="127.836" transform="rotate(-90 17.045781 127.836)">Reward  (aesthetic + alignment)</text>
    </g>
   </g>
   <g id="patch_3">
    <path d="M 50.880703 247.032 
L 50.880703 8.64 
" style="fill: none; stroke: #808080; stroke-opacity: 0.4; stroke-linejoin: miter; stroke-linecap: square"/>
   </g>
   <g id="patch_4">
    <path d="M 50.880703 247.032 
L 419.160703 247.032 
" style="fill: none; stroke: #808080; stroke-opacity: 0.4; stroke-linejoin: miter; stroke-linecap: square"/>
   </g>
   <g id="patch_5">
    <path d="M 192.027936 35.761424 
Q 273.582354 36.05709 353.795139 36.347893 
" style="fill: none; stroke: #0077bb; stroke-width: 1.2; stroke-linecap: round"/>
    <path d="M 350.201688 34.534854 
L 353.795139 36.347893 
L 350.188637 38.13483 
z
" style="fill: #0077bb; stroke: #0077bb; stroke-width: 1.2; stroke-linecap: round"/>
   </g>
   <g id="text_20">
    <text style="font-size: 9px; font-family: 'Helvetica Neue', 'Helvetica', 'Arial', 'DejaVu Sans', sans-serif; fill: #0077bb" transform="translate(147.484712 28.369406)">best:</text>
    <text style="font-size: 9px; font-family: 'Helvetica Neue', 'Helvetica', 'Arial', 'DejaVu Sans', sans-serif; fill: #0077bb" transform="translate(133.899634 37.854563)">high reward</text>
    <text style="font-size: 9px; font-family: 'Helvetica Neue', 'Helvetica', 'Arial', 'DejaVu Sans', sans-serif; fill: #0077bb" transform="translate(126.951353 47.448)">+ high diversity</text>
   </g>
   <g id="PathCollection_4">
    <path d="M 323.256672 169.477119 
C 324.029865 169.477119 324.771495 169.169926 325.318225 168.623196 
C 325.864955 168.076466 326.172148 167.334836 326.172148 166.561643 
C 326.172148 165.78845 325.864955 165.04682 325.318225 164.50009 
C 324.771495 163.95336 324.029865 163.646167 323.256672 163.646167 
C 322.483479 163.646167 321.741849 163.95336 321.195119 164.50009 
C 320.648389 165.04682 320.341196 165.78845 320.341196 166.561643 
C 320.341196 167.334836 320.648389 168.076466 321.195119 168.623196 
C 321.741849 169.169926 322.483479 169.477119 323.256672 169.477119 
z
" clip-path="url(#pa1323f8d86)" style="fill: #0077bb; fill-opacity: 0.12"/>
   </g>
   <g id="PathCollection_5">
    <path d="M 327.912556 170.867922 
C 328.685749 170.867922 329.427378 170.560729 329.974108 170.013999 
C 330.520839 169.467268 330.828032 168.725639 330.828032 167.952446 
C 330.828032 167.179253 330.520839 166.437623 329.974108 165.890893 
C 329.427378 165.344163 328.685749 165.03697 327.912556 165.03697 
C 327.139362 165.03697 326.397733 165.344163 325.851003 165.890893 
C 325.304273 166.437623 324.99708 167.179253 324.99708 167.952446 
C 324.99708 168.725639 325.304273 169.467268 325.851003 170.013999 
C 326.397733 170.560729 327.139362 170.867922 327.912556 170.867922 
z
" clip-path="url(#pa1323f8d86)" style="fill: #0077bb; fill-opacity: 0.205714"/>
   </g>
   <g id="PathCollection_6">
    <path d="M 334.442098 127.441004 
C 335.215291 127.441004 335.956921 127.133811 336.503651 126.587081 
C 337.050381 126.040351 337.357574 125.298721 337.357574 124.525528 
C 337.357574 123.752335 337.050381 123.010705 336.503651 122.463975 
C 335.956921 121.917245 335.215291 121.610052 334.442098 121.610052 
C 333.668905 121.610052 332.927275 121.917245 332.380545 122.463975 
C 331.833815 123.010705 331.526622 123.752335 331.526622 124.525528 
C 331.526622 125.298721 331.833815 126.040351 332.380545 126.587081 
C 332.927275 127.133811 333.668905 127.441004 334.442098 127.441004 
z
" clip-path="url(#pa1323f8d86)" style="fill: #0077bb; fill-opacity: 0.291429"/>
   </g>
   <g id="PathCollection_7">
    <path d="M 340.507836 106.801799 
C 341.28103 106.801799 342.022659 106.494606 342.569389 105.947876 
C 343.116119 105.401146 343.423312 104.659517 343.423312 103.886323 
C 343.423312 103.11313 343.116119 102.371501 342.569389 101.824771 
C 342.022659 101.27804 341.28103 100.970847 340.507836 100.970847 
C 339.734643 100.970847 338.993014 101.27804 338.446283 101.824771 
C 337.899553 102.371501 337.59236 103.11313 337.59236 103.886323 
C 337.59236 104.659517 337.899553 105.401146 338.446283 105.947876 
C 338.993014 106.494606 339.734643 106.801799 340.507836 106.801799 
z
" clip-path="url(#pa1323f8d86)" style="fill: #0077bb; fill-opacity: 0.377143"/>
   </g>
   <g id="PathCollection_8">
    <path d="M 346.374857 79.283524 
C 347.14805 79.283524 347.88968 78.976331 348.43641 78.429601 
C 348.98314 77.882871 349.290333 77.141242 349.290333 76.368048 
C 349.290333 75.594855 348.98314 74.853226 348.43641 74.306496 
C 347.88968 73.759765 347.14805 73.452572 346.374857 73.452572 
C 345.601664 73.452572 344.860035 73.759765 344.313304 74.306496 
C 343.766574 74.853226 343.459381 75.594855 343.459381 76.368048 
C 343.459381 77.141242 343.766574 77.882871 344.313304 78.429601 
C 344.860035 78.976331 345.601664 79.283524 346.374857 79.283524 
z
" clip-path="url(#pa1323f8d86)" style="fill: #0077bb; fill-opacity: 0.462857"/>
   </g>
   <g id="PathCollection_9">
    <path d="M 352.284232 46.006887 
C 353.057426 46.006887 353.799055 45.699694 354.345785 45.152964 
C 354.892515 44.606234 355.199708 43.864605 355.199708 43.091411 
C 355.199708 42.318218 354.892515 41.576589 354.345785 41.029859 
C 353.799055 40.483128 353.057426 40.175935 352.284232 40.175935 
C 351.511039 40.175935 350.76941 40.483128 350.22268 41.029859 
C 349.675949 41.576589 349.368756 42.318218 349.368756 43.091411 
C 349.368756 43.864605 349.675949 44.606234 350.22268 45.152964 
C 350.76941 45.699694 351.511039 46.006887 352.284232 46.006887 
z
" clip-path="url(#pa1323f8d86)" style="fill: #0077bb; fill-opacity: 0.548571"/>
   </g>
   <g id="PathCollection_10">
    <path d="M 356.657619 25.614065 
C 357.430812 25.614065 358.172441 25.306872 358.719172 24.760142 
C 359.265902 24.213412 359.573095 23.471782 359.573095 22.698589 
C 359.573095 21.925396 359.265902 21.183766 358.719172 20.637036 
C 358.172441 20.090306 357.430812 19.783113 356.657619 19.783113 
C 355.884426 19.783113 355.142796 20.090306 354.596066 20.637036 
C 354.049336 21.183766 353.742143 21.925396 353.742143 22.698589 
C 353.742143 23.471782 354.049336 24.213412 354.596066 24.760142 
C 355.142796 25.306872 355.884426 25.614065 356.657619 25.614065 
z
" clip-path="url(#pa1323f8d86)" style="fill: #0077bb; fill-opacity: 0.634286"/>
   </g>
   <g id="PathCollection_11">
    <path d="M 318.13057 179.818024 
L 323.961522 179.818024 
L 323.961522 173.987072 
L 318.13057 173.987072 
z
" clip-path="url(#pa1323f8d86)" style="fill: #cc3311; fill-opacity: 0.12"/>
   </g>
   <g id="PathCollection_12">
    <path d="M 311.746646 163.095442 
L 317.577598 163.095442 
L 317.577598 157.26449 
L 311.746646 157.26449 
z
" clip-path="url(#pa1323f8d86)" style="fill: #cc3311; fill-opacity: 0.205714"/>
   </g>
   <g id="PathCollection_13">
    <path d="M 308.554731 155.541988 
L 314.385683 155.541988 
L 314.385683 149.711036 
L 308.554731 149.711036 
z
" clip-path="url(#pa1323f8d86)" style="fill: #cc3311; fill-opacity: 0.291429"/>
   </g>
   <g id="PathCollection_14">
    <path d="M 300.821995 148.255625 
L 306.652947 148.255625 
L 306.652947 142.424673 
L 300.821995 142.424673 
z
" clip-path="url(#pa1323f8d86)" style="fill: #cc3311; fill-opacity: 0.377143"/>
   </g>
   <g id="PathCollection_15">
    <path d="M 296.056661 138.930748 
L 301.887613 138.930748 
L 301.887613 133.099797 
L 296.056661 133.099797 
z
" clip-path="url(#pa1323f8d86)" style="fill: #cc3311; fill-opacity: 0.462857"/>
   </g>
   <g id="PathCollection_16">
    <path d="M 291.133798 133.804723 
L 296.96475 133.804723 
L 296.96475 127.973771 
L 291.133798 127.973771 
z
" clip-path="url(#pa1323f8d86)" style="fill: #cc3311; fill-opacity: 0.548571"/>
   </g>
   <g id="PathCollection_17">
    <path d="M 282.718888 127.805596 
L 288.54984 127.805596 
L 288.54984 121.974644 
L 282.718888 121.974644 
z
" clip-path="url(#pa1323f8d86)" style="fill: #cc3311; fill-opacity: 0.634286"/>
   </g>
   <g id="PathCollection_18">
    <path d="M 244.072651 180.799009 
L 241.157175 186.629961 
L 246.988127 186.629961 
z
" clip-path="url(#pa1323f8d86)" style="fill: #ee7733; fill-opacity: 0.12"/>
   </g>
   <g id="PathCollection_19">
    <path d="M 219.661333 170.450575 
L 216.745857 176.281527 
L 222.576809 176.281527 
z
" clip-path="url(#pa1323f8d86)" style="fill: #ee7733; fill-opacity: 0.205714"/>
   </g>
   <g id="PathCollection_20">
    <path d="M 195.761556 157.890201 
L 192.84608 163.721153 
L 198.677032 163.721153 
z
" clip-path="url(#pa1323f8d86)" style="fill: #ee7733; fill-opacity: 0.291429"/>
   </g>
   <g id="PathCollection_21">
    <path d="M 182.688695 140.599184 
L 179.773219 146.430135 
L 185.604171 146.430135 
z
" clip-path="url(#pa1323f8d86)" style="fill: #ee7733; fill-opacity: 0.377143"/>
   </g>
   <g id="PathCollection_22">
    <path d="M 159.190736 133.360438 
L 156.27526 139.19139 
L 162.106212 139.19139 
z
" clip-path="url(#pa1323f8d86)" style="fill: #ee7733; fill-opacity: 0.462857"/>
   </g>
   <g id="PathCollection_23">
    <path d="M 139.665194 115.791376 
L 136.749718 121.622328 
L 142.58067 121.622328 
z
" clip-path="url(#pa1323f8d86)" style="fill: #ee7733; fill-opacity: 0.548571"/>
   </g>
   <g id="PathCollection_24">
    <path d="M 112.986468 103.85895 
L 110.070992 109.689902 
L 115.901943 109.689902 
z
" clip-path="url(#pa1323f8d86)" style="fill: #ee7733; fill-opacity: 0.634286"/>
   </g>
   <g id="legend_1">
    <g id="PathCollection_25">
     <defs>
      <path id="m676d3cc585" d="M 0 3 
C 0.795609 3 1.55874 2.683901 2.12132 2.12132 
C 2.683901 1.55874 3 0.795609 3 0 
C 3 -0.795609 2.683901 -1.55874 2.12132 -2.12132 
C 1.55874 -2.683901 0.795609 -3 0 -3 
C -0.795609 -3 -1.55874 -2.683901 -2.12132 -2.12132 
C -2.683901 -1.55874 -3 -0.795609 -3 0 
C -3 0.795609 -2.683901 1.55874 -2.12132 2.12132 
C -1.55874 2.683901 -0.795609 3 0 3 
z
" style="stroke: #0077bb"/>
     </defs>
     <g>
      <use xlink:href="#m676d3cc585" x="68.550703" y="195.018844" style="fill: #0077bb; stroke: #0077bb"/>
     </g>
    </g>
    <g id="text_21">
     <text style="font-size: 9.3px; font-family: 'Helvetica Neue', 'Helvetica', 'Arial', 'DejaVu Sans', sans-serif; text-anchor: start; fill: currentColor" x="85.290703" y="197.460094" transform="rotate(-0 85.290703 197.460094)">ADRPO (Ours)</text>
    </g>
    <g id="PathCollection_26">
     <defs>
      <path id="m6fd29a8bcd" d="M -3 3 
L 3 3 
L 3 -3 
L -3 -3 
z
" style="stroke: #cc3311"/>
     </defs>
     <g>
      <use xlink:href="#m6fd29a8bcd" x="68.550703" y="208.142016" style="fill: #cc3311; stroke: #cc3311"/>
     </g>
    </g>
    <g id="text_22">
     <text style="font-size: 9.3px; font-family: 'Helvetica Neue', 'Helvetica', 'Arial', 'DejaVu Sans', sans-serif; text-anchor: start; fill: currentColor" x="85.290703" y="210.583266" transform="rotate(-0 85.290703 210.583266)">DPO</text>
    </g>
    <g id="PathCollection_27">
     <defs>
      <path id="mfefc79cd62" d="M 0 -3 
L -3 3 
L 3 3 
z
" style="stroke: #ee7733"/>
     </defs>
     <g>
      <use xlink:href="#mfefc79cd62" x="68.550703" y="221.265188" style="fill: #ee7733; stroke: #ee7733"/>
     </g>
    </g>
    <g id="text_23">
     <text style="font-size: 9.3px; font-family: 'Helvetica Neue', 'Helvetica', 'Arial', 'DejaVu Sans', sans-serif; text-anchor: start; fill: currentColor" x="85.290703" y="223.706438" transform="rotate(-0 85.290703 223.706438)">ORW-CFM-W2</text>
    </g>
    <g id="PathCollection_28">
     <defs>
      <path id="m5213465e3d" d="M -0 6.708204 
L 6.708204 0 
L 0 -6.708204 
L -6.708204 -0 
z
" style="stroke: #ffffff"/>
     </defs>
     <g>
      <use xlink:href="#m5213465e3d" x="68.550703" y="234.388359" style="fill: #aa3377; stroke: #ffffff"/>
     </g>
    </g>
    <g id="text_24">
     <text style="font-size: 9.3px; font-family: 'Helvetica Neue', 'Helvetica', 'Arial', 'DejaVu Sans', sans-serif; text-anchor: start; fill: currentColor" x="85.290703" y="236.829609" transform="rotate(-0 85.290703 236.829609)">Pre-trained SD3</text>
    </g>
   </g>
   <g id="PathCollection_29">
    <defs>
     <path id="m4b0454ced6" d="M 0 -6.892024 
L -1.547356 -2.129753 
L -6.554705 -2.129753 
L -2.503674 0.813493 
L -4.05103 5.575765 
L -0 2.632519 
L 4.05103 5.575765 
L 2.503674 0.813493 
L 6.554705 -2.129753 
L 1.547356 -2.129753 
z
" style="stroke: #ffffff; stroke-width: 1.1"/>
    </defs>
    <g clip-path="url(#pa1323f8d86)">
     <use xlink:href="#m4b0454ced6" x="357.134598" y="36.36" style="fill: #0077bb; stroke: #ffffff; stroke-width: 1.1"/>
    </g>
   </g>
   <g id="PathCollection_30">
    <defs>
     <path id="m4adb9ec5c5" d="M 0 -6.892024 
L -1.547356 -2.129753 
L -6.554705 -2.129753 
L -2.503674 0.813493 
L -4.05103 5.575765 
L -0 2.632519 
L 4.05103 5.575765 
L 2.503674 0.813493 
L 6.554705 -2.129753 
L 1.547356 -2.129753 
z
" style="stroke: #ffffff; stroke-width: 1.1"/>
    </defs>
    <g clip-path="url(#pa1323f8d86)">
     <use xlink:href="#m4adb9ec5c5" x="287.355229" y="119.52" style="fill: #cc3311; stroke: #ffffff; stroke-width: 1.1"/>
    </g>
   </g>
   <g id="PathCollection_31">
    <defs>
     <path id="mcc54b46d5a" d="M 0 -6.892024 
L -1.547356 -2.129753 
L -6.554705 -2.129753 
L -2.503674 0.813493 
L -4.05103 5.575765 
L -0 2.632519 
L 4.05103 5.575765 
L 2.503674 0.813493 
L 6.554705 -2.129753 
L 1.547356 -2.129753 
z
" style="stroke: #ffffff; stroke-width: 1.1"/>
    </defs>
    <g clip-path="url(#pa1323f8d86)">
     <use xlink:href="#mcc54b46d5a" x="116.78344" y="108.432" style="fill: #ee7733; stroke: #ffffff; stroke-width: 1.1"/>
    </g>
   </g>
   <g id="PathCollection_32">
    <g clip-path="url(#pa1323f8d86)">
     <use xlink:href="#m5213465e3d" x="343.566387" y="224.856" style="fill: #aa3377; stroke: #ffffff"/>
    </g>
   </g>
  </g>
 </g>
 <defs>
  <clipPath id="pa1323f8d86">
   <rect x="50.880703" y="8.64" width="368.28" height="238.392"/>
  </clipPath>
 </defs>
</svg>
