<svg xmlns:xlink="http://www.w3.org/1999/xlink" viewBox="0 0 475.92 212.328" xmlns="http://www.w3.org/2000/svg" version="1.1">
 <metadata>
  <rdf:RDF xmlns:dc="http://purl.org/dc/elements/1.1/" xmlns:cc="http://creativecommons.org/ns#" xmlns:rdf="http://www.w3.org/1999/02/22-rdf-syntax-ns#">
   <cc:Work>
    <dc:type rdf:resource="http://purl.org/dc/dcmitype/StillImage"/>
    <dc:date>2026-07-15T21:57:59.422704</dc:date>
    <dc:format>image/svg+xml</dc:format>
    <dc:creator>
     <cc:Agent>
      <dc:title>Matplotlib v3.10.8, https://matplotlib.org/</dc:title>
     </cc:Agent>
    </dc:creator>
   </cc:Work>
  </rdf:RDF>
 </metadata>
 <defs>
  <style type="text/css">*{stroke-linejoin: round; stroke-linecap: butt}</style>
 </defs>
 <g id="figure_1">
  <g id="patch_1">
   <path d="M 0 212.328 
L 475.92 212.328 
L 475.92 0 
L 0 0 
L 0 212.328 
z
" style="fill: none"/>
  </g>
  <g id="axes_1">
   <g id="patch_2">
    <path d="M 17.6616 125.446032 
L 78.5952 125.446032 
Q 84.21984 125.446032 84.21984 120.52296 
L 84.21984 91.80504 
Q 84.21984 86.881968 78.5952 86.881968 
L 17.6616 86.881968 
Q 12.03696 86.881968 12.03696 91.80504 
L 12.03696 120.52296 
Q 12.03696 125.446032 17.6616 125.446032 
z
" clip-path="url(#pd1c4a5aae6)" style="fill: #808080; fill-opacity: 0.09; stroke: #808080; stroke-opacity: 0.4; stroke-width: 1.4; stroke-linejoin: miter"/>
   </g>
   <g id="patch_3">
    <path d="M 106.7184 125.446032 
L 172.3392 125.446032 
Q 177.96384 125.446032 177.96384 120.52296 
L 177.96384 91.80504 
Q 177.96384 86.881968 172.3392 86.881968 
L 106.7184 86.881968 
Q 101.09376 86.881968 101.09376 91.80504 
L 101.09376 120.52296 
Q 101.09376 125.446032 106.7184 125.446032 
z
" clip-path="url(#pd1c4a5aae6)" style="fill: #0077bb; fill-opacity: 0.12; stroke: #0077bb; stroke-width: 1.4; stroke-linejoin: miter"/>
   </g>
   <g id="patch_4">
    <path d="M 85.282699 106.164 
Q 92.657192 106.164 98.354633 106.164 
" clip-path="url(#pd1c4a5aae6)" style="fill: none; stroke: #808080; stroke-opacity: 0.4; stroke-width: 1.5; stroke-linecap: round"/>
    <path d="M 93.554633 103.764 
L 98.354633 106.164 
L 93.554633 108.564 
z
" clip-path="url(#pd1c4a5aae6)" style="fill: #808080; fill-opacity: 0.4; stroke: #808080; stroke-opacity: 0.4; stroke-width: 1.5; stroke-linecap: round"/>
   </g>
   <g id="patch_5">
    <path d="M 179.026985 106.164 
Q 187.573089 106.164 194.442142 106.164 
" clip-path="url(#pd1c4a5aae6)" style="fill: none; stroke: #808080; stroke-opacity: 0.4; stroke-width: 1.5; stroke-linecap: round"/>
    <path d="M 189.642142 103.764 
L 194.442142 106.164 
L 189.642142 108.564 
z
" clip-path="url(#pd1c4a5aae6)" style="fill: #808080; fill-opacity: 0.4; stroke: #808080; stroke-opacity: 0.4; stroke-width: 1.5; stroke-linecap: round"/>
   </g>
   <g id="patch_6">
    <path d="M 202.806 125.446032 
L 249.678 125.446032 
Q 255.30264 125.446032 255.30264 120.52296 
L 255.30264 91.80504 
Q 255.30264 86.881968 249.678 86.881968 
L 202.806 86.881968 
Q 197.18136 86.881968 197.18136 91.80504 
L 197.18136 120.52296 
Q 197.18136 125.446032 202.806 125.446032 
z
" clip-path="url(#pd1c4a5aae6)" style="fill: #808080; fill-opacity: 0.09; stroke: #808080; stroke-opacity: 0.4; stroke-width: 1.4; stroke-linejoin: miter"/>
   </g>
   <g id="patch_7">
    <path d="M 284.832 65.958912 
L 369.2016 65.958912 
Q 374.82624 65.958912 374.82624 61.03584 
L 374.82624 39.702528 
Q 374.82624 34.779456 369.2016 34.779456 
L 284.832 34.779456 
Q 279.20736 34.779456 279.20736 39.702528 
L 279.20736 61.03584 
Q 279.20736 65.958912 284.832 65.958912 
z
" clip-path="url(#pd1c4a5aae6)" style="fill: #ee7733; fill-opacity: 0.12; stroke: #ee7733; stroke-width: 1.4; stroke-linejoin: miter"/>
   </g>
   <g id="patch_8">
    <path d="M 385.6068 65.958912 
L 455.9148 65.958912 
Q 461.53944 65.958912 461.53944 61.03584 
L 461.53944 39.702528 
Q 461.53944 34.779456 455.9148 34.779456 
L 385.6068 34.779456 
Q 379.98216 34.779456 379.98216 39.702528 
L 379.98216 61.03584 
Q 379.98216 65.958912 385.6068 65.958912 
z
" clip-path="url(#pd1c4a5aae6)" style="fill: #ee7733; fill-opacity: 0.12; stroke: #ee7733; stroke-width: 1.4; stroke-linejoin: miter"/>
   </g>
   <g id="patch_9">
    <path d="M 255.639704 88.212295 
Q 267.2536 74.165725 277.798855 61.411636 
" clip-path="url(#pd1c4a5aae6)" style="fill: none; stroke: #ee7733; stroke-width: 1.5; stroke-linecap: round"/>
    <path d="M 272.890578 63.581618 
L 277.798855 61.411636 
L 276.589875 66.640247 
z
" clip-path="url(#pd1c4a5aae6)" style="fill: #ee7733; stroke: #ee7733; stroke-width: 1.5; stroke-linecap: round"/>
   </g>
   <g id="patch_10">
    <path d="M 268.4268 186.984432 
L 321.86088 186.984432 
Q 327.48552 186.984432 327.48552 182.06136 
L 327.48552 154.984464 
Q 327.48552 150.061392 321.86088 150.061392 
L 268.4268 150.061392 
Q 262.80216 150.061392 262.80216 154.984464 
L 262.80216 182.06136 
Q 262.80216 186.984432 268.4268 186.984432 
z
" clip-path="url(#pd1c4a5aae6)" style="fill: #0077bb; fill-opacity: 0.12; stroke: #0077bb; stroke-width: 1.4; stroke-linejoin: miter"/>
   </g>
   <g id="patch_11">
    <path d="M 338.7348 186.984432 
L 392.16888 186.984432 
Q 397.79352 186.984432 397.79352 182.06136 
L 397.79352 154.984464 
Q 397.79352 150.061392 392.16888 150.061392 
L 338.7348 150.061392 
Q 333.11016 150.061392 333.11016 154.984464 
L 333.11016 182.06136 
Q 333.11016 186.984432 338.7348 186.984432 
z
" clip-path="url(#pd1c4a5aae6)" style="fill: #009988; fill-opacity: 0.12; stroke: #009988; stroke-width: 1.4; stroke-linejoin: miter"/>
   </g>
   <g id="patch_12">
    <path d="M 409.0428 186.984432 
L 462.47688 186.984432 
Q 468.10152 186.984432 468.10152 182.06136 
L 468.10152 154.984464 
Q 468.10152 150.061392 462.47688 150.061392 
L 409.0428 150.061392 
Q 403.41816 150.061392 403.41816 154.984464 
L 403.41816 182.06136 
Q 403.41816 186.984432 409.0428 186.984432 
z
" clip-path="url(#pd1c4a5aae6)" style="fill: #ee3377; fill-opacity: 0.12; stroke: #ee3377; stroke-width: 1.4; stroke-linejoin: miter"/>
   </g>
   <g id="patch_13">
    <path d="M 139.5288 150.471648 
Q 198.961746 150.471648 256.605839 150.471648 
" clip-path="url(#pd1c4a5aae6)" style="fill: none; stroke: #0077bb; stroke-width: 1.6; stroke-linecap: round"/>
    <path d="M 251.805839 148.071648 
L 256.605839 150.471648 
L 251.805839 152.871648 
z
" clip-path="url(#pd1c4a5aae6)" style="fill: #0077bb; stroke: #0077bb; stroke-width: 1.6; stroke-linecap: round"/>
   </g>
   <g id="line2d_1">
    <path d="M 139.5288 124.62552 
L 139.5288 150.471648 
" clip-path="url(#pd1c4a5aae6)" style="fill: none; stroke: #0077bb; stroke-width: 1.6; stroke-linecap: round"/>
   </g>
   <g id="text_1">
    <text style="font-size: 10px; font-family: 'Helvetica Neue', 'Helvetica', 'Arial', 'DejaVu Sans', sans-serif; fill: currentColor" transform="translate(30.773713 103.479625)">Audio +</text>
    <text style="font-size: 10px; font-family: 'Helvetica Neue', 'Helvetica', 'Arial', 'DejaVu Sans', sans-serif; fill: currentColor" transform="translate(28.0284 114.018687)">Question</text>
   </g>
   <g id="text_2">
    <text style="font-size: 10px; font-family: 'Helvetica Neue', 'Helvetica', 'Arial', 'DejaVu Sans', sans-serif; fill: #0077bb" transform="translate(115.823331 103.419469)">Reasoning</text>
    <text style="font-size: 10px; font-family: 'Helvetica Neue', 'Helvetica', 'Arial', 'DejaVu Sans', sans-serif; fill: #0077bb" transform="translate(127.488956 114.078844)">chain</text>
   </g>
   <g id="text_3">
    <text style="font-size: 10px; font-family: 'Helvetica Neue', 'Helvetica', 'Arial', 'DejaVu Sans', sans-serif; text-anchor: middle; fill: currentColor" x="226.242" y="108.749156" transform="rotate(-0 226.242 108.749156)">Answer</text>
   </g>
   <g id="text_4">
    <text style="font-weight: 600; font-size: 9.5px; font-family: 'Helvetica Neue', 'Helvetica', 'Arial', 'DejaVu Sans', sans-serif; text-anchor: middle; fill: #ee7733" x="324.6732" y="20.01024" transform="rotate(-0 324.6732 20.01024)">OUTCOME-ONLY RL  (prior work)</text>
   </g>
   <g id="text_5">
    <text style="font-size: 9.5px; font-family: 'Helvetica Neue', 'Helvetica', 'Arial', 'DejaVu Sans', sans-serif; text-anchor: middle; fill: #ee7733" x="327.0168" y="52.825082" transform="rotate(-0 327.0168 52.825082)">answer correct?</text>
   </g>
   <g id="text_6">
    <text style="font-size: 9.5px; font-family: 'Helvetica Neue', 'Helvetica', 'Arial', 'DejaVu Sans', sans-serif; text-anchor: middle; fill: #ee7733" x="420.7608" y="52.825082" transform="rotate(-0 420.7608 52.825082)">valid format?</text>
   </g>
   <g id="text_7">
    <text style="font-weight: 600; font-size: 9.5px; font-family: 'Helvetica Neue', 'Helvetica', 'Arial', 'DejaVu Sans', sans-serif; text-anchor: middle; fill: #0077bb" x="324.6732" y="138.163968" transform="rotate(-0 324.6732 138.163968)">CESAR  —  + PROCESS REWARDS</text>
   </g>
   <g id="text_8">
    <text style="font-size: 8.4px; font-family: 'Helvetica Neue', 'Helvetica', 'Arial', 'DejaVu Sans', sans-serif; fill: #0077bb" transform="translate(272.740778 166.140987)">consistency</text>
    <text style="font-size: 8.4px; font-family: 'Helvetica Neue', 'Helvetica', 'Arial', 'DejaVu Sans', sans-serif; fill: #0077bb" transform="translate(265.50234 175.247899)">(reason vs Q, A)</text>
   </g>
   <g id="text_9">
    <text style="font-size: 8.4px; font-family: 'Helvetica Neue', 'Helvetica', 'Arial', 'DejaVu Sans', sans-serif; fill: #009988" transform="translate(348.801465 166.132456)">structure</text>
    <text style="font-size: 8.4px; font-family: 'Helvetica Neue', 'Helvetica', 'Arial', 'DejaVu Sans', sans-serif; fill: #009988" transform="translate(322.201684 175.155368)">(pattern, logic, domain)</text>
   </g>
   <g id="text_10">
    <text style="font-size: 8.4px; font-family: 'Helvetica Neue', 'Helvetica', 'Arial', 'DejaVu Sans', sans-serif; fill: #ee3377" transform="translate(412.810778 166.175506)">overthinking</text>
    <text style="font-size: 8.4px; font-family: 'Helvetica Neue', 'Helvetica', 'Arial', 'DejaVu Sans', sans-serif; fill: #ee3377" transform="translate(422.06784 175.129381)">penalty</text>
   </g>
  </g>
 </g>
 <defs>
  <clipPath id="pd1c4a5aae6">
   <rect x="3.6" y="3.6" width="468.72" height="205.128"/>
  </clipPath>
 </defs>
</svg>
