<?xml version="1.0" encoding="UTF-8" standalone="no"?>
<svg
   xmlns:dc="http://purl.org/dc/elements/1.1/"
   xmlns:cc="http://creativecommons.org/ns#"
   xmlns:rdf="http://www.w3.org/1999/02/22-rdf-syntax-ns#"
   xmlns:svg="http://www.w3.org/2000/svg"
   xmlns="http://www.w3.org/2000/svg"
   viewBox="0 0 1280 720"
   height="720"
   width="1280"
   xml:space="preserve"
   id="svg2"
   version="1.1"><metadata
     id="metadata8"><rdf:RDF><cc:Work
         rdf:about=""><dc:format>image/svg+xml</dc:format><dc:type
           rdf:resource="http://purl.org/dc/dcmitype/StillImage" /></cc:Work></rdf:RDF></metadata><defs
     id="defs6"><clipPath
       id="clipPath18"
       clipPathUnits="userSpaceOnUse"><path
         style="clip-rule:evenodd"
         id="path16"
         d="M 0,1.2207e-4 H 960 V 540.00012 H 0 Z" /></clipPath><clipPath
       id="clipPath32"
       clipPathUnits="userSpaceOnUse"><path
         style="clip-rule:evenodd"
         id="path30"
         d="M 1.4305e-5,0 H 960.00001 V 540 H 1.4305e-5 Z" /></clipPath><clipPath
       id="clipPath48"
       clipPathUnits="userSpaceOnUse"><path
         style="clip-rule:evenodd"
         id="path46"
         d="M 1.4305e-5,0 H 960.00001 V 540 H 1.4305e-5 Z" /></clipPath><clipPath
       id="clipPath64"
       clipPathUnits="userSpaceOnUse"><path
         style="clip-rule:evenodd"
         id="path62"
         d="M 1.4305e-5,0 H 960.00001 V 540 H 1.4305e-5 Z" /></clipPath><clipPath
       id="clipPath80"
       clipPathUnits="userSpaceOnUse"><path
         style="clip-rule:evenodd"
         id="path78"
         d="M 1.4305e-5,0 H 960.00001 V 540 H 1.4305e-5 Z" /></clipPath><clipPath
       id="clipPath96"
       clipPathUnits="userSpaceOnUse"><path
         style="clip-rule:evenodd"
         id="path94"
         d="M 1.4305e-5,0 H 960.00001 V 540 H 1.4305e-5 Z" /></clipPath></defs><g
     transform="matrix(1.3333333,0,0,-1.3333333,0,720)"
     id="g10"><g
       id="g12"><g
         clip-path="url(#clipPath18)"
         id="g14"><path
           id="path20"
           style="fill:#ffffff;fill-opacity:1;fill-rule:evenodd;stroke:none"
           d="M 0,6.1035e-5 H 960 V 540.00006 H 0 Z" /></g></g><path
       id="path22"
       style="fill:#000000;fill-opacity:1;fill-rule:evenodd;stroke:none"
       d="m 237.12,324.12 c 0,17.03 13.83,30.84 30.9,30.84 17.07,0 30.9,-13.81 30.9,-30.84 0,-17.03 -13.83,-30.84 -30.9,-30.84 -17.07,0 -30.9,13.81 -30.9,30.84 z" /><path
       id="path24"
       style="fill:none;stroke:#000000;stroke-width:0.95999998;stroke-linecap:butt;stroke-linejoin:miter;stroke-miterlimit:10;stroke-dasharray:none;stroke-opacity:1"
       d="m 237.12,324.12 c 0,17.03 13.83,30.84 30.9,30.84 17.07,0 30.9,-13.81 30.9,-30.84 0,-17.03 -13.83,-30.84 -30.9,-30.84 -17.07,0 -30.9,13.81 -30.9,30.84 z" /><g
       id="g26"><g
         clip-path="url(#clipPath32)"
         id="g28"><text
           id="text36"
           style="font-variant:normal;font-weight:bold;font-size:39.95999908px;font-family:Arial;-inkscape-font-specification:Arial-BoldMT;writing-mode:lr-tb;fill:#ffffff;fill-opacity:1;fill-rule:nonzero;stroke:none"
           transform="matrix(1,0,0,-1,256.9,309.19)"><tspan
             id="tspan34"
             y="0"
             x="0">2</tspan></text>
</g></g><path
       id="path38"
       style="fill:#000000;fill-opacity:1;fill-rule:evenodd;stroke:none"
       d="m 449.16,469.14 c 0,17.07 13.81,30.9 30.84,30.9 17.03,0 30.84,-13.83 30.84,-30.9 0,-17.07 -13.81,-30.9 -30.84,-30.9 -17.03,0 -30.84,13.83 -30.84,30.9 z" /><path
       id="path40"
       style="fill:none;stroke:#000000;stroke-width:0.95999998;stroke-linecap:butt;stroke-linejoin:miter;stroke-miterlimit:10;stroke-dasharray:none;stroke-opacity:1"
       d="m 449.16,469.14 c 0,17.07 13.81,30.9 30.84,30.9 17.03,0 30.84,-13.83 30.84,-30.9 0,-17.07 -13.81,-30.9 -30.84,-30.9 -17.03,0 -30.84,13.83 -30.84,30.9 z" /><g
       id="g42"><g
         clip-path="url(#clipPath48)"
         id="g44"><text
           id="text52"
           style="font-variant:normal;font-weight:bold;font-size:39.95999908px;font-family:Arial;-inkscape-font-specification:Arial-BoldMT;writing-mode:lr-tb;fill:#ffffff;fill-opacity:1;fill-rule:nonzero;stroke:none"
           transform="matrix(1,0,0,-1,468.91,454.25)"><tspan
             id="tspan50"
             y="0"
             x="0">1</tspan></text>
</g></g><path
       id="path54"
       style="fill:#000000;fill-opacity:1;fill-rule:evenodd;stroke:none"
       d="m 661.08,327.3 c 0,17.07 13.83,30.9 30.9,30.9 17.07,0 30.9,-13.83 30.9,-30.9 0,-17.07 -13.83,-30.9 -30.9,-30.9 -17.07,0 -30.9,13.83 -30.9,30.9 z" /><path
       id="path56"
       style="fill:none;stroke:#000000;stroke-width:0.95999998;stroke-linecap:butt;stroke-linejoin:miter;stroke-miterlimit:10;stroke-dasharray:none;stroke-opacity:1"
       d="m 661.08,327.3 c 0,17.07 13.83,30.9 30.9,30.9 17.07,0 30.9,-13.83 30.9,-30.9 0,-17.07 -13.83,-30.9 -30.9,-30.9 -17.07,0 -30.9,13.83 -30.9,30.9 z" /><g
       id="g58"><g
         clip-path="url(#clipPath64)"
         id="g60"><text
           id="text68"
           style="font-variant:normal;font-weight:bold;font-size:39.98400116px;font-family:Arial;-inkscape-font-specification:Arial-BoldMT;writing-mode:lr-tb;fill:#ffffff;fill-opacity:1;fill-rule:nonzero;stroke:none"
           transform="matrix(1,0,0,-1,680.95,312.38)"><tspan
             id="tspan66"
             y="0"
             x="0">3</tspan></text>
</g></g><path
       id="path70"
       style="fill:#000000;fill-opacity:1;fill-rule:evenodd;stroke:none"
       d="m 356.04,97.5 c 0,17.07 13.83,30.9 30.9,30.9 17.07,0 30.9,-13.83 30.9,-30.9 0,-17.066 -13.83,-30.9 -30.9,-30.9 -17.07,0 -30.9,13.834 -30.9,30.9 z" /><path
       id="path72"
       style="fill:none;stroke:#000000;stroke-width:0.95999998;stroke-linecap:butt;stroke-linejoin:miter;stroke-miterlimit:10;stroke-dasharray:none;stroke-opacity:1"
       d="m 356.04,97.5 c 0,17.07 13.83,30.9 30.9,30.9 17.07,0 30.9,-13.83 30.9,-30.9 0,-17.066 -13.83,-30.9 -30.9,-30.9 -17.07,0 -30.9,13.834 -30.9,30.9 z" /><g
       id="g74"><g
         clip-path="url(#clipPath80)"
         id="g76"><text
           id="text84"
           style="font-variant:normal;font-weight:bold;font-size:39.95999908px;font-family:Arial;-inkscape-font-specification:Arial-BoldMT;writing-mode:lr-tb;fill:#ffffff;fill-opacity:1;fill-rule:nonzero;stroke:none"
           transform="matrix(1,0,0,-1,375.86,82.56)"><tspan
             id="tspan82"
             y="0"
             x="0">4</tspan></text>
</g></g><path
       id="path86"
       style="fill:#000000;fill-opacity:1;fill-rule:evenodd;stroke:none"
       d="m 542.16,97.5 c 0,17.07 13.83,30.9 30.9,30.9 17.07,0 30.9,-13.83 30.9,-30.9 0,-17.066 -13.83,-30.9 -30.9,-30.9 -17.07,0 -30.9,13.834 -30.9,30.9 z" /><path
       id="path88"
       style="fill:none;stroke:#000000;stroke-width:0.95999998;stroke-linecap:butt;stroke-linejoin:miter;stroke-miterlimit:10;stroke-dasharray:none;stroke-opacity:1"
       d="m 542.16,97.5 c 0,17.07 13.83,30.9 30.9,30.9 17.07,0 30.9,-13.83 30.9,-30.9 0,-17.066 -13.83,-30.9 -30.9,-30.9 -17.07,0 -30.9,13.834 -30.9,30.9 z" /><g
       id="g90"><g
         clip-path="url(#clipPath96)"
         id="g92"><text
           id="text100"
           style="font-variant:normal;font-weight:bold;font-size:39.95999908px;font-family:Arial;-inkscape-font-specification:Arial-BoldMT;writing-mode:lr-tb;fill:#ffffff;fill-opacity:1;fill-rule:nonzero;stroke:none"
           transform="matrix(1,0,0,-1,561.98,82.56)"><tspan
             id="tspan98"
             y="0"
             x="0">5</tspan></text>
</g></g><path
       id="path102"
       style="fill:none;stroke:#4472c4;stroke-width:3;stroke-linecap:butt;stroke-linejoin:miter;stroke-miterlimit:10;stroke-dasharray:none;stroke-opacity:1"
       d="M 480.02,438.18 462.78,293.15" /><path
       id="path104"
       style="fill:none;stroke:#4472c4;stroke-width:3;stroke-linecap:butt;stroke-linejoin:miter;stroke-miterlimit:10;stroke-dasharray:none;stroke-opacity:1"
       d="M 298.98,324.06 462.85,293.17" /><path
       id="path106"
       style="fill:none;stroke:#4472c4;stroke-width:3;stroke-linecap:butt;stroke-linejoin:miter;stroke-miterlimit:10;stroke-dasharray:none;stroke-opacity:1"
       d="M 551.23,119.35 462.78,293.22" /><path
       id="path108"
       style="fill:none;stroke:#00b050;stroke-width:3;stroke-linecap:butt;stroke-linejoin:miter;stroke-miterlimit:10;stroke-dasharray:none;stroke-opacity:1"
       d="M 480.06,438.18 551.27,256.11" /><path
       id="path110"
       style="fill:none;stroke:#00b050;stroke-width:3;stroke-linecap:butt;stroke-linejoin:miter;stroke-miterlimit:10;stroke-dasharray:none;stroke-opacity:1"
       d="M 551.31,256.14 408.9,119.31" /><path
       id="path112"
       style="fill:none;stroke:#00b050;stroke-width:3;stroke-linecap:butt;stroke-linejoin:miter;stroke-miterlimit:10;stroke-dasharray:none;stroke-opacity:1"
       d="m 551.22,256.07 118.95,49.27" /><path
       id="path114"
       style="fill:none;stroke:#7030a0;stroke-width:3;stroke-linecap:butt;stroke-linejoin:miter;stroke-miterlimit:10;stroke-dasharray:none;stroke-opacity:1"
       d="M 298.98,324.06 462.85,235.15" /><path
       id="path116"
       style="fill:none;stroke:#7030a0;stroke-width:3;stroke-linecap:butt;stroke-linejoin:miter;stroke-miterlimit:10;stroke-dasharray:none;stroke-opacity:1"
       d="M 462.86,235.14 408.9,119.28" /><path
       id="path118"
       style="fill:none;stroke:#7030a0;stroke-width:3;stroke-linecap:butt;stroke-linejoin:miter;stroke-miterlimit:10;stroke-dasharray:none;stroke-opacity:1"
       d="M 462.78,235.14 551.23,119.28" /><path
       id="path120"
       style="fill:none;stroke:#ff0000;stroke-width:3;stroke-linecap:butt;stroke-linejoin:miter;stroke-miterlimit:10;stroke-dasharray:none;stroke-opacity:1"
       d="m 480.06,438.18 9.32,-114.14" /><path
       id="path122"
       style="fill:none;stroke:#ff0000;stroke-width:3;stroke-linecap:butt;stroke-linejoin:miter;stroke-miterlimit:10;stroke-dasharray:none;stroke-opacity:1"
       d="M 298.98,324.06 H 489.41" /><path
       id="path124"
       style="fill:none;stroke:#ff0000;stroke-width:3;stroke-linecap:butt;stroke-linejoin:miter;stroke-miterlimit:10;stroke-dasharray:none;stroke-opacity:1"
       d="M 489.42,324.06 670.26,305.39" /><path
       id="path126"
       style="fill:none;stroke:#ffc000;stroke-width:3;stroke-linecap:butt;stroke-linejoin:miter;stroke-miterlimit:10;stroke-dasharray:none;stroke-opacity:1"
       d="M 480.06,438.18 603.99,224.65" /><path
       id="path128"
       style="fill:none;stroke:#ffc000;stroke-width:3;stroke-linecap:butt;stroke-linejoin:miter;stroke-miterlimit:10;stroke-dasharray:none;stroke-opacity:1"
       d="m 604.02,224.62 66.23,80.72" /><path
       id="path130"
       style="fill:none;stroke:#ffc000;stroke-width:3;stroke-linecap:butt;stroke-linejoin:miter;stroke-miterlimit:10;stroke-dasharray:none;stroke-opacity:1"
       d="M 603.95,224.7 551.22,119.33" /></g></svg>