<?xml version="1.0" encoding="UTF-8" standalone="no"?>
<svg
   xmlns:dc="http://purl.org/dc/elements/1.1/"
   xmlns:cc="http://creativecommons.org/ns#"
   xmlns:rdf="http://www.w3.org/1999/02/22-rdf-syntax-ns#"
   xmlns:svg="http://www.w3.org/2000/svg"
   xmlns="http://www.w3.org/2000/svg"
   viewBox="0 0 1280 720"
   height="720"
   width="1280"
   xml:space="preserve"
   id="svg2"
   version="1.1"><metadata
     id="metadata8"><rdf:RDF><cc:Work
         rdf:about=""><dc:format>image/svg+xml</dc:format><dc:type
           rdf:resource="http://purl.org/dc/dcmitype/StillImage" /></cc:Work></rdf:RDF></metadata><defs
     id="defs6"><clipPath
       id="clipPath18"
       clipPathUnits="userSpaceOnUse"><path
         style="clip-rule:evenodd"
         id="path16"
         d="M 0,1.2207e-4 H 960 V 540.00012 H 0 Z" /></clipPath><clipPath
       id="clipPath28"
       clipPathUnits="userSpaceOnUse"><path
         style="clip-rule:evenodd"
         id="path26"
         d="M 0,540 H 960 V 3.0518e-4 L 0,2.4414e-4" /></clipPath><clipPath
       id="clipPath38"
       clipPathUnits="userSpaceOnUse"><path
         style="clip-rule:evenodd"
         id="path36"
         d="M 0,540 H 960 V 2.4414e-4 H 0" /></clipPath><clipPath
       id="clipPath48"
       clipPathUnits="userSpaceOnUse"><path
         style="clip-rule:evenodd"
         id="path46"
         d="M -3.0518e-5,540 H 960 V 1.8311e-4 L -6.1035e-5,1.2207e-4" /></clipPath><clipPath
       id="clipPath62"
       clipPathUnits="userSpaceOnUse"><path
         style="clip-rule:evenodd"
         id="path60"
         d="M 1.4305e-5,0 H 960.00001 V 540 H 1.4305e-5 Z" /></clipPath><clipPath
       id="clipPath78"
       clipPathUnits="userSpaceOnUse"><path
         style="clip-rule:evenodd"
         id="path76"
         d="M 1.4305e-5,0 H 960.00001 V 540 H 1.4305e-5 Z" /></clipPath><clipPath
       id="clipPath94"
       clipPathUnits="userSpaceOnUse"><path
         style="clip-rule:evenodd"
         id="path92"
         d="M 1.4305e-5,0 H 960.00001 V 540 H 1.4305e-5 Z" /></clipPath><clipPath
       id="clipPath110"
       clipPathUnits="userSpaceOnUse"><path
         style="clip-rule:evenodd"
         id="path108"
         d="M 1.4305e-5,0 H 960.00001 V 540 H 1.4305e-5 Z" /></clipPath><clipPath
       id="clipPath126"
       clipPathUnits="userSpaceOnUse"><path
         style="clip-rule:evenodd"
         id="path124"
         d="M 1.4305e-5,0 H 960.00001 V 540 H 1.4305e-5 Z" /></clipPath><clipPath
       id="clipPath154"
       clipPathUnits="userSpaceOnUse"><path
         style="clip-rule:evenodd"
         id="path152"
         d="M 1.4305e-5,0 H 960.00001 V 540 H 1.4305e-5 Z" /></clipPath><clipPath
       id="clipPath170"
       clipPathUnits="userSpaceOnUse"><path
         style="clip-rule:evenodd"
         id="path168"
         d="M 1.4305e-5,0 H 960.00001 V 540 H 1.4305e-5 Z" /></clipPath><clipPath
       id="clipPath186"
       clipPathUnits="userSpaceOnUse"><path
         style="clip-rule:evenodd"
         id="path184"
         d="M 1.4305e-5,0 H 960.00001 V 540 H 1.4305e-5 Z" /></clipPath><clipPath
       id="clipPath202"
       clipPathUnits="userSpaceOnUse"><path
         style="clip-rule:evenodd"
         id="path200"
         d="M 1.4305e-5,0 H 960.00001 V 540 H 1.4305e-5 Z" /></clipPath><clipPath
       id="clipPath218"
       clipPathUnits="userSpaceOnUse"><path
         style="clip-rule:evenodd"
         id="path216"
         d="M 1.4305e-5,0 H 960.00001 V 540 H 1.4305e-5 Z" /></clipPath></defs><g
     transform="matrix(1.3333333,0,0,-1.3333333,0,720)"
     id="g10"><g
       id="g12"><g
         clip-path="url(#clipPath18)"
         id="g14"><path
           id="path20"
           style="fill:#ffffff;fill-opacity:1;fill-rule:evenodd;stroke:none"
           d="M 0,6.1035e-5 H 960 V 540.00006 H 0 Z" /></g></g><g
       id="g22"><g
         clip-path="url(#clipPath28)"
         id="g24"><path
           id="path30"
           style="fill:#ffc000;fill-opacity:0.50196001;fill-rule:evenodd;stroke:none"
           d="m 609.11,340.31 c 83.14,40.97 166.31,42.19 185.76,2.71 19.46,-39.47 -32.16,-104.69 -115.3,-145.67 -83.14,-40.98 -166.31,-42.19 -185.77,-2.72 -19.46,39.48 32.17,104.7 115.31,145.68 z" /></g></g><g
       id="g32"><g
         clip-path="url(#clipPath38)"
         id="g34"><path
           id="path40"
           style="fill:#4472c4;fill-opacity:0.50196001;fill-rule:evenodd;stroke:none"
           d="m 489.34,357.1 c 32.7,67.81 91.34,107.28 130.98,88.17 39.65,-19.12 45.28,-89.58 12.58,-157.4 -32.7,-67.81 -91.34,-107.28 -130.98,-88.17 -39.65,19.12 -45.28,89.59 -12.58,157.4 z" /></g></g><g
       id="g42"><g
         clip-path="url(#clipPath48)"
         id="g44"><path
           id="path50"
           style="fill:#ed7d31;fill-opacity:0.50196001;fill-rule:evenodd;stroke:none"
           d="m 580.65,266.15 c -51.11,62.08 -61.91,137.64 -24.11,168.76 37.8,31.11 109.87,6 160.98,-56.09 51.12,-62.08 61.91,-137.64 24.11,-168.75 -37.8,-31.12 -109.87,-6.01 -160.98,56.08 z" /></g></g><path
       id="path52"
       style="fill:#000000;fill-opacity:1;fill-rule:evenodd;stroke:none"
       d="m 269.16,405.84 c 0,8.88 6.72,16.08 15,16.08 8.28,0 15,-7.2 15,-16.08 0,-8.88 -6.72,-16.08 -15,-16.08 -8.28,0 -15,7.2 -15,16.08 z" /><path
       id="path54"
       style="fill:none;stroke:#000000;stroke-width:0.95999998;stroke-linecap:butt;stroke-linejoin:miter;stroke-miterlimit:10;stroke-dasharray:none;stroke-opacity:1"
       d="m 269.16,405.84 c 0,8.88 6.72,16.08 15,16.08 8.28,0 15,-7.2 15,-16.08 0,-8.88 -6.72,-16.08 -15,-16.08 -8.28,0 -15,7.2 -15,16.08 z" /><g
       id="g56"><g
         clip-path="url(#clipPath62)"
         id="g58"><text
           id="text66"
           style="font-variant:normal;font-weight:normal;font-size:18.02400017px;font-family:Calibri;-inkscape-font-specification:Calibri;writing-mode:lr-tb;fill:#ffffff;fill-opacity:1;fill-rule:nonzero;stroke:none"
           transform="matrix(1,0,0,-1,279.62,399.77)"><tspan
             id="tspan64"
             y="0"
             x="0">1</tspan></text>
</g></g><path
       id="path68"
       style="fill:#000000;fill-opacity:1;fill-rule:evenodd;stroke:none"
       d="m 381.84,322.44 c 0,8.88 6.72,16.08 15,16.08 8.28,0 15,-7.2 15,-16.08 0,-8.88 -6.72,-16.08 -15,-16.08 -8.28,0 -15,7.2 -15,16.08 z" /><path
       id="path70"
       style="fill:none;stroke:#000000;stroke-width:0.95999998;stroke-linecap:butt;stroke-linejoin:miter;stroke-miterlimit:10;stroke-dasharray:none;stroke-opacity:1"
       d="m 381.84,322.44 c 0,8.88 6.72,16.08 15,16.08 8.28,0 15,-7.2 15,-16.08 0,-8.88 -6.72,-16.08 -15,-16.08 -8.28,0 -15,7.2 -15,16.08 z" /><g
       id="g72"><g
         clip-path="url(#clipPath78)"
         id="g74"><text
           id="text82"
           style="font-variant:normal;font-weight:normal;font-size:18px;font-family:Calibri;-inkscape-font-specification:Calibri;writing-mode:lr-tb;fill:#ffffff;fill-opacity:1;fill-rule:nonzero;stroke:none"
           transform="matrix(1,0,0,-1,392.3,316.44)"><tspan
             id="tspan80"
             y="0"
             x="0">3</tspan></text>
</g></g><path
       id="path84"
       style="fill:#000000;fill-opacity:1;fill-rule:evenodd;stroke:none"
       d="m 176.28,322.44 c 0,8.88 6.72,16.08 15,16.08 8.28,0 15,-7.2 15,-16.08 0,-8.88 -6.72,-16.08 -15,-16.08 -8.28,0 -15,7.2 -15,16.08 z" /><path
       id="path86"
       style="fill:none;stroke:#000000;stroke-width:0.95999998;stroke-linecap:butt;stroke-linejoin:miter;stroke-miterlimit:10;stroke-dasharray:none;stroke-opacity:1"
       d="m 176.28,322.44 c 0,8.88 6.72,16.08 15,16.08 8.28,0 15,-7.2 15,-16.08 0,-8.88 -6.72,-16.08 -15,-16.08 -8.28,0 -15,7.2 -15,16.08 z" /><g
       id="g88"><g
         clip-path="url(#clipPath94)"
         id="g90"><text
           id="text98"
           style="font-variant:normal;font-weight:normal;font-size:18px;font-family:Calibri;-inkscape-font-specification:Calibri;writing-mode:lr-tb;fill:#ffffff;fill-opacity:1;fill-rule:nonzero;stroke:none"
           transform="matrix(1,0,0,-1,186.77,316.44)"><tspan
             id="tspan96"
             y="0"
             x="0">2</tspan></text>
</g></g><path
       id="path100"
       style="fill:#000000;fill-opacity:1;fill-rule:evenodd;stroke:none"
       d="m 239.04,221.16 c 0,8.88 6.74,16.08 15.06,16.08 8.32,0 15.06,-7.2 15.06,-16.08 0,-8.88 -6.74,-16.08 -15.06,-16.08 -8.32,0 -15.06,7.2 -15.06,16.08 z" /><path
       id="path102"
       style="fill:none;stroke:#000000;stroke-width:0.95999998;stroke-linecap:butt;stroke-linejoin:miter;stroke-miterlimit:10;stroke-dasharray:none;stroke-opacity:1"
       d="m 239.04,221.16 c 0,8.88 6.74,16.08 15.06,16.08 8.32,0 15.06,-7.2 15.06,-16.08 0,-8.88 -6.74,-16.08 -15.06,-16.08 -8.32,0 -15.06,7.2 -15.06,16.08 z" /><g
       id="g104"><g
         clip-path="url(#clipPath110)"
         id="g106"><text
           id="text114"
           style="font-variant:normal;font-weight:normal;font-size:18px;font-family:Calibri;-inkscape-font-specification:Calibri;writing-mode:lr-tb;fill:#ffffff;fill-opacity:1;fill-rule:nonzero;stroke:none"
           transform="matrix(1,0,0,-1,249.58,215.06)"><tspan
             id="tspan112"
             y="0"
             x="0">4</tspan></text>
</g></g><path
       id="path116"
       style="fill:#000000;fill-opacity:1;fill-rule:evenodd;stroke:none"
       d="m 317.52,221.16 c 0,8.88 6.72,16.08 15,16.08 8.28,0 15,-7.2 15,-16.08 0,-8.88 -6.72,-16.08 -15,-16.08 -8.28,0 -15,7.2 -15,16.08 z" /><path
       id="path118"
       style="fill:none;stroke:#000000;stroke-width:0.95999998;stroke-linecap:butt;stroke-linejoin:miter;stroke-miterlimit:10;stroke-dasharray:none;stroke-opacity:1"
       d="m 317.52,221.16 c 0,8.88 6.72,16.08 15,16.08 8.28,0 15,-7.2 15,-16.08 0,-8.88 -6.72,-16.08 -15,-16.08 -8.28,0 -15,7.2 -15,16.08 z" /><g
       id="g120"><g
         clip-path="url(#clipPath126)"
         id="g122"><text
           id="text130"
           style="font-variant:normal;font-weight:normal;font-size:18px;font-family:Calibri;-inkscape-font-specification:Calibri;writing-mode:lr-tb;fill:#ffffff;fill-opacity:1;fill-rule:nonzero;stroke:none"
           transform="matrix(1,0,0,-1,327.98,215.06)"><tspan
             id="tspan128"
             y="0"
             x="0">5</tspan></text>
</g></g><path
       id="path132"
       style="fill:none;stroke:#4472c4;stroke-width:1.55999994;stroke-linecap:butt;stroke-linejoin:miter;stroke-miterlimit:10;stroke-dasharray:none;stroke-opacity:1"
       d="m 273.54,394.38 -67.2,-71.93" /><path
       id="path134"
       style="fill:none;stroke:#4472c4;stroke-width:1.55999994;stroke-linecap:butt;stroke-linejoin:miter;stroke-miterlimit:10;stroke-dasharray:none;stroke-opacity:1"
       d="m 254.11,237.1 -47.77,85.28" /><path
       id="path136"
       style="fill:none;stroke:#4472c4;stroke-width:1.55999994;stroke-linecap:butt;stroke-linejoin:miter;stroke-miterlimit:10;stroke-dasharray:none;stroke-opacity:1"
       d="M 273.53,394.38 254.1,237.17" /><path
       id="path138"
       style="fill:none;stroke:#ed7d31;stroke-width:1.55999994;stroke-linecap:butt;stroke-linejoin:miter;stroke-miterlimit:10;stroke-dasharray:none;stroke-opacity:1"
       d="m 294.9,394.38 87,-71.93" /><path
       id="path140"
       style="fill:none;stroke:#ed7d31;stroke-width:1.55999994;stroke-linecap:butt;stroke-linejoin:miter;stroke-miterlimit:10;stroke-dasharray:none;stroke-opacity:1"
       d="m 343.14,232.39 38.65,89.99" /><path
       id="path142"
       style="fill:none;stroke:#ed7d31;stroke-width:1.55999994;stroke-linecap:butt;stroke-linejoin:miter;stroke-miterlimit:10;stroke-dasharray:none;stroke-opacity:1"
       d="M 297.18,394.38 345.53,232.46" /><path
       id="path144"
       style="fill:#000000;fill-opacity:1;fill-rule:evenodd;stroke:none"
       d="m 580.92,421.92 c 0,8.88 6.74,16.08 15.06,16.08 8.32,0 15.06,-7.2 15.06,-16.08 0,-8.88 -6.74,-16.08 -15.06,-16.08 -8.32,0 -15.06,7.2 -15.06,16.08 z" /><path
       id="path146"
       style="fill:none;stroke:#000000;stroke-width:0.95999998;stroke-linecap:butt;stroke-linejoin:miter;stroke-miterlimit:10;stroke-dasharray:none;stroke-opacity:1"
       d="m 580.92,421.92 c 0,8.88 6.74,16.08 15.06,16.08 8.32,0 15.06,-7.2 15.06,-16.08 0,-8.88 -6.74,-16.08 -15.06,-16.08 -8.32,0 -15.06,7.2 -15.06,16.08 z" /><g
       id="g148"><g
         clip-path="url(#clipPath154)"
         id="g150"><text
           id="text158"
           style="font-variant:normal;font-weight:normal;font-size:18.02400017px;font-family:Calibri;-inkscape-font-specification:Calibri;writing-mode:lr-tb;fill:#ffffff;fill-opacity:1;fill-rule:nonzero;stroke:none"
           transform="matrix(1,0,0,-1,591.5,415.85)"><tspan
             id="tspan156"
             y="0"
             x="0">1</tspan></text>
</g></g><path
       id="path160"
       style="fill:#000000;fill-opacity:1;fill-rule:evenodd;stroke:none"
       d="m 693.6,338.52 c 0,8.88 6.74,16.08 15.06,16.08 8.32,0 15.06,-7.2 15.06,-16.08 0,-8.88 -6.74,-16.08 -15.06,-16.08 -8.32,0 -15.06,7.2 -15.06,16.08 z" /><path
       id="path162"
       style="fill:none;stroke:#000000;stroke-width:0.95999998;stroke-linecap:butt;stroke-linejoin:miter;stroke-miterlimit:10;stroke-dasharray:none;stroke-opacity:1"
       d="m 693.6,338.52 c 0,8.88 6.74,16.08 15.06,16.08 8.32,0 15.06,-7.2 15.06,-16.08 0,-8.88 -6.74,-16.08 -15.06,-16.08 -8.32,0 -15.06,7.2 -15.06,16.08 z" /><g
       id="g164"><g
         clip-path="url(#clipPath170)"
         id="g166"><text
           id="text174"
           style="font-variant:normal;font-weight:normal;font-size:18px;font-family:Calibri;-inkscape-font-specification:Calibri;writing-mode:lr-tb;fill:#ffffff;fill-opacity:1;fill-rule:nonzero;stroke:none"
           transform="matrix(1,0,0,-1,704.18,332.52)"><tspan
             id="tspan172"
             y="0"
             x="0">3</tspan></text>
</g></g><path
       id="path176"
       style="fill:#000000;fill-opacity:1;fill-rule:evenodd;stroke:none"
       d="m 488.16,338.52 c 0,8.88 6.72,16.08 15,16.08 8.28,0 15,-7.2 15,-16.08 0,-8.88 -6.72,-16.08 -15,-16.08 -8.28,0 -15,7.2 -15,16.08 z" /><path
       id="path178"
       style="fill:none;stroke:#000000;stroke-width:0.95999998;stroke-linecap:butt;stroke-linejoin:miter;stroke-miterlimit:10;stroke-dasharray:none;stroke-opacity:1"
       d="m 488.16,338.52 c 0,8.88 6.72,16.08 15,16.08 8.28,0 15,-7.2 15,-16.08 0,-8.88 -6.72,-16.08 -15,-16.08 -8.28,0 -15,7.2 -15,16.08 z" /><g
       id="g180"><g
         clip-path="url(#clipPath186)"
         id="g182"><text
           id="text190"
           style="font-variant:normal;font-weight:normal;font-size:18px;font-family:Calibri;-inkscape-font-specification:Calibri;writing-mode:lr-tb;fill:#ffffff;fill-opacity:1;fill-rule:nonzero;stroke:none"
           transform="matrix(1,0,0,-1,498.62,332.52)"><tspan
             id="tspan188"
             y="0"
             x="0">2</tspan></text>
</g></g><path
       id="path192"
       style="fill:#000000;fill-opacity:1;fill-rule:evenodd;stroke:none"
       d="m 550.92,237.24 c 0,8.88 6.72,16.08 15,16.08 8.28,0 15,-7.2 15,-16.08 0,-8.88 -6.72,-16.08 -15,-16.08 -8.28,0 -15,7.2 -15,16.08 z" /><path
       id="path194"
       style="fill:none;stroke:#000000;stroke-width:0.95999998;stroke-linecap:butt;stroke-linejoin:miter;stroke-miterlimit:10;stroke-dasharray:none;stroke-opacity:1"
       d="m 550.92,237.24 c 0,8.88 6.72,16.08 15,16.08 8.28,0 15,-7.2 15,-16.08 0,-8.88 -6.72,-16.08 -15,-16.08 -8.28,0 -15,7.2 -15,16.08 z" /><g
       id="g196"><g
         clip-path="url(#clipPath202)"
         id="g198"><text
           id="text206"
           style="font-variant:normal;font-weight:normal;font-size:18px;font-family:Calibri;-inkscape-font-specification:Calibri;writing-mode:lr-tb;fill:#ffffff;fill-opacity:1;fill-rule:nonzero;stroke:none"
           transform="matrix(1,0,0,-1,561.43,231.14)"><tspan
             id="tspan204"
             y="0"
             x="0">4</tspan></text>
</g></g><path
       id="path208"
       style="fill:#000000;fill-opacity:1;fill-rule:evenodd;stroke:none"
       d="m 629.28,237.24 c 0,8.88 6.74,16.08 15.06,16.08 8.32,0 15.06,-7.2 15.06,-16.08 0,-8.88 -6.74,-16.08 -15.06,-16.08 -8.32,0 -15.06,7.2 -15.06,16.08 z" /><path
       id="path210"
       style="fill:none;stroke:#000000;stroke-width:0.95999998;stroke-linecap:butt;stroke-linejoin:miter;stroke-miterlimit:10;stroke-dasharray:none;stroke-opacity:1"
       d="m 629.28,237.24 c 0,8.88 6.74,16.08 15.06,16.08 8.32,0 15.06,-7.2 15.06,-16.08 0,-8.88 -6.74,-16.08 -15.06,-16.08 -8.32,0 -15.06,7.2 -15.06,16.08 z" /><g
       id="g212"><g
         clip-path="url(#clipPath218)"
         id="g214"><text
           id="text222"
           style="font-variant:normal;font-weight:normal;font-size:18px;font-family:Calibri;-inkscape-font-specification:Calibri;writing-mode:lr-tb;fill:#ffffff;fill-opacity:1;fill-rule:nonzero;stroke:none"
           transform="matrix(1,0,0,-1,639.86,231.14)"><tspan
             id="tspan220"
             y="0"
             x="0">5</tspan></text>
</g></g><path
       id="path224"
       style="fill:none;stroke:#ffc000;stroke-width:1.55999994;stroke-linecap:butt;stroke-linejoin:miter;stroke-miterlimit:10;stroke-dasharray:none;stroke-opacity:1"
       d="M 332.6,237.18 269.22,221.1" /><path
       id="path226"
       style="fill:none;stroke:#ffc000;stroke-width:1.55999994;stroke-linecap:butt;stroke-linejoin:miter;stroke-miterlimit:10;stroke-dasharray:none;stroke-opacity:1"
       d="M 381.88,322.38 269.22,221.02" /><path
       id="path228"
       style="fill:none;stroke:#ffc000;stroke-width:1.55999994;stroke-linecap:butt;stroke-linejoin:miter;stroke-miterlimit:10;stroke-dasharray:none;stroke-opacity:1"
       d="m 332.58,237.1 49.28,85.28" /></g></svg>