<?xml version="1.0" encoding="UTF-8" standalone="no"?>
<svg
   xmlns:dc="http://purl.org/dc/elements/1.1/"
   xmlns:cc="http://creativecommons.org/ns#"
   xmlns:rdf="http://www.w3.org/1999/02/22-rdf-syntax-ns#"
   xmlns:svg="http://www.w3.org/2000/svg"
   xmlns="http://www.w3.org/2000/svg"
   viewBox="0 0 1280 720"
   height="720"
   width="1280"
   xml:space="preserve"
   id="svg2"
   version="1.1"><metadata
     id="metadata8"><rdf:RDF><cc:Work
         rdf:about=""><dc:format>image/svg+xml</dc:format><dc:type
           rdf:resource="http://purl.org/dc/dcmitype/StillImage" /></cc:Work></rdf:RDF></metadata><defs
     id="defs6"><clipPath
       id="clipPath18"
       clipPathUnits="userSpaceOnUse"><path
         style="clip-rule:evenodd"
         id="path16"
         d="M 0,1.2207e-4 H 960 V 540.00012 H 0 Z" /></clipPath></defs><g
     transform="matrix(1.3333333,0,0,-1.3333333,0,720)"
     id="g10"><g
       id="g12"><g
         clip-path="url(#clipPath18)"
         id="g14"><path
           id="path20"
           style="fill:#ffffff;fill-opacity:1;fill-rule:evenodd;stroke:none"
           d="M 0,6.1035e-5 H 960 V 540.00006 H 0 Z" /></g></g><path
       id="path22"
       style="fill:#ffffff;fill-opacity:1;fill-rule:evenodd;stroke:none"
       d="M 88.86,156.18 H 442.5 v 262.8 H 88.86 Z" /><path
       id="path24"
       style="fill:none;stroke:#000000;stroke-width:2.27999997;stroke-linecap:butt;stroke-linejoin:miter;stroke-miterlimit:10;stroke-dasharray:none;stroke-opacity:1"
       d="M 88.86,156.18 H 442.5 v 262.8 H 88.86 Z" /><path
       id="path26"
       style="fill:#4472c4;fill-opacity:1;fill-rule:evenodd;stroke:none"
       d="m 118.8,384.84 c 0,3.84 2.98,6.96 6.66,6.96 3.68,0 6.66,-3.12 6.66,-6.96 0,-3.84 -2.98,-6.96 -6.66,-6.96 -3.68,0 -6.66,3.12 -6.66,6.96 z" /><path
       id="path28"
       style="fill:none;stroke:#2f528f;stroke-width:0.95999998;stroke-linecap:butt;stroke-linejoin:miter;stroke-miterlimit:10;stroke-dasharray:none;stroke-opacity:1"
       d="m 118.8,384.84 c 0,3.84 2.98,6.96 6.66,6.96 3.68,0 6.66,-3.12 6.66,-6.96 0,-3.84 -2.98,-6.96 -6.66,-6.96 -3.68,0 -6.66,3.12 -6.66,6.96 z" /><path
       id="path30"
       style="fill:#4472c4;fill-opacity:1;fill-rule:evenodd;stroke:none"
       d="m 103.92,350.58 c 0,3.88 2.98,7.02 6.66,7.02 3.68,0 6.66,-3.14 6.66,-7.02 0,-3.88 -2.98,-7.02 -6.66,-7.02 -3.68,0 -6.66,3.14 -6.66,7.02 z" /><path
       id="path32"
       style="fill:none;stroke:#2f528f;stroke-width:0.95999998;stroke-linecap:butt;stroke-linejoin:miter;stroke-miterlimit:10;stroke-dasharray:none;stroke-opacity:1"
       d="m 103.92,350.58 c 0,3.88 2.98,7.02 6.66,7.02 3.68,0 6.66,-3.14 6.66,-7.02 0,-3.88 -2.98,-7.02 -6.66,-7.02 -3.68,0 -6.66,3.14 -6.66,7.02 z" /><path
       id="path34"
       style="fill:#4472c4;fill-opacity:1;fill-rule:evenodd;stroke:none"
       d="m 150.84,385.26 c 0,3.88 2.98,7.02 6.66,7.02 3.68,0 6.66,-3.14 6.66,-7.02 0,-3.88 -2.98,-7.02 -6.66,-7.02 -3.68,0 -6.66,3.14 -6.66,7.02 z" /><path
       id="path36"
       style="fill:none;stroke:#2f528f;stroke-width:0.95999998;stroke-linecap:butt;stroke-linejoin:miter;stroke-miterlimit:10;stroke-dasharray:none;stroke-opacity:1"
       d="m 150.84,385.26 c 0,3.88 2.98,7.02 6.66,7.02 3.68,0 6.66,-3.14 6.66,-7.02 0,-3.88 -2.98,-7.02 -6.66,-7.02 -3.68,0 -6.66,3.14 -6.66,7.02 z" /><path
       id="path38"
       style="fill:#4472c4;fill-opacity:1;fill-rule:evenodd;stroke:none"
       d="m 144.24,304.44 c 0,3.84 2.98,6.96 6.66,6.96 3.68,0 6.66,-3.12 6.66,-6.96 0,-3.84 -2.98,-6.96 -6.66,-6.96 -3.68,0 -6.66,3.12 -6.66,6.96 z" /><path
       id="path40"
       style="fill:none;stroke:#2f528f;stroke-width:0.95999998;stroke-linecap:butt;stroke-linejoin:miter;stroke-miterlimit:10;stroke-dasharray:none;stroke-opacity:1"
       d="m 144.24,304.44 c 0,3.84 2.98,6.96 6.66,6.96 3.68,0 6.66,-3.12 6.66,-6.96 0,-3.84 -2.98,-6.96 -6.66,-6.96 -3.68,0 -6.66,3.12 -6.66,6.96 z" /><path
       id="path42"
       style="fill:#4472c4;fill-opacity:1;fill-rule:evenodd;stroke:none"
       d="m 207.24,343.56 c 0,3.84 2.98,6.96 6.66,6.96 3.68,0 6.66,-3.12 6.66,-6.96 0,-3.84 -2.98,-6.96 -6.66,-6.96 -3.68,0 -6.66,3.12 -6.66,6.96 z" /><path
       id="path44"
       style="fill:none;stroke:#2f528f;stroke-width:0.95999998;stroke-linecap:butt;stroke-linejoin:miter;stroke-miterlimit:10;stroke-dasharray:none;stroke-opacity:1"
       d="m 207.24,343.56 c 0,3.84 2.98,6.96 6.66,6.96 3.68,0 6.66,-3.12 6.66,-6.96 0,-3.84 -2.98,-6.96 -6.66,-6.96 -3.68,0 -6.66,3.12 -6.66,6.96 z" /><path
       id="path46"
       style="fill:#4472c4;fill-opacity:1;fill-rule:evenodd;stroke:none"
       d="m 164.16,238.86 c 0,3.88 2.98,7.02 6.66,7.02 3.68,0 6.66,-3.14 6.66,-7.02 0,-3.88 -2.98,-7.02 -6.66,-7.02 -3.68,0 -6.66,3.14 -6.66,7.02 z" /><path
       id="path48"
       style="fill:none;stroke:#2f528f;stroke-width:0.95999998;stroke-linecap:butt;stroke-linejoin:miter;stroke-miterlimit:10;stroke-dasharray:none;stroke-opacity:1"
       d="m 164.16,238.86 c 0,3.88 2.98,7.02 6.66,7.02 3.68,0 6.66,-3.14 6.66,-7.02 0,-3.88 -2.98,-7.02 -6.66,-7.02 -3.68,0 -6.66,3.14 -6.66,7.02 z" /><path
       id="path50"
       style="fill:#4472c4;fill-opacity:1;fill-rule:evenodd;stroke:none"
       d="m 324.12,350.58 c 0,3.88 2.98,7.02 6.66,7.02 3.68,0 6.66,-3.14 6.66,-7.02 0,-3.88 -2.98,-7.02 -6.66,-7.02 -3.68,0 -6.66,3.14 -6.66,7.02 z" /><path
       id="path52"
       style="fill:none;stroke:#2f528f;stroke-width:0.95999998;stroke-linecap:butt;stroke-linejoin:miter;stroke-miterlimit:10;stroke-dasharray:none;stroke-opacity:1"
       d="m 324.12,350.58 c 0,3.88 2.98,7.02 6.66,7.02 3.68,0 6.66,-3.14 6.66,-7.02 0,-3.88 -2.98,-7.02 -6.66,-7.02 -3.68,0 -6.66,3.14 -6.66,7.02 z" /><path
       id="path54"
       style="fill:#4472c4;fill-opacity:1;fill-rule:evenodd;stroke:none"
       d="m 211.44,211.8 c 0,3.84 2.98,6.96 6.66,6.96 3.68,0 6.66,-3.12 6.66,-6.96 0,-3.84 -2.98,-6.96 -6.66,-6.96 -3.68,0 -6.66,3.12 -6.66,6.96 z" /><path
       id="path56"
       style="fill:none;stroke:#2f528f;stroke-width:0.95999998;stroke-linecap:butt;stroke-linejoin:miter;stroke-miterlimit:10;stroke-dasharray:none;stroke-opacity:1"
       d="m 211.44,211.8 c 0,3.84 2.98,6.96 6.66,6.96 3.68,0 6.66,-3.12 6.66,-6.96 0,-3.84 -2.98,-6.96 -6.66,-6.96 -3.68,0 -6.66,3.12 -6.66,6.96 z" /><path
       id="path58"
       style="fill:#4472c4;fill-opacity:1;fill-rule:evenodd;stroke:none"
       d="m 347.64,282.06 c 0,3.88 2.98,7.02 6.66,7.02 3.68,0 6.66,-3.14 6.66,-7.02 0,-3.88 -2.98,-7.02 -6.66,-7.02 -3.68,0 -6.66,3.14 -6.66,7.02 z" /><path
       id="path60"
       style="fill:none;stroke:#2f528f;stroke-width:0.95999998;stroke-linecap:butt;stroke-linejoin:miter;stroke-miterlimit:10;stroke-dasharray:none;stroke-opacity:1"
       d="m 347.64,282.06 c 0,3.88 2.98,7.02 6.66,7.02 3.68,0 6.66,-3.14 6.66,-7.02 0,-3.88 -2.98,-7.02 -6.66,-7.02 -3.68,0 -6.66,3.14 -6.66,7.02 z" /><path
       id="path62"
       style="fill:#4472c4;fill-opacity:1;fill-rule:evenodd;stroke:none"
       d="m 261.6,378.66 c 0,3.88 2.95,7.02 6.6,7.02 3.65,0 6.6,-3.14 6.6,-7.02 0,-3.88 -2.95,-7.02 -6.6,-7.02 -3.65,0 -6.6,3.14 -6.6,7.02 z" /><path
       id="path64"
       style="fill:none;stroke:#2f528f;stroke-width:0.95999998;stroke-linecap:butt;stroke-linejoin:miter;stroke-miterlimit:10;stroke-dasharray:none;stroke-opacity:1"
       d="m 261.6,378.66 c 0,3.88 2.95,7.02 6.6,7.02 3.65,0 6.6,-3.14 6.6,-7.02 0,-3.88 -2.95,-7.02 -6.6,-7.02 -3.65,0 -6.6,3.14 -6.6,7.02 z" /><path
       id="path66"
       style="fill:#4472c4;fill-opacity:1;fill-rule:evenodd;stroke:none"
       d="m 255.24,185.82 c 0,3.88 2.98,7.02 6.66,7.02 3.68,0 6.66,-3.14 6.66,-7.02 0,-3.88 -2.98,-7.02 -6.66,-7.02 -3.68,0 -6.66,3.14 -6.66,7.02 z" /><path
       id="path68"
       style="fill:none;stroke:#2f528f;stroke-width:0.95999998;stroke-linecap:butt;stroke-linejoin:miter;stroke-miterlimit:10;stroke-dasharray:none;stroke-opacity:1"
       d="m 255.24,185.82 c 0,3.88 2.98,7.02 6.66,7.02 3.68,0 6.66,-3.14 6.66,-7.02 0,-3.88 -2.98,-7.02 -6.66,-7.02 -3.68,0 -6.66,3.14 -6.66,7.02 z" /><path
       id="path70"
       style="fill:#4472c4;fill-opacity:1;fill-rule:evenodd;stroke:none"
       d="m 373.08,228 c 0,3.84 2.95,6.96 6.6,6.96 3.65,0 6.6,-3.12 6.6,-6.96 0,-3.84 -2.95,-6.96 -6.6,-6.96 -3.65,0 -6.6,3.12 -6.6,6.96 z" /><path
       id="path72"
       style="fill:none;stroke:#2f528f;stroke-width:0.95999998;stroke-linecap:butt;stroke-linejoin:miter;stroke-miterlimit:10;stroke-dasharray:none;stroke-opacity:1"
       d="m 373.08,228 c 0,3.84 2.95,6.96 6.6,6.96 3.65,0 6.6,-3.12 6.6,-6.96 0,-3.84 -2.95,-6.96 -6.6,-6.96 -3.65,0 -6.6,3.12 -6.6,6.96 z" /><path
       id="path74"
       style="fill:#4472c4;fill-opacity:1;fill-rule:evenodd;stroke:none"
       d="m 252.36,310.74 c 0,3.88 2.98,7.02 6.66,7.02 3.68,0 6.66,-3.14 6.66,-7.02 0,-3.88 -2.98,-7.02 -6.66,-7.02 -3.68,0 -6.66,3.14 -6.66,7.02 z" /><path
       id="path76"
       style="fill:none;stroke:#2f528f;stroke-width:0.95999998;stroke-linecap:butt;stroke-linejoin:miter;stroke-miterlimit:10;stroke-dasharray:none;stroke-opacity:1"
       d="m 252.36,310.74 c 0,3.88 2.98,7.02 6.66,7.02 3.68,0 6.66,-3.14 6.66,-7.02 0,-3.88 -2.98,-7.02 -6.66,-7.02 -3.68,0 -6.66,3.14 -6.66,7.02 z" /><path
       id="path78"
       style="fill:#4472c4;fill-opacity:1;fill-rule:evenodd;stroke:none"
       d="m 124.92,199.8 c 0,3.84 2.95,6.96 6.6,6.96 3.65,0 6.6,-3.12 6.6,-6.96 0,-3.84 -2.95,-6.96 -6.6,-6.96 -3.65,0 -6.6,3.12 -6.6,6.96 z" /><path
       id="path80"
       style="fill:none;stroke:#2f528f;stroke-width:0.95999998;stroke-linecap:butt;stroke-linejoin:miter;stroke-miterlimit:10;stroke-dasharray:none;stroke-opacity:1"
       d="m 124.92,199.8 c 0,3.84 2.95,6.96 6.6,6.96 3.65,0 6.6,-3.12 6.6,-6.96 0,-3.84 -2.95,-6.96 -6.6,-6.96 -3.65,0 -6.6,3.12 -6.6,6.96 z" /><path
       id="path82"
       style="fill:#4472c4;fill-opacity:1;fill-rule:evenodd;stroke:none"
       d="m 381.96,343.56 c 0,3.84 2.98,6.96 6.66,6.96 3.68,0 6.66,-3.12 6.66,-6.96 0,-3.84 -2.98,-6.96 -6.66,-6.96 -3.68,0 -6.66,3.12 -6.66,6.96 z" /><path
       id="path84"
       style="fill:none;stroke:#2f528f;stroke-width:0.95999998;stroke-linecap:butt;stroke-linejoin:miter;stroke-miterlimit:10;stroke-dasharray:none;stroke-opacity:1"
       d="m 381.96,343.56 c 0,3.84 2.98,6.96 6.66,6.96 3.68,0 6.66,-3.12 6.66,-6.96 0,-3.84 -2.98,-6.96 -6.66,-6.96 -3.68,0 -6.66,3.12 -6.66,6.96 z" /><path
       id="path86"
       style="fill:#4472c4;fill-opacity:1;fill-rule:evenodd;stroke:none"
       d="m 386.28,192.84 c 0,3.84 2.98,6.96 6.66,6.96 3.68,0 6.66,-3.12 6.66,-6.96 0,-3.84 -2.98,-6.96 -6.66,-6.96 -3.68,0 -6.66,3.12 -6.66,6.96 z" /><path
       id="path88"
       style="fill:none;stroke:#2f528f;stroke-width:0.95999998;stroke-linecap:butt;stroke-linejoin:miter;stroke-miterlimit:10;stroke-dasharray:none;stroke-opacity:1"
       d="m 386.28,192.84 c 0,3.84 2.98,6.96 6.66,6.96 3.68,0 6.66,-3.12 6.66,-6.96 0,-3.84 -2.98,-6.96 -6.66,-6.96 -3.68,0 -6.66,3.12 -6.66,6.96 z" /><path
       id="path90"
       style="fill:#4472c4;fill-opacity:1;fill-rule:evenodd;stroke:none"
       d="m 310.8,192.84 c 0,3.84 2.98,6.96 6.66,6.96 3.68,0 6.66,-3.12 6.66,-6.96 0,-3.84 -2.98,-6.96 -6.66,-6.96 -3.68,0 -6.66,3.12 -6.66,6.96 z" /><path
       id="path92"
       style="fill:none;stroke:#2f528f;stroke-width:0.95999998;stroke-linecap:butt;stroke-linejoin:miter;stroke-miterlimit:10;stroke-dasharray:none;stroke-opacity:1"
       d="m 310.8,192.84 c 0,3.84 2.98,6.96 6.66,6.96 3.68,0 6.66,-3.12 6.66,-6.96 0,-3.84 -2.98,-6.96 -6.66,-6.96 -3.68,0 -6.66,3.12 -6.66,6.96 z" /><path
       id="path94"
       style="fill:#4472c4;fill-opacity:1;fill-rule:evenodd;stroke:none"
       d="m 156.6,349.14 c 0,3.88 2.98,7.02 6.66,7.02 3.68,0 6.66,-3.14 6.66,-7.02 0,-3.88 -2.98,-7.02 -6.66,-7.02 -3.68,0 -6.66,3.14 -6.66,7.02 z" /><path
       id="path96"
       style="fill:none;stroke:#2f528f;stroke-width:0.95999998;stroke-linecap:butt;stroke-linejoin:miter;stroke-miterlimit:10;stroke-dasharray:none;stroke-opacity:1"
       d="m 156.6,349.14 c 0,3.88 2.98,7.02 6.66,7.02 3.68,0 6.66,-3.14 6.66,-7.02 0,-3.88 -2.98,-7.02 -6.66,-7.02 -3.68,0 -6.66,3.14 -6.66,7.02 z" /><path
       id="path98"
       style="fill:#4472c4;fill-opacity:1;fill-rule:evenodd;stroke:none"
       d="m 255.24,252.84 c 0,3.84 2.98,6.96 6.66,6.96 3.68,0 6.66,-3.12 6.66,-6.96 0,-3.84 -2.98,-6.96 -6.66,-6.96 -3.68,0 -6.66,3.12 -6.66,6.96 z" /><path
       id="path100"
       style="fill:none;stroke:#2f528f;stroke-width:0.95999998;stroke-linecap:butt;stroke-linejoin:miter;stroke-miterlimit:10;stroke-dasharray:none;stroke-opacity:1"
       d="m 255.24,252.84 c 0,3.84 2.98,6.96 6.66,6.96 3.68,0 6.66,-3.12 6.66,-6.96 0,-3.84 -2.98,-6.96 -6.66,-6.96 -3.68,0 -6.66,3.12 -6.66,6.96 z" /><path
       id="path102"
       style="fill:#ffffff;fill-opacity:1;fill-rule:evenodd;stroke:none"
       d="m 517.98,156.18 h 353.64 v 262.8 H 517.98 Z" /><path
       id="path104"
       style="fill:none;stroke:#000000;stroke-width:2.27999997;stroke-linecap:butt;stroke-linejoin:miter;stroke-miterlimit:10;stroke-dasharray:none;stroke-opacity:1"
       d="m 517.98,156.18 h 353.64 v 262.8 H 517.98 Z" /><path
       id="path106"
       style="fill:#4472c4;fill-opacity:1;fill-rule:evenodd;stroke:none"
       d="m 547.92,384.84 c 0,3.84 2.98,6.96 6.66,6.96 3.68,0 6.66,-3.12 6.66,-6.96 0,-3.84 -2.98,-6.96 -6.66,-6.96 -3.68,0 -6.66,3.12 -6.66,6.96 z" /><path
       id="path108"
       style="fill:none;stroke:#2f528f;stroke-width:0.95999998;stroke-linecap:butt;stroke-linejoin:miter;stroke-miterlimit:10;stroke-dasharray:none;stroke-opacity:1"
       d="m 547.92,384.84 c 0,3.84 2.98,6.96 6.66,6.96 3.68,0 6.66,-3.12 6.66,-6.96 0,-3.84 -2.98,-6.96 -6.66,-6.96 -3.68,0 -6.66,3.12 -6.66,6.96 z" /><path
       id="path110"
       style="fill:#4472c4;fill-opacity:1;fill-rule:evenodd;stroke:none"
       d="m 533.04,350.58 c 0,3.88 2.95,7.02 6.6,7.02 3.65,0 6.6,-3.14 6.6,-7.02 0,-3.88 -2.95,-7.02 -6.6,-7.02 -3.65,0 -6.6,3.14 -6.6,7.02 z" /><path
       id="path112"
       style="fill:none;stroke:#2f528f;stroke-width:0.95999998;stroke-linecap:butt;stroke-linejoin:miter;stroke-miterlimit:10;stroke-dasharray:none;stroke-opacity:1"
       d="m 533.04,350.58 c 0,3.88 2.95,7.02 6.6,7.02 3.65,0 6.6,-3.14 6.6,-7.02 0,-3.88 -2.95,-7.02 -6.6,-7.02 -3.65,0 -6.6,3.14 -6.6,7.02 z" /><path
       id="path114"
       style="fill:#4472c4;fill-opacity:1;fill-rule:evenodd;stroke:none"
       d="m 579.96,385.26 c 0,3.88 2.98,7.02 6.66,7.02 3.68,0 6.66,-3.14 6.66,-7.02 0,-3.88 -2.98,-7.02 -6.66,-7.02 -3.68,0 -6.66,3.14 -6.66,7.02 z" /><path
       id="path116"
       style="fill:none;stroke:#2f528f;stroke-width:0.95999998;stroke-linecap:butt;stroke-linejoin:miter;stroke-miterlimit:10;stroke-dasharray:none;stroke-opacity:1"
       d="m 579.96,385.26 c 0,3.88 2.98,7.02 6.66,7.02 3.68,0 6.66,-3.14 6.66,-7.02 0,-3.88 -2.98,-7.02 -6.66,-7.02 -3.68,0 -6.66,3.14 -6.66,7.02 z" /><path
       id="path118"
       style="fill:#4472c4;fill-opacity:1;fill-rule:evenodd;stroke:none"
       d="m 573.36,304.44 c 0,3.84 2.95,6.96 6.6,6.96 3.65,0 6.6,-3.12 6.6,-6.96 0,-3.84 -2.95,-6.96 -6.6,-6.96 -3.65,0 -6.6,3.12 -6.6,6.96 z" /><path
       id="path120"
       style="fill:none;stroke:#2f528f;stroke-width:0.95999998;stroke-linecap:butt;stroke-linejoin:miter;stroke-miterlimit:10;stroke-dasharray:none;stroke-opacity:1"
       d="m 573.36,304.44 c 0,3.84 2.95,6.96 6.6,6.96 3.65,0 6.6,-3.12 6.6,-6.96 0,-3.84 -2.95,-6.96 -6.6,-6.96 -3.65,0 -6.6,3.12 -6.6,6.96 z" /><path
       id="path122"
       style="fill:#4472c4;fill-opacity:1;fill-rule:evenodd;stroke:none"
       d="m 636.36,343.56 c 0,3.84 2.98,6.96 6.66,6.96 3.68,0 6.66,-3.12 6.66,-6.96 0,-3.84 -2.98,-6.96 -6.66,-6.96 -3.68,0 -6.66,3.12 -6.66,6.96 z" /><path
       id="path124"
       style="fill:none;stroke:#2f528f;stroke-width:0.95999998;stroke-linecap:butt;stroke-linejoin:miter;stroke-miterlimit:10;stroke-dasharray:none;stroke-opacity:1"
       d="m 636.36,343.56 c 0,3.84 2.98,6.96 6.66,6.96 3.68,0 6.66,-3.12 6.66,-6.96 0,-3.84 -2.98,-6.96 -6.66,-6.96 -3.68,0 -6.66,3.12 -6.66,6.96 z" /><path
       id="path126"
       style="fill:#4472c4;fill-opacity:1;fill-rule:evenodd;stroke:none"
       d="m 593.28,238.86 c 0,3.88 2.95,7.02 6.6,7.02 3.65,0 6.6,-3.14 6.6,-7.02 0,-3.88 -2.95,-7.02 -6.6,-7.02 -3.65,0 -6.6,3.14 -6.6,7.02 z" /><path
       id="path128"
       style="fill:none;stroke:#2f528f;stroke-width:0.95999998;stroke-linecap:butt;stroke-linejoin:miter;stroke-miterlimit:10;stroke-dasharray:none;stroke-opacity:1"
       d="m 593.28,238.86 c 0,3.88 2.95,7.02 6.6,7.02 3.65,0 6.6,-3.14 6.6,-7.02 0,-3.88 -2.95,-7.02 -6.6,-7.02 -3.65,0 -6.6,3.14 -6.6,7.02 z" /><path
       id="path130"
       style="fill:#4472c4;fill-opacity:1;fill-rule:evenodd;stroke:none"
       d="m 753.24,350.58 c 0,3.88 2.95,7.02 6.6,7.02 3.64,0 6.6,-3.14 6.6,-7.02 0,-3.88 -2.96,-7.02 -6.6,-7.02 -3.65,0 -6.6,3.14 -6.6,7.02 z" /><path
       id="path132"
       style="fill:none;stroke:#2f528f;stroke-width:0.95999998;stroke-linecap:butt;stroke-linejoin:miter;stroke-miterlimit:10;stroke-dasharray:none;stroke-opacity:1"
       d="m 753.24,350.58 c 0,3.88 2.95,7.02 6.6,7.02 3.64,0 6.6,-3.14 6.6,-7.02 0,-3.88 -2.96,-7.02 -6.6,-7.02 -3.65,0 -6.6,3.14 -6.6,7.02 z" /><path
       id="path134"
       style="fill:#4472c4;fill-opacity:1;fill-rule:evenodd;stroke:none"
       d="m 640.56,211.8 c 0,3.84 2.98,6.96 6.66,6.96 3.68,0 6.66,-3.12 6.66,-6.96 0,-3.84 -2.98,-6.96 -6.66,-6.96 -3.68,0 -6.66,3.12 -6.66,6.96 z" /><path
       id="path136"
       style="fill:none;stroke:#2f528f;stroke-width:0.95999998;stroke-linecap:butt;stroke-linejoin:miter;stroke-miterlimit:10;stroke-dasharray:none;stroke-opacity:1"
       d="m 640.56,211.8 c 0,3.84 2.98,6.96 6.66,6.96 3.68,0 6.66,-3.12 6.66,-6.96 0,-3.84 -2.98,-6.96 -6.66,-6.96 -3.68,0 -6.66,3.12 -6.66,6.96 z" /><path
       id="path138"
       style="fill:#4472c4;fill-opacity:1;fill-rule:evenodd;stroke:none"
       d="m 776.76,282.06 c 0,3.88 2.95,7.02 6.6,7.02 3.65,0 6.6,-3.14 6.6,-7.02 0,-3.88 -2.95,-7.02 -6.6,-7.02 -3.65,0 -6.6,3.14 -6.6,7.02 z" /><path
       id="path140"
       style="fill:none;stroke:#2f528f;stroke-width:0.95999998;stroke-linecap:butt;stroke-linejoin:miter;stroke-miterlimit:10;stroke-dasharray:none;stroke-opacity:1"
       d="m 776.76,282.06 c 0,3.88 2.95,7.02 6.6,7.02 3.65,0 6.6,-3.14 6.6,-7.02 0,-3.88 -2.95,-7.02 -6.6,-7.02 -3.65,0 -6.6,3.14 -6.6,7.02 z" /><path
       id="path142"
       style="fill:#4472c4;fill-opacity:1;fill-rule:evenodd;stroke:none"
       d="m 690.6,378.66 c 0,3.88 2.98,7.02 6.66,7.02 3.68,0 6.66,-3.14 6.66,-7.02 0,-3.88 -2.98,-7.02 -6.66,-7.02 -3.68,0 -6.66,3.14 -6.66,7.02 z" /><path
       id="path144"
       style="fill:none;stroke:#2f528f;stroke-width:0.95999998;stroke-linecap:butt;stroke-linejoin:miter;stroke-miterlimit:10;stroke-dasharray:none;stroke-opacity:1"
       d="m 690.6,378.66 c 0,3.88 2.98,7.02 6.66,7.02 3.68,0 6.66,-3.14 6.66,-7.02 0,-3.88 -2.98,-7.02 -6.66,-7.02 -3.68,0 -6.66,3.14 -6.66,7.02 z" /><path
       id="path146"
       style="fill:#4472c4;fill-opacity:1;fill-rule:evenodd;stroke:none"
       d="m 684.36,185.82 c 0,3.88 2.98,7.02 6.66,7.02 3.68,0 6.66,-3.14 6.66,-7.02 0,-3.88 -2.98,-7.02 -6.66,-7.02 -3.68,0 -6.66,3.14 -6.66,7.02 z" /><path
       id="path148"
       style="fill:none;stroke:#2f528f;stroke-width:0.95999998;stroke-linecap:butt;stroke-linejoin:miter;stroke-miterlimit:10;stroke-dasharray:none;stroke-opacity:1"
       d="m 684.36,185.82 c 0,3.88 2.98,7.02 6.66,7.02 3.68,0 6.66,-3.14 6.66,-7.02 0,-3.88 -2.98,-7.02 -6.66,-7.02 -3.68,0 -6.66,3.14 -6.66,7.02 z" /><path
       id="path150"
       style="fill:#4472c4;fill-opacity:1;fill-rule:evenodd;stroke:none"
       d="m 802.08,228 c 0,3.84 2.98,6.96 6.66,6.96 3.68,0 6.66,-3.12 6.66,-6.96 0,-3.84 -2.98,-6.96 -6.66,-6.96 -3.68,0 -6.66,3.12 -6.66,6.96 z" /><path
       id="path152"
       style="fill:none;stroke:#2f528f;stroke-width:0.95999998;stroke-linecap:butt;stroke-linejoin:miter;stroke-miterlimit:10;stroke-dasharray:none;stroke-opacity:1"
       d="m 802.08,228 c 0,3.84 2.98,6.96 6.66,6.96 3.68,0 6.66,-3.12 6.66,-6.96 0,-3.84 -2.98,-6.96 -6.66,-6.96 -3.68,0 -6.66,3.12 -6.66,6.96 z" /><path
       id="path154"
       style="fill:#4472c4;fill-opacity:1;fill-rule:evenodd;stroke:none"
       d="m 681.48,310.74 c 0,3.88 2.95,7.02 6.6,7.02 3.65,0 6.6,-3.14 6.6,-7.02 0,-3.88 -2.95,-7.02 -6.6,-7.02 -3.65,0 -6.6,3.14 -6.6,7.02 z" /><path
       id="path156"
       style="fill:none;stroke:#2f528f;stroke-width:0.95999998;stroke-linecap:butt;stroke-linejoin:miter;stroke-miterlimit:10;stroke-dasharray:none;stroke-opacity:1"
       d="m 681.48,310.74 c 0,3.88 2.95,7.02 6.6,7.02 3.65,0 6.6,-3.14 6.6,-7.02 0,-3.88 -2.95,-7.02 -6.6,-7.02 -3.65,0 -6.6,3.14 -6.6,7.02 z" /><path
       id="path158"
       style="fill:#4472c4;fill-opacity:1;fill-rule:evenodd;stroke:none"
       d="m 554.04,199.8 c 0,3.84 2.95,6.96 6.6,6.96 3.65,0 6.6,-3.12 6.6,-6.96 0,-3.84 -2.95,-6.96 -6.6,-6.96 -3.65,0 -6.6,3.12 -6.6,6.96 z" /><path
       id="path160"
       style="fill:none;stroke:#2f528f;stroke-width:0.95999998;stroke-linecap:butt;stroke-linejoin:miter;stroke-miterlimit:10;stroke-dasharray:none;stroke-opacity:1"
       d="m 554.04,199.8 c 0,3.84 2.95,6.96 6.6,6.96 3.65,0 6.6,-3.12 6.6,-6.96 0,-3.84 -2.95,-6.96 -6.6,-6.96 -3.65,0 -6.6,3.12 -6.6,6.96 z" /><path
       id="path162"
       style="fill:#4472c4;fill-opacity:1;fill-rule:evenodd;stroke:none"
       d="m 811.08,343.56 c 0,3.84 2.98,6.96 6.66,6.96 3.68,0 6.66,-3.12 6.66,-6.96 0,-3.84 -2.98,-6.96 -6.66,-6.96 -3.68,0 -6.66,3.12 -6.66,6.96 z" /><path
       id="path164"
       style="fill:none;stroke:#2f528f;stroke-width:0.95999998;stroke-linecap:butt;stroke-linejoin:miter;stroke-miterlimit:10;stroke-dasharray:none;stroke-opacity:1"
       d="m 811.08,343.56 c 0,3.84 2.98,6.96 6.66,6.96 3.68,0 6.66,-3.12 6.66,-6.96 0,-3.84 -2.98,-6.96 -6.66,-6.96 -3.68,0 -6.66,3.12 -6.66,6.96 z" /><path
       id="path166"
       style="fill:#4472c4;fill-opacity:1;fill-rule:evenodd;stroke:none"
       d="m 815.4,192.84 c 0,3.84 2.98,6.96 6.66,6.96 3.68,0 6.66,-3.12 6.66,-6.96 0,-3.84 -2.98,-6.96 -6.66,-6.96 -3.68,0 -6.66,3.12 -6.66,6.96 z" /><path
       id="path168"
       style="fill:none;stroke:#2f528f;stroke-width:0.95999998;stroke-linecap:butt;stroke-linejoin:miter;stroke-miterlimit:10;stroke-dasharray:none;stroke-opacity:1"
       d="m 815.4,192.84 c 0,3.84 2.98,6.96 6.66,6.96 3.68,0 6.66,-3.12 6.66,-6.96 0,-3.84 -2.98,-6.96 -6.66,-6.96 -3.68,0 -6.66,3.12 -6.66,6.96 z" /><path
       id="path170"
       style="fill:#4472c4;fill-opacity:1;fill-rule:evenodd;stroke:none"
       d="m 739.92,192.84 c 0,3.84 2.98,6.96 6.66,6.96 3.68,0 6.66,-3.12 6.66,-6.96 0,-3.84 -2.98,-6.96 -6.66,-6.96 -3.68,0 -6.66,3.12 -6.66,6.96 z" /><path
       id="path172"
       style="fill:none;stroke:#2f528f;stroke-width:0.95999998;stroke-linecap:butt;stroke-linejoin:miter;stroke-miterlimit:10;stroke-dasharray:none;stroke-opacity:1"
       d="m 739.92,192.84 c 0,3.84 2.98,6.96 6.66,6.96 3.68,0 6.66,-3.12 6.66,-6.96 0,-3.84 -2.98,-6.96 -6.66,-6.96 -3.68,0 -6.66,3.12 -6.66,6.96 z" /><path
       id="path174"
       style="fill:#4472c4;fill-opacity:1;fill-rule:evenodd;stroke:none"
       d="m 585.72,349.14 c 0,3.88 2.95,7.02 6.6,7.02 3.65,0 6.6,-3.14 6.6,-7.02 0,-3.88 -2.95,-7.02 -6.6,-7.02 -3.65,0 -6.6,3.14 -6.6,7.02 z" /><path
       id="path176"
       style="fill:none;stroke:#2f528f;stroke-width:0.95999998;stroke-linecap:butt;stroke-linejoin:miter;stroke-miterlimit:10;stroke-dasharray:none;stroke-opacity:1"
       d="m 585.72,349.14 c 0,3.88 2.95,7.02 6.6,7.02 3.65,0 6.6,-3.14 6.6,-7.02 0,-3.88 -2.95,-7.02 -6.6,-7.02 -3.65,0 -6.6,3.14 -6.6,7.02 z" /><path
       id="path178"
       style="fill:#4472c4;fill-opacity:1;fill-rule:evenodd;stroke:none"
       d="m 684.36,252.84 c 0,3.84 2.98,6.96 6.66,6.96 3.68,0 6.66,-3.12 6.66,-6.96 0,-3.84 -2.98,-6.96 -6.66,-6.96 -3.68,0 -6.66,3.12 -6.66,6.96 z" /><path
       id="path180"
       style="fill:none;stroke:#2f528f;stroke-width:0.95999998;stroke-linecap:butt;stroke-linejoin:miter;stroke-miterlimit:10;stroke-dasharray:none;stroke-opacity:1"
       d="m 684.36,252.84 c 0,3.84 2.98,6.96 6.66,6.96 3.68,0 6.66,-3.12 6.66,-6.96 0,-3.84 -2.98,-6.96 -6.66,-6.96 -3.68,0 -6.66,3.12 -6.66,6.96 z" /></g></svg>